<svg width="13" height="13" viewBox="0 0 13 13" fill="none" xmlns="http://www.w3.org/2000/svg">
<path d="M10.6167 11.375L7.20417 7.9625C6.93333 8.17917 6.62188 8.35069 6.26979 8.47708C5.91771 8.60347 5.54306 8.66667 5.14583 8.66667C4.16181 8.66667 3.32908 8.32578 2.64767 7.644C1.96625 6.96222 1.62536 6.1295 1.625 5.14583C1.62464 4.16217 1.96553 3.32944 2.64767 2.64767C3.32981 1.96589 4.16253 1.625 5.14583 1.625C6.12914 1.625 6.96204 1.96589 7.64454 2.64767C8.32704 3.32944 8.66775 4.16217 8.66667 5.14583C8.66667 5.54306 8.60347 5.91771 8.47708 6.26979C8.3507 6.62188 8.17917 6.93333 7.9625 7.20417L11.375 10.6167L10.6167 11.375ZM5.14583 7.58333C5.82292 7.58333 6.39853 7.34644 6.87267 6.87267C7.34681 6.39889 7.5837 5.82328 7.58333 5.14583C7.58297 4.46839 7.34608 3.89296 6.87267 3.41954C6.39925 2.94613 5.82364 2.70906 5.14583 2.70833C4.46803 2.70761 3.8926 2.94468 3.41954 3.41954C2.94649 3.8944 2.70942 4.46983 2.70833 5.14583C2.70725 5.82183 2.94432 6.39744 3.41954 6.87267C3.89476 7.34789 4.47019 7.58478 5.14583 7.58333Z" fill="white"/>
</svg>
