<svg width="18" height="18" viewBox="0 0 18 18" fill="none" xmlns="http://www.w3.org/2000/svg">
<path d="M5.39995 2.70001C4.68387 2.70001 3.99711 2.98448 3.49076 3.49082C2.98441 3.99717 2.69995 4.68393 2.69995 5.40001V10.8C2.69995 11.5161 2.98441 12.2029 3.49076 12.7092C3.99711 13.2155 4.68387 13.5 5.39995 13.5H10.8C11.516 13.5 12.2028 13.2155 12.7091 12.7092C13.2155 12.2029 13.5 11.5161 13.5 10.8V5.40001C13.5 4.68393 13.2155 3.99717 12.7091 3.49082C12.2028 2.98448 11.516 2.70001 10.8 2.70001H5.39995ZM11.097 5.96161C11.1865 6.04032 11.2411 6.15134 11.2489 6.2703C11.2567 6.38926 11.2169 6.50644 11.1384 6.59611L7.98835 10.1961C7.94782 10.2425 7.89818 10.2802 7.84251 10.3066C7.78684 10.3331 7.72633 10.3478 7.66473 10.3499C7.60313 10.352 7.54176 10.3415 7.48441 10.3189C7.42706 10.2963 7.37496 10.2622 7.33135 10.2186L5.53135 8.41861C5.48951 8.37677 5.45632 8.3271 5.43368 8.27244C5.41104 8.21777 5.39938 8.15918 5.39938 8.10001C5.39938 8.04084 5.41104 7.98225 5.43368 7.92759C5.45632 7.87292 5.48951 7.82325 5.53135 7.78141C5.57319 7.73957 5.62286 7.70638 5.67753 7.68374C5.73219 7.6611 5.79078 7.64944 5.84995 7.64944C5.90912 7.64944 5.96771 7.6611 6.02238 7.68374C6.07704 7.70638 6.12671 7.73957 6.16855 7.78141L7.62835 9.24121L10.4616 6.00391C10.5401 5.91424 10.6511 5.85943 10.7701 5.8515C10.889 5.84356 11.0072 5.88317 11.097 5.96161ZM5.17765 14.4C5.67265 14.9526 6.38995 15.3 7.19005 15.3H11.2401C12.3142 15.3 13.3443 14.8733 14.1038 14.1138C14.8634 13.3543 15.2901 12.3241 15.2901 11.25V7.20001C15.2901 6.40441 14.9454 5.68801 14.3982 5.19481V9.90001C14.3982 9.99001 14.3952 10.0797 14.3892 10.1691V11.2491C14.3892 11.6628 14.3077 12.0724 14.1494 12.4546C13.9911 12.8367 13.759 13.184 13.4665 13.4765C13.174 13.769 12.8268 14.001 12.4446 14.1593C12.0624 14.3176 11.6528 14.3991 11.2392 14.3991H9.94855L9.89815 14.4H5.17765Z" fill="white" fill-opacity="0.49"/>
</svg>
