<?xml version="1.0" standalone="no"?>
<!DOCTYPE svg PUBLIC "-//W3C//DTD SVG 20010904//EN"
 "http://www.w3.org/TR/2001/REC-SVG-20010904/DTD/svg10.dtd">
<svg version="1.0" xmlns="http://www.w3.org/2000/svg"
 width="270.000000pt" height="270.000000pt" viewBox="0 0 270.000000 270.000000"
 preserveAspectRatio="xMidYMid meet">

<g transform="translate(0.000000,270.000000) scale(0.100000,-0.100000)"
fill="#000000" stroke="none">
<path d="M675 2459 c-203 -47 -395 -159 -462 -271 -40 -65 -59 -155 -43 -202
16 -50 133 -151 167 -144 10 2 18 16 20 33 8 55 93 215 115 215 3 0 -21 -69
-54 -152 -173 -438 -182 -464 -182 -505 1 -23 8 -53 18 -67 23 -35 115 -96
146 -96 24 0 27 5 39 63 13 66 75 263 89 285 7 10 30 9 119 -10 l110 -22 -44
-94 c-57 -121 -99 -249 -129 -387 l-23 -110 25 -53 c17 -35 40 -62 65 -79 21
-14 39 -27 39 -30 0 -2 -21 -71 -46 -154 -26 -84 -44 -162 -41 -176 3 -19 -1
-27 -20 -36 -23 -10 -25 -15 -21 -69 3 -43 10 -64 28 -83 13 -14 27 -25 32
-25 4 0 17 -9 29 -21 18 -18 29 -20 73 -15 129 16 259 26 345 26 89 0 95 -1
132 -31 44 -35 72 -35 77 0 4 22 7 23 50 18 26 -4 57 -9 70 -13 21 -6 22 -4
22 57 0 74 -24 135 -64 166 -14 12 -26 25 -26 30 0 14 178 63 228 63 3 0 2 14
-1 30 -8 39 1 38 44 -6 129 -133 220 -125 335 30 41 56 49 73 50 113 2 50 -7
75 -37 108 -18 20 -17 21 22 70 53 66 79 117 79 155 0 16 5 30 10 30 6 0 10
-4 10 -8 0 -12 46 -32 74 -32 21 0 24 5 29 74 9 98 79 371 165 636 84 258 86
294 29 347 -40 36 -80 43 -108 17 -9 -8 -32 -54 -51 -102 l-33 -86 -5 78 c-5
72 -7 80 -38 107 -37 34 -93 39 -130 13 -22 -15 -25 -15 -45 4 -29 27 -75 44
-98 37 -10 -4 -40 -31 -67 -61 l-48 -54 -17 35 c-12 26 -25 37 -56 45 -58 15
-90 4 -108 -38 l-15 -36 -19 31 c-24 38 -81 62 -165 70 -49 5 -69 2 -88 -11
-34 -22 -34 -21 -42 22 -17 93 -93 190 -181 232 -95 45 -273 63 -378 39z m310
-45 c179 -63 260 -219 189 -363 -56 -112 -198 -189 -484 -262 -44 -12 -45 -12
-16 -20 15 -4 71 -13 125 -20 112 -14 125 -19 147 -61 21 -40 16 -62 -44 -193
-65 -143 -115 -295 -141 -425 -27 -143 -43 -186 -67 -182 -26 4 -82 65 -90 98
-18 70 73 376 161 542 30 57 55 106 55 110 0 4 -39 14 -87 21 -48 8 -121 21
-161 31 l-74 18 -18 -43 c-26 -60 -65 -189 -80 -257 -6 -32 -15 -60 -19 -62
-16 -10 -81 15 -96 37 -34 48 -25 77 139 483 46 116 92 237 101 268 12 40 21
56 33 56 24 0 92 -48 92 -65 0 -7 -16 -55 -35 -105 -19 -50 -35 -94 -35 -96 0
-9 82 -3 165 11 120 21 233 67 290 117 48 42 84 104 85 145 0 33 -44 78 -102
104 -47 21 -68 24 -178 24 -140 0 -214 -19 -305 -76 -102 -64 -197 -194 -213
-291 -10 -56 -30 -59 -81 -10 -38 36 -41 43 -41 93 0 159 163 300 440 380 83
24 267 21 345 -7z m931 -275 c19 -11 37 -31 40 -43 3 -14 -12 -66 -40 -140
-83 -211 -100 -311 -84 -481 3 -27 -1 -31 -39 -44 -53 -19 -88 -5 -109 44 -32
77 -12 181 78 413 22 57 38 105 36 107 -16 16 -179 -287 -243 -450 -15 -38
-31 -74 -35 -79 -5 -5 -22 -4 -39 4 -50 20 -59 70 -32 173 39 148 144 472 155
480 16 11 67 0 88 -20 22 -19 18 -50 -18 -157 -13 -38 -22 -71 -20 -73 2 -2
31 40 64 94 62 100 136 193 154 193 6 0 26 -9 44 -21z m-485 -4 c24 -9 51 -23
61 -32 48 -43 0 -142 -137 -280 -91 -92 -105 -103 -137 -103 -33 0 -36 -2 -42
-37 -8 -54 -7 -123 2 -123 16 0 71 66 110 130 21 36 46 66 55 68 17 4 97 -64
97 -82 0 -19 -69 -115 -113 -157 -79 -77 -149 -86 -186 -23 -11 19 -36 42 -56
51 l-35 17 0 69 c0 128 93 350 193 462 46 52 51 55 97 55 26 0 67 -7 91 -15z
m684 -30 c14 -13 25 -31 25 -39 0 -9 -29 -97 -65 -197 -64 -179 -77 -235 -53
-227 33 11 156 229 218 386 18 46 39 86 47 89 21 8 62 -14 74 -39 8 -19 -2
-58 -51 -208 -108 -325 -180 -608 -180 -706 0 -35 -1 -35 -32 -29 -43 10 -48
13 -48 34 0 10 -10 30 -21 45 -18 23 -21 36 -15 81 5 42 63 263 93 354 3 9
-11 -7 -30 -35 -44 -64 -92 -104 -122 -104 -32 0 -82 44 -90 79 -3 17 2 65 14
113 27 116 128 410 143 420 25 16 69 8 93 -17z m-1040 -589 c42 -18 53 -51 31
-94 -53 -103 -263 -660 -310 -826 -35 -120 -35 -130 7 -121 17 3 106 8 197 10
l165 4 12 61 c11 51 10 66 -1 88 -13 25 -12 29 14 52 21 19 38 55 66 140 44
137 107 289 176 423 l50 97 44 0 c34 0 51 -6 79 -31 31 -28 35 -37 35 -80 0
-26 -9 -71 -20 -98 -28 -73 -117 -211 -208 -326 -44 -55 -79 -101 -77 -103 2
-2 27 4 57 13 77 22 128 -1 128 -57 0 -25 -4 -28 -32 -28 -17 0 -67 -10 -111
-21 -85 -23 -90 -29 -103 -110 -5 -32 -4 -39 9 -39 51 0 97 -53 97 -110 0 -31
-1 -32 -32 -25 -18 3 -50 9 -70 12 -35 5 -38 4 -38 -20 0 -36 -27 -42 -56 -10
-13 14 -24 30 -24 34 0 17 -217 9 -461 -17 -60 -6 -69 -4 -88 15 -13 13 -21
34 -21 55 0 36 12 46 56 46 30 0 30 7 2 37 l-22 24 33 112 c38 133 162 465
261 702 39 93 68 175 66 181 -11 28 35 32 89 10z m263 -92 c33 -23 27 -57 -20
-115 -56 -68 -70 -76 -102 -61 -45 20 -32 99 27 160 34 35 61 40 95 16z m605
-198 c49 -18 77 -43 77 -71 0 -46 -55 -131 -150 -227 -87 -88 -100 -98 -132
-98 l-36 0 -7 -65 c-4 -35 -4 -73 0 -82 6 -15 12 -11 44 25 21 24 53 70 72
103 19 32 40 59 47 59 7 0 32 -18 55 -39 l42 -40 -20 -38 c-32 -61 -144 -169
-184 -176 -46 -9 -111 21 -147 69 -25 33 -29 46 -28 103 1 129 100 357 195
452 35 35 44 39 87 39 26 -1 64 -7 85 -14z m-723 -96 c27 -27 26 -33 -16 -142
-41 -108 -79 -248 -89 -331 -8 -63 -29 -87 -75 -87 -44 0 -70 26 -70 70 0 71
96 342 162 458 32 57 55 65 88 32z"/>
<path d="M1329 2023 c-22 -20 -54 -64 -70 -97 l-30 -61 76 78 c41 44 80 87 85
98 18 33 -16 23 -61 -18z"/>
<path d="M1498 1154 c-66 -139 -110 -246 -104 -252 14 -13 126 196 151 281 30
104 11 92 -47 -29z"/>
<path d="M1871 1139 c-19 -11 -42 -30 -52 -42 -25 -31 -72 -117 -66 -123 5 -5
92 88 134 143 32 42 27 48 -16 22z"/>
<path d="M2416 2229 c-25 -43 -25 -69 0 -69 8 0 14 -4 14 -9 0 -37 93 0 103
41 7 25 -8 48 -30 48 -8 0 -21 7 -29 15 -23 22 -31 19 -58 -26z m39 -29 c-48
-50 -61 -34 -24 27 20 31 23 33 37 19 15 -14 13 -18 -13 -46z m65 5 c0 -14
-68 -61 -76 -52 -3 3 9 21 26 41 31 35 50 39 50 11z"/>
</g>
</svg>
