<svg width="20" height="9" viewBox="0 0 20 9" fill="none" xmlns="http://www.w3.org/2000/svg">
<g opacity="0.4">
<mask id="path-1-inside-1_1040_388" fill="white">
<path fill-rule="evenodd" clip-rule="evenodd" d="M4.42639 1.00408H13.9547C14.6039 1.00408 15.0487 1.00463 15.3932 1.03278C15.7296 1.06026 15.9083 1.11052 16.0366 1.1759C16.3332 1.32703 16.5744 1.56818 16.7255 1.8648C16.7909 1.99311 16.8411 2.17182 16.8686 2.50818C16.8968 2.85273 16.8973 3.29748 16.8973 3.94666V5.06764C16.8973 5.71682 16.8968 6.16157 16.8686 6.50611C16.8411 6.84248 16.7909 7.02119 16.7255 7.1495C16.5744 7.44611 16.3332 7.68727 16.0366 7.8384C15.9083 7.90378 15.7296 7.95404 15.3932 7.98152C15.0487 8.00967 14.6039 8.01022 13.9547 8.01022H4.42639C3.77722 8.01022 3.33247 8.00967 2.98792 7.98152C2.65155 7.95404 2.47285 7.90378 2.34454 7.8384C2.04792 7.68727 1.80676 7.44611 1.65563 7.1495C1.59026 7.02119 1.53999 6.84248 1.51251 6.50611C1.48436 6.16157 1.48382 5.71682 1.48382 5.06764V3.94666C1.48382 3.29748 1.48436 2.85273 1.51251 2.50818C1.53999 2.17182 1.59026 1.99311 1.65563 1.8648C1.80676 1.56818 2.04792 1.32703 2.34454 1.1759C2.47285 1.11052 2.65155 1.06026 2.98792 1.03278C3.33247 1.00463 3.77722 1.00408 4.42639 1.00408ZM0.783203 3.94666C0.783203 2.67142 0.783203 2.0338 1.03138 1.54673C1.24968 1.11828 1.59802 0.769947 2.02646 0.551644C2.51354 0.303467 3.15116 0.303467 4.42639 0.303467H13.9547C15.23 0.303467 15.8676 0.303467 16.3547 0.551644C16.7831 0.769947 17.1315 1.11828 17.3498 1.54673C17.5979 2.0338 17.5979 2.67142 17.5979 3.94666V5.06764C17.5979 6.34288 17.5979 6.98049 17.3498 7.46757C17.1315 7.89602 16.7831 8.24435 16.3547 8.46265C15.8676 8.71083 15.23 8.71083 13.9547 8.71083H4.42639C3.15116 8.71083 2.51354 8.71083 2.02646 8.46265C1.59802 8.24435 1.24968 7.89602 1.03138 7.46757C0.783203 6.98049 0.783203 6.34288 0.783203 5.06764V3.94666ZM19.3496 4.50716C19.3496 3.85424 18.903 3.30562 18.2986 3.15007V5.86424C18.903 5.70869 19.3496 5.16007 19.3496 4.50716Z"/>
</mask>
<path d="M15.3932 1.03278L15.4503 0.334489V0.334489L15.3932 1.03278ZM16.0366 1.1759L15.7185 1.80015L15.7185 1.80015L16.0366 1.1759ZM16.7255 1.8648L17.3498 1.54673V1.54673L16.7255 1.8648ZM16.8686 2.50818L17.5669 2.45113V2.45113L16.8686 2.50818ZM16.8686 6.50611L17.5669 6.56317V6.56317L16.8686 6.50611ZM16.7255 7.1495L17.3498 7.46757V7.46757L16.7255 7.1495ZM16.0366 7.8384L16.3547 8.46265L16.0366 7.8384ZM15.3932 7.98152L15.3362 7.28324H15.3362L15.3932 7.98152ZM2.98792 7.98152L3.04497 7.28324H3.04497L2.98792 7.98152ZM2.34454 7.8384L2.02646 8.46265H2.02646L2.34454 7.8384ZM1.65563 7.1495L2.27988 6.83143L2.27988 6.83143L1.65563 7.1495ZM1.51251 6.50611L2.2108 6.44906V6.44906L1.51251 6.50611ZM1.51251 2.50818L2.2108 2.56524L1.51251 2.50818ZM1.65563 1.8648L2.27988 2.18287L2.27988 2.18287L1.65563 1.8648ZM2.34454 1.1759L2.66261 1.80015L2.66261 1.80015L2.34454 1.1759ZM2.98792 1.03278L3.04497 1.73106L2.98792 1.03278ZM1.03138 1.54673L1.65563 1.8648L1.03138 1.54673ZM2.02646 0.551644L2.34454 1.1759L2.02646 0.551644ZM16.3547 0.551644L16.6727 -0.072607V-0.072607L16.3547 0.551644ZM17.3498 1.54673L16.7255 1.8648L16.7255 1.8648L17.3498 1.54673ZM17.3498 7.46757L16.7255 7.1495L16.7255 7.1495L17.3498 7.46757ZM16.3547 8.46265L16.6727 9.08691L16.3547 8.46265ZM2.02646 8.46265L1.70839 9.08691H1.70839L2.02646 8.46265ZM1.03138 7.46757L0.407129 7.78564H0.407129L1.03138 7.46757ZM18.2986 3.15007L18.4733 2.47157L17.598 2.2463V3.15007H18.2986ZM18.2986 5.86424H17.598V6.76801L18.4733 6.54274L18.2986 5.86424ZM13.9547 0.303467H4.42639V1.70469H13.9547V0.303467ZM15.4503 0.334489C15.0705 0.303461 14.5921 0.303467 13.9547 0.303467V1.70469C14.6158 1.70469 15.0268 1.70579 15.3362 1.73106L15.4503 0.334489ZM16.3547 0.551645C16.111 0.427471 15.8297 0.365487 15.4503 0.334489L15.3362 1.73106C15.6295 1.75503 15.7056 1.79357 15.7185 1.80015L16.3547 0.551645ZM17.3498 1.54673C17.1315 1.11828 16.7831 0.769947 16.3547 0.551644L15.7185 1.80015C15.8833 1.88411 16.0173 2.01809 16.1013 2.18287L17.3498 1.54673ZM17.5669 2.45113C17.5359 2.07173 17.4739 1.79043 17.3498 1.54673L16.1013 2.18287C16.1078 2.19579 16.1464 2.2719 16.1703 2.56524L17.5669 2.45113ZM17.5979 3.94666C17.5979 3.30933 17.5979 2.83089 17.5669 2.45113L16.1703 2.56524C16.1956 2.87457 16.1967 3.28563 16.1967 3.94666H17.5979ZM17.5979 5.06764V3.94666H16.1967V5.06764H17.5979ZM17.5669 6.56317C17.5979 6.1834 17.5979 5.70497 17.5979 5.06764H16.1967C16.1967 5.72867 16.1956 6.13973 16.1703 6.44906L17.5669 6.56317ZM17.3498 7.46757C17.4739 7.22387 17.5359 6.94256 17.5669 6.56317L16.1703 6.44906C16.1464 6.7424 16.1078 6.81851 16.1013 6.83143L17.3498 7.46757ZM16.3547 8.46265C16.7831 8.24435 17.1315 7.89602 17.3498 7.46757L16.1013 6.83143C16.0173 6.99621 15.8833 7.13019 15.7185 7.21415L16.3547 8.46265ZM15.4503 8.67981C15.8297 8.64881 16.111 8.58683 16.3547 8.46265L15.7185 7.21415C15.7056 7.22073 15.6295 7.25927 15.3362 7.28324L15.4503 8.67981ZM13.9547 8.71083C14.5921 8.71083 15.0705 8.71084 15.4503 8.67981L15.3362 7.28324C15.0268 7.30851 14.6158 7.3096 13.9547 7.3096V8.71083ZM4.42639 8.71083H13.9547V7.3096H4.42639V8.71083ZM2.93087 8.67981C3.31063 8.71084 3.78906 8.71083 4.42639 8.71083V7.3096C3.76537 7.3096 3.3543 7.30851 3.04497 7.28324L2.93087 8.67981ZM2.02646 8.46265C2.27017 8.58683 2.55147 8.64881 2.93087 8.67981L3.04497 7.28324C2.75164 7.25927 2.67552 7.22073 2.66261 7.21415L2.02646 8.46265ZM1.03138 7.46757C1.24968 7.89602 1.59802 8.24435 2.02646 8.46265L2.66261 7.21415C2.49782 7.13019 2.36385 6.99621 2.27988 6.83143L1.03138 7.46757ZM0.814225 6.56317C0.845223 6.94256 0.907207 7.22387 1.03138 7.46757L2.27988 6.83143C2.2733 6.81851 2.23477 6.7424 2.2108 6.44906L0.814225 6.56317ZM0.783203 5.06764C0.783203 5.70497 0.783198 6.1834 0.814225 6.56317L2.2108 6.44906C2.18553 6.13973 2.18443 5.72867 2.18443 5.06764H0.783203ZM0.783203 3.94666V5.06764H2.18443V3.94666H0.783203ZM0.814225 2.45113C0.783198 2.83089 0.783203 3.30933 0.783203 3.94666H2.18443C2.18443 3.28563 2.18553 2.87457 2.2108 2.56524L0.814225 2.45113ZM1.03138 1.54673C0.907207 1.79043 0.845223 2.07173 0.814225 2.45113L2.2108 2.56524C2.23477 2.2719 2.2733 2.19579 2.27988 2.18287L1.03138 1.54673ZM2.02646 0.551644C1.59802 0.769947 1.24968 1.11828 1.03138 1.54673L2.27988 2.18287C2.36385 2.01809 2.49782 1.88411 2.66261 1.80015L2.02646 0.551644ZM2.93087 0.334489C2.55147 0.365487 2.27017 0.427471 2.02646 0.551644L2.66261 1.80015C2.67552 1.79357 2.75164 1.75503 3.04497 1.73106L2.93087 0.334489ZM4.42639 0.303467C3.78906 0.303467 3.31063 0.303461 2.93087 0.334489L3.04497 1.73106C3.3543 1.70579 3.76537 1.70469 4.42639 1.70469V0.303467ZM0.407129 1.22866C0.224329 1.58742 0.150501 1.97106 0.115938 2.39408C0.0820446 2.80892 0.0825894 3.3206 0.0825894 3.94666H1.48382C1.48382 3.29748 1.48436 2.85273 1.51251 2.50818C1.53999 2.17182 1.59026 1.99311 1.65563 1.8648L0.407129 1.22866ZM1.70839 -0.072607C1.14812 0.212866 0.692603 0.668382 0.407129 1.22866L1.65563 1.8648C1.80676 1.56818 2.04792 1.32703 2.34454 1.1759L1.70839 -0.072607ZM4.42639 -0.397147C3.80034 -0.397147 3.28866 -0.397692 2.87382 -0.363798C2.4508 -0.329236 2.06716 -0.255408 1.70839 -0.072607L2.34454 1.1759C2.47285 1.11052 2.65155 1.06026 2.98792 1.03278C3.33247 1.00463 3.77722 1.00408 4.42639 1.00408V-0.397147ZM13.9547 -0.397147H4.42639V1.00408H13.9547V-0.397147ZM16.6727 -0.072607C16.314 -0.255408 15.9303 -0.329236 15.5073 -0.363798C15.0925 -0.397692 14.5808 -0.397147 13.9547 -0.397147V1.00408C14.6039 1.00408 15.0487 1.00463 15.3932 1.03278C15.7296 1.06026 15.9083 1.11052 16.0366 1.1759L16.6727 -0.072607ZM17.974 1.22866C17.6885 0.668382 17.233 0.212866 16.6727 -0.072607L16.0366 1.1759C16.3332 1.32703 16.5744 1.56818 16.7255 1.8648L17.974 1.22866ZM18.2985 3.94666C18.2985 3.3206 18.2991 2.80892 18.2652 2.39408C18.2306 1.97106 18.1568 1.58742 17.974 1.22865L16.7255 1.8648C16.7909 1.99311 16.8411 2.17182 16.8686 2.50818C16.8968 2.85273 16.8973 3.29748 16.8973 3.94666H18.2985ZM18.2985 5.06764V3.94666H16.8973V5.06764H18.2985ZM17.974 7.78564C18.1568 7.42688 18.2306 7.04324 18.2652 6.62022C18.2991 6.20538 18.2985 5.6937 18.2985 5.06764H16.8973C16.8973 5.71682 16.8968 6.16157 16.8686 6.50611C16.8411 6.84248 16.7909 7.02119 16.7255 7.1495L17.974 7.78564ZM16.6727 9.08691C17.233 8.80143 17.6885 8.34592 17.974 7.78564L16.7255 7.1495C16.5744 7.44611 16.3332 7.68727 16.0366 7.8384L16.6727 9.08691ZM13.9547 9.41145C14.5808 9.41145 15.0925 9.41199 15.5073 9.3781C15.9303 9.34353 16.314 9.26971 16.6727 9.08691L16.0366 7.8384C15.9083 7.90378 15.7296 7.95404 15.3932 7.98152C15.0487 8.00967 14.6039 8.01022 13.9547 8.01022V9.41145ZM4.42639 9.41145H13.9547V8.01022H4.42639V9.41145ZM1.70839 9.08691C2.06716 9.26971 2.4508 9.34353 2.87382 9.3781C3.28866 9.41199 3.80034 9.41145 4.42639 9.41145V8.01022C3.77722 8.01022 3.33247 8.00967 2.98792 7.98152C2.65155 7.95404 2.47285 7.90378 2.34454 7.8384L1.70839 9.08691ZM0.407129 7.78564C0.692603 8.34592 1.14812 8.80143 1.70839 9.08691L2.34454 7.8384C2.04792 7.68727 1.80676 7.44611 1.65563 7.1495L0.407129 7.78564ZM0.0825894 5.06764C0.0825894 5.6937 0.0820446 6.20538 0.115938 6.62022C0.150501 7.04324 0.224329 7.42688 0.407129 7.78564L1.65563 7.1495C1.59026 7.02119 1.53999 6.84248 1.51251 6.50611C1.48436 6.16157 1.48382 5.71682 1.48382 5.06764H0.0825894ZM0.0825894 3.94666V5.06764H1.48382V3.94666H0.0825894ZM18.124 3.82857C18.4263 3.90639 18.6489 4.18166 18.6489 4.50716H20.0502C20.0502 3.52682 19.3797 2.70486 18.4733 2.47157L18.124 3.82857ZM18.9993 5.86424V3.15007H17.598V5.86424H18.9993ZM18.6489 4.50716C18.6489 4.83265 18.4263 5.10792 18.124 5.18574L18.4733 6.54274C19.3797 6.30945 20.0502 5.48749 20.0502 4.50716H18.6489Z" fill="white" fill-opacity="0.67" mask="url(#path-1-inside-1_1040_388)"/>
</g>
<rect x="2.18457" y="1.70483" width="14.0123" height="5.60491" rx="1.05092" fill="white" fill-opacity="0.67"/>
</svg>
