<svg width="11" height="11" viewBox="0 0 11 11" fill="none" xmlns="http://www.w3.org/2000/svg">
<g clip-path="url(#clip0_1040_584)">
<path d="M6.875 1.37477C7.469 1.37477 8.019 1.56269 8.46862 1.88352L4.28221 6.06948C4.23843 6.11176 4.20352 6.16233 4.17949 6.21825C4.15547 6.27417 4.14283 6.33431 4.1423 6.39517C4.14177 6.45603 4.15337 6.51638 4.17641 6.57271C4.19946 6.62904 4.23349 6.68021 4.27653 6.72324C4.31956 6.76628 4.37074 6.80031 4.42706 6.82336C4.48339 6.8464 4.54374 6.858 4.6046 6.85747C4.66546 6.85694 4.7256 6.8443 4.78152 6.82028C4.83744 6.79626 4.88801 6.76134 4.93029 6.71756L9.11671 2.53115C9.44814 2.99637 9.62586 3.55356 9.625 4.12477V8.70811C9.625 8.95122 9.52842 9.18438 9.35651 9.35629C9.18461 9.52819 8.95145 9.62477 8.70833 9.62477H2.29167C2.04855 9.62477 1.81539 9.52819 1.64349 9.35629C1.47158 9.18438 1.375 8.95122 1.375 8.70811V2.29144C1.375 2.04832 1.47158 1.81517 1.64349 1.64326C1.81539 1.47135 2.04855 1.37477 2.29167 1.37477H6.875ZM9.92612 1.07365C10.012 1.1596 10.0603 1.27615 10.0603 1.39769C10.0603 1.51922 10.012 1.63578 9.92612 1.72173L9.11625 2.53115C8.93776 2.28058 8.71873 2.06155 8.46817 1.88306L9.27758 1.07365C9.36353 0.987723 9.48009 0.939453 9.60162 0.939453C9.72316 0.939453 9.84017 0.987723 9.92612 1.07365Z" fill="#62C6FF"/>
</g>
<defs>
<clipPath id="clip0_1040_584">
<rect width="11" height="11" fill="white"/>
</clipPath>
</defs>
</svg>
