<svg width="13" height="15" viewBox="0 0 13 15" fill="none" xmlns="http://www.w3.org/2000/svg">
<path d="M8.25786 7.64995V13.7898C8.28903 14.0235 8.21111 14.2729 8.0319 14.4365C7.95982 14.5087 7.8742 14.566 7.77994 14.6051C7.68568 14.6442 7.58464 14.6644 7.48259 14.6644C7.38054 14.6644 7.2795 14.6442 7.18524 14.6051C7.09098 14.566 7.00536 14.5087 6.93328 14.4365L5.36715 12.8704C5.28222 12.7873 5.21764 12.6857 5.17844 12.5735C5.13925 12.4613 5.1265 12.3416 5.14119 12.2237V7.64995H5.11782L0.62982 1.8997C0.50329 1.73727 0.446197 1.53136 0.471016 1.32696C0.495836 1.12256 0.600551 0.936298 0.762278 0.808868C0.91032 0.699785 1.07395 0.637451 1.24536 0.637451H12.1537C12.3251 0.637451 12.4887 0.699785 12.6368 0.808868C12.7985 0.936298 12.9032 1.12256 12.928 1.32696C12.9529 1.53136 12.8958 1.73727 12.7692 1.8997L8.28124 7.64995H8.25786Z" fill="black"/>
</svg>
