<svg width="13" height="8" viewBox="0 0 13 8" fill="none" xmlns="http://www.w3.org/2000/svg">
<path d="M10.3612 0.436651C10.3079 0.565403 10.3079 0.728626 10.3079 1.05507V5.95937C10.3079 6.28581 10.3079 6.44903 10.3612 6.57779C10.4323 6.74946 10.5687 6.88585 10.7404 6.95696C10.8691 7.01029 11.0324 7.01029 11.3588 7.01029C11.6853 7.01029 11.8485 7.01029 11.9772 6.95696C12.1489 6.88585 12.2853 6.74946 12.3564 6.57779C12.4097 6.44903 12.4097 6.28581 12.4097 5.95937V1.05507C12.4097 0.728626 12.4097 0.565403 12.3564 0.436651C12.2853 0.264981 12.1489 0.128589 11.9772 0.0574814C11.8485 0.00415039 11.6853 0.00415039 11.3588 0.00415039C11.0324 0.00415039 10.8691 0.00415039 10.7404 0.0574814C10.5687 0.128589 10.4323 0.264981 10.3612 0.436651Z" fill="white" fill-opacity="0.67"/>
<path d="M7.15513 2.4563C7.15513 2.12985 7.15513 1.96663 7.20846 1.83788C7.27957 1.66621 7.41596 1.52982 7.58763 1.45871C7.71639 1.40538 7.87961 1.40538 8.20605 1.40538C8.5325 1.40538 8.69572 1.40538 8.82447 1.45871C8.99614 1.52982 9.13253 1.66621 9.20364 1.83788C9.25697 1.96663 9.25697 2.12985 9.25697 2.4563V5.95937C9.25697 6.28581 9.25697 6.44903 9.20364 6.57779C9.13253 6.74946 8.99614 6.88585 8.82447 6.95696C8.69572 7.01029 8.5325 7.01029 8.20605 7.01029C7.87961 7.01029 7.71639 7.01029 7.58763 6.95696C7.41596 6.88585 7.27957 6.74946 7.20846 6.57779C7.15513 6.44903 7.15513 6.28581 7.15513 5.95937V2.4563Z" fill="white" fill-opacity="0.67"/>
<path d="M4.0557 3.23911C4.00237 3.36786 4.00237 3.53108 4.00237 3.85753V5.95937C4.00237 6.28581 4.00237 6.44903 4.0557 6.57779C4.12681 6.74946 4.2632 6.88585 4.43487 6.95696C4.56362 7.01029 4.72685 7.01029 5.05329 7.01029C5.37974 7.01029 5.54296 7.01029 5.67171 6.95696C5.84338 6.88585 5.97977 6.74946 6.05088 6.57779C6.10421 6.44903 6.10421 6.28581 6.10421 5.95937V3.85753C6.10421 3.53108 6.10421 3.36786 6.05088 3.23911C5.97977 3.06744 5.84338 2.93104 5.67171 2.85994C5.54296 2.80661 5.37974 2.80661 5.05329 2.80661C4.72685 2.80661 4.56362 2.80661 4.43487 2.85994C4.2632 2.93104 4.12681 3.06744 4.0557 3.23911Z" fill="white" fill-opacity="0.67"/>
<path d="M0.90294 4.29003C0.849609 4.41878 0.849609 4.582 0.849609 4.90845V5.95937C0.849609 6.28581 0.849609 6.44903 0.90294 6.57779C0.974048 6.74946 1.11044 6.88585 1.28211 6.95696C1.41086 7.01029 1.57408 7.01029 1.90053 7.01029C2.22698 7.01029 2.3902 7.01029 2.51895 6.95696C2.69062 6.88585 2.82701 6.74946 2.89812 6.57779C2.95145 6.44903 2.95145 6.28581 2.95145 5.95937V4.90845C2.95145 4.582 2.95145 4.41878 2.89812 4.29003C2.82701 4.11836 2.69062 3.98196 2.51895 3.91086C2.3902 3.85753 2.22698 3.85753 1.90053 3.85753C1.57408 3.85753 1.41086 3.85753 1.28211 3.91086C1.11044 3.98196 0.974048 4.11836 0.90294 4.29003Z" fill="white" fill-opacity="0.67"/>
</svg>
