<svg width="20" height="19" viewBox="0 0 20 19" fill="none" xmlns="http://www.w3.org/2000/svg">
<path d="M15.7218 16.6625L10.813 11.7537C10.4234 12.0654 9.97541 12.3121 9.46895 12.4939C8.96249 12.6757 8.42357 12.7666 7.85218 12.7666C6.4367 12.7666 5.23886 12.2763 4.25866 11.2956C3.27847 10.3148 2.78812 9.117 2.7876 7.70203C2.78708 6.28707 3.27743 5.08923 4.25866 4.10852C5.2399 3.12781 6.43773 2.63745 7.85218 2.63745C9.26663 2.63745 10.4647 3.12781 11.4465 4.10852C12.4282 5.08923 12.9183 6.28707 12.9168 7.70203C12.9168 8.27342 12.8259 8.81235 12.6441 9.31881C12.4623 9.82526 12.2155 10.2733 11.9038 10.6629L16.8126 15.5716L15.7218 16.6625ZM7.85218 11.2083C8.82614 11.2083 9.65413 10.8675 10.3362 10.186C11.0182 9.50451 11.359 8.67651 11.3584 7.70203C11.3579 6.72756 11.0172 5.89982 10.3362 5.21883C9.65517 4.53784 8.82718 4.19682 7.85218 4.19578C6.87718 4.19475 6.04945 4.53576 5.36898 5.21883C4.68851 5.9019 4.34749 6.72963 4.34593 7.70203C4.34437 8.67443 4.68539 9.50243 5.36898 10.186C6.05257 10.8696 6.8803 11.2104 7.85218 11.2083Z" fill="white" fill-opacity="0.69"/>
</svg>
