<svg width="23" height="23" viewBox="0 0 23 23" fill="none" xmlns="http://www.w3.org/2000/svg">
<path d="M4.21689 3.56763H18.5856C18.8238 3.56763 19.0522 3.66224 19.2207 3.83066C19.3891 3.99908 19.4837 4.2275 19.4837 4.46567V10.752H3.31885V4.46567C3.31885 4.2275 3.41346 3.99908 3.58188 3.83066C3.7503 3.66224 3.97872 3.56763 4.21689 3.56763ZM3.31885 12.5481H19.4837V18.8344C19.4837 19.0726 19.3891 19.301 19.2207 19.4694C19.0522 19.6379 18.8238 19.7325 18.5856 19.7325H4.21689C3.97872 19.7325 3.7503 19.6379 3.58188 19.4694C3.41346 19.301 3.31885 19.0726 3.31885 18.8344V12.5481ZM6.91104 15.2422V17.0383H9.60518V15.2422H6.91104ZM6.91104 6.26177V8.05786H9.60518V6.26177H6.91104Z" fill="#86FFA1"/>
</svg>
