<svg width="11" height="8" viewBox="0 0 11 8" fill="none" xmlns="http://www.w3.org/2000/svg">
<path d="M8.97336 2.97896C9.05288 3.05357 9.17549 3.05392 9.2529 2.97685L9.99836 2.2314C10.0786 2.15083 10.0789 2.01806 9.99626 1.93995C8.72885 0.740145 7.0183 0.00415039 5.1354 0.00415039C3.2525 0.00415039 1.54195 0.740145 0.27454 1.93995C0.191867 2.01806 0.192218 2.15083 0.272438 2.2314L1.01789 2.97685C1.09531 3.05392 1.21792 3.05357 1.29744 2.97896C2.30247 2.03698 3.65255 1.45933 5.1354 1.45933C6.61825 1.45933 7.96833 2.03698 8.97336 2.97896Z" fill="white" fill-opacity="0.67"/>
<path d="M7.25904 4.69578C7.33996 4.76794 7.46082 4.76864 7.53754 4.69192L8.28194 3.94752C8.36286 3.8666 8.36321 3.73173 8.27914 3.65431C7.45171 2.8938 6.3479 2.42929 5.13548 2.42929C3.92307 2.42929 2.81925 2.8938 1.99183 3.65431C1.90776 3.73173 1.90811 3.8666 1.98903 3.94752L2.73343 4.69192C2.81015 4.76864 2.931 4.76794 3.01192 4.69578C3.57662 4.19168 4.32067 3.88446 5.13548 3.88446C5.9503 3.88446 6.69435 4.19168 7.25904 4.69578Z" fill="white" fill-opacity="0.67"/>
<path d="M6.56113 5.37162C6.64905 5.44519 6.64835 5.58216 6.56708 5.66343L5.27935 6.95116C5.20054 7.02997 5.07232 7.02997 4.9935 6.95116L3.70578 5.66343C3.62451 5.58216 3.62345 5.44519 3.71173 5.37162C4.09742 5.04899 4.59415 4.85457 5.13643 4.85457C5.6787 4.85457 6.17509 5.04899 6.56113 5.37162Z" fill="white" fill-opacity="0.67"/>
</svg>
