<svg width="97" height="94" viewBox="0 0 97 94" fill="none" xmlns="http://www.w3.org/2000/svg">
<g filter="url(#filter0_d_6536_13210)">
<path d="M60.3444 50.8917L52.7107 38.1688C51.7032 36.4896 50.179 35.5338 48.4998 35.5338C46.8207 35.5338 45.2965 36.4896 44.289 38.1558L36.6552 50.8917C36.0869 51.8346 35.8027 52.8163 35.8027 53.7463C35.8027 54.4825 35.9836 55.2058 36.3452 55.8388C37.1719 57.2854 38.7736 58.125 40.7498 58.125H56.2498C58.2261 58.125 59.8277 57.2854 60.6544 55.8388C61.0161 55.2058 61.1969 54.5213 61.1969 53.7979C61.2098 52.8421 60.9257 51.8475 60.3444 50.8917ZM48.4998 41.9146C49.5977 41.9146 50.5019 42.8188 50.5019 43.9167C50.5019 45.0146 49.6107 45.9188 48.4998 45.9188C47.4019 45.9188 46.4977 45.0146 46.4977 43.9167C46.4977 42.8058 47.389 41.9146 48.4998 41.9146ZM50.6827 52.8421C50.644 52.8938 49.6494 54.0304 48.009 54.0304H47.8152C47.1565 53.9917 46.614 53.7075 46.2911 53.2167C45.8907 52.6096 45.8261 51.7829 46.1361 50.8658L46.6657 49.29C46.9627 48.4117 46.6786 48.2696 46.5236 48.1921L46.3427 48.1663C46.0198 48.1663 45.5677 48.36 45.4257 48.4375C45.2965 48.5021 45.1286 48.4763 45.0252 48.3471C44.9348 48.2179 44.9348 48.05 45.0382 47.9338C45.0769 47.8821 46.1619 46.655 47.9057 46.7583C48.5644 46.7971 49.1069 47.0813 49.4298 47.5721C49.8432 48.1792 49.8948 49.0058 49.5848 49.9358L49.0552 51.5117C48.7582 52.39 49.0423 52.5321 49.1973 52.6096L49.3782 52.6354C49.7011 52.6354 50.1532 52.4417 50.2952 52.3771C50.4373 52.2996 50.5923 52.3383 50.6957 52.4675C50.7861 52.5579 50.7861 52.7258 50.6827 52.8421Z" fill="#5EA4FF"/>
</g>
<defs>
<filter id="filter0_d_6536_13210" x="0.302734" y="0.0337524" width="96.3945" height="93.5912" filterUnits="userSpaceOnUse" color-interpolation-filters="sRGB">
<feFlood flood-opacity="0" result="BackgroundImageFix"/>
<feColorMatrix in="SourceAlpha" type="matrix" values="0 0 0 0 0 0 0 0 0 0 0 0 0 0 0 0 0 0 127 0" result="hardAlpha"/>
<feOffset/>
<feGaussianBlur stdDeviation="17.75"/>
<feComposite in2="hardAlpha" operator="out"/>
<feColorMatrix type="matrix" values="0 0 0 0 0.368627 0 0 0 0 0.643137 0 0 0 0 1 0 0 0 1 0"/>
<feBlend mode="normal" in2="BackgroundImageFix" result="effect1_dropShadow_6536_13210"/>
<feBlend mode="normal" in="SourceGraphic" in2="effect1_dropShadow_6536_13210" result="shape"/>
</filter>
</defs>
</svg>
