<svg width="19" height="19" viewBox="0 0 19 19" fill="none" xmlns="http://www.w3.org/2000/svg">
<g id="material-symbols:lock">
<path id="Vector" d="M4.75008 17.4167C4.31466 17.4167 3.94205 17.2618 3.63225 16.952C3.32244 16.6422 3.16728 16.2693 3.16675 15.8334V7.91669C3.16675 7.48127 3.32191 7.10866 3.63225 6.79885C3.94258 6.48905 4.31519 6.33388 4.75008 6.33335H5.54175V4.75002C5.54175 3.65488 5.92782 2.72151 6.69996 1.9499C7.4721 1.17828 8.40547 0.792215 9.50008 0.791688C10.5947 0.79116 11.5283 1.17723 12.301 1.9499C13.0737 2.72256 13.4595 3.65594 13.4584 4.75002V6.33335H14.2501C14.6855 6.33335 15.0584 6.48852 15.3687 6.79885C15.679 7.10919 15.8339 7.4818 15.8334 7.91669V15.8334C15.8334 16.2688 15.6785 16.6416 15.3687 16.952C15.0589 17.2623 14.686 17.4172 14.2501 17.4167H4.75008ZM9.50008 13.4584C9.9355 13.4584 10.3084 13.3035 10.6187 12.9936C10.929 12.6838 11.0839 12.311 11.0834 11.875C11.0829 11.4391 10.928 11.0665 10.6187 10.7572C10.3094 10.4479 9.93655 10.2927 9.50008 10.2917C9.06361 10.2906 8.691 10.4458 8.38225 10.7572C8.0735 11.0686 7.91833 11.4412 7.91675 11.875C7.91516 12.3089 8.07033 12.6817 8.38225 12.9936C8.69416 13.3056 9.06678 13.4605 9.50008 13.4584ZM7.12508 6.33335H11.8751V4.75002C11.8751 4.0903 11.6442 3.52953 11.1824 3.06773C10.7206 2.60592 10.1598 2.37502 9.50008 2.37502C8.84036 2.37502 8.27959 2.60592 7.81779 3.06773C7.35598 3.52953 7.12508 4.0903 7.12508 4.75002V6.33335Z" fill="#FF6464"/>
</g>
</svg>
