<svg width="20" height="20" viewBox="0 0 20 20" fill="none" xmlns="http://www.w3.org/2000/svg">
<g id="material-symbols:map">
<path id="Vector" d="M12.7313 17.147L7.83748 15.4342L4.04477 16.9023C3.77289 17.011 3.52141 16.9806 3.29031 16.8109C3.05921 16.6413 2.94366 16.4135 2.94366 16.1274V4.70854C2.94366 4.53182 2.99478 4.37549 3.097 4.23955C3.19923 4.10361 3.33843 4.00166 3.51461 3.93369L7.83748 2.46555L12.7313 4.17838L16.524 2.71024C16.7959 2.60148 17.0474 2.63221 17.2785 2.8024C17.5096 2.9726 17.6251 3.20016 17.6251 3.48509V14.904C17.6251 15.0807 17.5743 15.237 17.4726 15.373C17.3709 15.5089 17.2314 15.6109 17.0542 15.6788L12.7313 17.147ZM11.9157 15.1487V5.60574L8.65311 4.46385V14.0068L11.9157 15.1487Z" fill="white" fill-opacity="0.54"/>
</g>
</svg>
