<svg width="18" height="18" viewBox="0 0 18 18" fill="none" xmlns="http://www.w3.org/2000/svg">
<g id="mdi:users">
<path id="Vector" d="M12 12.75V14.25H1.5V12.75C1.5 12.75 1.5 9.75 6.75 9.75C12 9.75 12 12.75 12 12.75ZM9.375 5.625C9.375 5.10582 9.22105 4.5983 8.93261 4.16663C8.64417 3.73495 8.2342 3.39849 7.75454 3.19981C7.27489 3.00113 6.74709 2.94915 6.23789 3.05044C5.72869 3.15172 5.26096 3.40173 4.89384 3.76884C4.52673 4.13595 4.27672 4.60368 4.17544 5.11288C4.07415 5.62209 4.12614 6.14988 4.32482 6.62954C4.5235 7.1092 4.85995 7.51917 5.29163 7.8076C5.72331 8.09604 6.23082 8.25 6.75 8.25C7.44619 8.25 8.11387 7.97344 8.60616 7.48115C9.09844 6.98887 9.375 6.32119 9.375 5.625ZM11.955 9.75C12.4161 10.1068 12.7933 10.5603 13.0603 11.0786C13.3272 11.5969 13.4773 12.1674 13.5 12.75V14.25H16.5V12.75C16.5 12.75 16.5 10.0275 11.955 9.75ZM11.25 3C10.7338 2.9976 10.2291 3.1519 9.8025 3.4425C10.2581 4.07905 10.503 4.84221 10.503 5.625C10.503 6.40778 10.2581 7.17094 9.8025 7.8075C10.2291 8.0981 10.7338 8.2524 11.25 8.25C11.9462 8.25 12.6139 7.97344 13.1062 7.48115C13.5984 6.98887 13.875 6.32119 13.875 5.625C13.875 4.9288 13.5984 4.26112 13.1062 3.76884C12.6139 3.27656 11.9462 3 11.25 3Z" fill="white" fill-opacity="0.5"/>
</g>
</svg>
