<svg width="125" height="125" viewBox="0 0 125 125" fill="none" xmlns="http://www.w3.org/2000/svg">
<g filter="url(#filter0_i_6590_29)">
<path d="M62.5 118C51.5231 118 40.7928 114.745 31.6658 108.647C22.5389 102.548 15.4253 93.8802 11.2247 83.7389C7.02402 73.5976 5.92494 62.4384 8.06642 51.6725C10.2079 40.9065 15.4938 31.0174 23.2556 23.2556C31.0174 15.4938 40.9065 10.2079 51.6725 8.06642C62.4384 5.92494 73.5976 7.02402 83.7389 11.2247C93.8802 15.4254 102.548 22.5389 108.647 31.6659C114.745 40.7928 118 51.5231 118 62.5" stroke="url(#paint0_linear_6590_29)" stroke-width="14"/>
</g>
<defs>
<filter id="filter0_i_6590_29" x="0" y="-3.05176e-05" width="127" height="127" filterUnits="userSpaceOnUse" color-interpolation-filters="sRGB">
<feFlood flood-opacity="0" result="BackgroundImageFix"/>
<feBlend mode="normal" in="SourceGraphic" in2="BackgroundImageFix" result="shape"/>
<feColorMatrix in="SourceAlpha" type="matrix" values="0 0 0 0 0 0 0 0 0 0 0 0 0 0 0 0 0 0 127 0" result="hardAlpha"/>
<feOffset dx="2" dy="2"/>
<feGaussianBlur stdDeviation="2.5"/>
<feComposite in2="hardAlpha" operator="arithmetic" k2="-1" k3="1"/>
<feColorMatrix type="matrix" values="0 0 0 0 1 0 0 0 0 1 0 0 0 0 1 0 0 0 0.4 0"/>
<feBlend mode="normal" in2="shape" result="effect1_innerShadow_6590_29"/>
</filter>
<linearGradient id="paint0_linear_6590_29" x1="106.5" y1="17" x2="5" y2="84.5" gradientUnits="userSpaceOnUse">
<stop stop-color="#FFC500"/>
<stop offset="1" stop-color="#FF5400"/>
</linearGradient>
</defs>
</svg>
