<svg width="16" height="16" viewBox="0 0 16 16" fill="none" xmlns="http://www.w3.org/2000/svg">
<path d="M7.99998 1.33334C11.682 1.33334 14.6666 4.31801 14.6666 8.00001C14.6666 11.682 11.682 14.6667 7.99998 14.6667C4.31798 14.6667 1.33331 11.682 1.33331 8.00001C1.33331 4.31801 4.31798 1.33334 7.99998 1.33334ZM7.99998 4.00001C7.82317 4.00001 7.6536 4.07025 7.52857 4.19527C7.40355 4.3203 7.33331 4.48987 7.33331 4.66668V8.00001C7.33335 8.17681 7.40361 8.34635 7.52865 8.47134L9.52865 10.4713C9.65438 10.5928 9.82278 10.66 9.99758 10.6585C10.1724 10.6569 10.3396 10.5868 10.4632 10.4632C10.5868 10.3396 10.6569 10.1724 10.6584 9.99761C10.6599 9.82281 10.5928 9.65441 10.4713 9.52868L8.66665 7.72401V4.66668C8.66665 4.48987 8.59641 4.3203 8.47138 4.19527C8.34636 4.07025 8.17679 4.00001 7.99998 4.00001Z" fill="white" fill-opacity="0.5"/>
</svg>
