<svg width="21" height="21" viewBox="0 0 21 21" fill="none" xmlns="http://www.w3.org/2000/svg">
<g id="uis:unlock">
<path id="Vector" d="M14.875 7.875H7.875V6.125C7.875 5.425 8.1375 4.8125 8.6625 4.2875C9.7125 3.2375 11.375 3.2375 12.3375 4.2875C12.6875 4.6375 12.8625 5.075 13.0375 5.5125C13.125 5.95 13.65 6.2125 14.0875 6.125C14.525 6.0375 14.875 5.5125 14.7 5.075C14.525 4.2875 14.0875 3.5875 13.5625 3.0625C12.775 2.1875 11.6375 1.75 10.5 1.75C8.05 1.75 6.125 3.675 6.125 6.125V7.875C4.6375 7.875 3.5 9.0125 3.5 10.5V16.625C3.5 18.1125 4.6375 19.25 6.125 19.25H14.875C16.3625 19.25 17.5 18.1125 17.5 16.625V10.5C17.5 9.0125 16.3625 7.875 14.875 7.875Z" fill="#64FF7B"/>
</g>
</svg>
