<svg width="8" height="8" viewBox="0 0 8 8" fill="none" xmlns="http://www.w3.org/2000/svg">
<path d="M6.66719 4C6.66719 2.89062 5.98906 1.94062 5.02656 1.53906L4.77031 2.15469C5.49219 2.45625 6 3.16875 6 4C6 4.83281 5.49219 5.54375 4.76875 5.84531L5.025 6.46094C5.98906 6.05937 6.66719 5.10938 6.66719 4ZM5.33281 4C5.33281 3.44531 4.99375 2.97031 4.5125 2.77031L4.25625 3.38594C4.49687 3.48594 4.66563 3.72344 4.66563 4.00156C4.66563 4.27813 4.49687 4.51562 4.25625 4.61719L4.5125 5.23281C4.99375 5.02969 5.33281 4.55469 5.33281 4ZM5.53906 0.307813L5.28125 0.923437C6.48594 1.425 7.33281 2.6125 7.33281 4C7.33281 5.38594 6.48594 6.575 5.28125 7.07656L5.5375 7.69219C6.98438 7.08906 8 5.66406 8 4C8 2.33594 6.98438 0.910937 5.53906 0.307813ZM0 2.33281V5.66563H1.33281L3.66719 8V0L1.33281 2.33281H0Z" fill="white"/>
</svg>
