<svg width="35" height="37" viewBox="0 0 35 37" fill="none" xmlns="http://www.w3.org/2000/svg">
<path d="M10.5195 0.867188L13.5466 3.81599C14.6818 4.9024 15.2872 6.37682 15.2872 8.00643C15.2872 9.55843 15.8926 11.0328 16.9521 12.1193L17.3304 12.5073L20.8116 0.944781" fill="white"/>
<path d="M0.226562 11.1884L4.38879 11.0332C5.90232 10.9556 7.41585 11.5764 8.47533 12.6628C9.5348 13.7492 10.9727 14.2924 12.4862 14.2924H13.0159L7.41586 3.66113" fill="white"/>
<path d="M0.227033 25.9321L3.02707 22.8281C4.08655 21.6641 5.52441 20.9657 7.03794 20.9657C8.55148 20.9657 9.91366 20.2673 10.9731 19.1809L11.3515 18.7929L0 15.4561" fill="white"/>
<path d="M10.5193 36.1745L10.2923 31.9065C10.2166 30.3545 10.7464 28.8025 11.8059 27.6384C12.7897 26.552 13.3951 25 13.3194 23.5256V22.9824L3.02734 28.9577" fill="white"/>
<path d="M24.898 35.8648L21.7953 33.0712C20.6601 32.0624 19.979 30.588 19.9033 28.9584C19.8277 27.4064 19.1466 26.0096 18.0871 24.9232L17.7087 24.5352L14.6816 36.2528" fill="white"/>
<path d="M34.7356 25.0784L30.5734 25.3887C29.0599 25.544 27.5464 25.0008 26.4112 23.9143C25.276 22.9055 23.8382 22.3623 22.3247 22.4399H21.7949L27.8491 32.8384" fill="white"/>
<path d="M34.0547 10.4121L31.406 13.6713C30.4222 14.8353 28.9844 15.6113 27.4708 15.6889C25.9573 15.7665 24.5951 16.4649 23.6113 17.629L23.3086 18.017L34.8115 20.8106" fill="white"/>
<path d="M23.3834 0.556641L23.7618 4.82466C23.9131 6.37667 23.4591 7.92869 22.3996 9.17029C21.4158 10.3343 20.9617 11.8087 21.0374 13.3607L21.1131 13.9039L31.1024 7.46309" fill="white"/>
</svg>
