<svg width="12" height="8" viewBox="0 0 12 8" fill="none" xmlns="http://www.w3.org/2000/svg">
<path d="M5.38322 8C5.72321 8 6.0109 7.69446 6.0109 7.1292V0.870783C6.0109 0.305538 5.72321 0 5.38322 0C5.2045 0 5.06067 0.0661998 4.88195 0.188415L0.440248 3.2438C0.130767 3.45767 0 3.70718 0 3.99745C0 4.2928 0.130767 4.54231 0.440248 4.75619L4.88195 7.81157C5.05629 7.9338 5.2045 8 5.38322 8ZM11.3723 8C11.7123 8 12 7.69446 12 7.1292V0.870783C12 0.305538 11.7123 0 11.3723 0C11.1936 0 11.0498 0.0661998 10.871 0.188415L6.42935 3.2438C6.11988 3.45767 5.9891 3.70718 5.9891 3.99745C5.9891 4.2928 6.11988 4.54231 6.42935 4.75619L10.871 7.81157C11.0454 7.9338 11.1936 8 11.3723 8Z" fill="white" fill-opacity="0.85"/>
</svg>
