<svg width="8" height="10" viewBox="0 0 8 10" fill="none" xmlns="http://www.w3.org/2000/svg">
<path d="M0.872133 10H2.36722C2.93771 10 3.23935 9.71763 3.23935 9.17741V0.816453C3.23935 0.257827 2.93771 0 2.36722 0H0.872133C0.30164 0 0 0.282382 0 0.816453V9.17741C0 9.71763 0.30164 10 0.872133 10ZM5.63936 10H7.12789C7.70492 10 8 9.71763 8 9.17741V0.816453C8 0.257827 7.70492 0 7.12789 0H5.63936C5.06229 0 4.76066 0.282382 4.76066 0.816453V9.17741C4.76066 9.71763 5.06229 10 5.63936 10Z" fill="white" fill-opacity="0.85"/>
</svg>
