<svg width="12" height="8" viewBox="0 0 12 8" fill="none" xmlns="http://www.w3.org/2000/svg">
<path d="M6.61678 4.70616e-07C6.27679 5.00339e-07 5.9891 0.305544 5.9891 0.870797L5.9891 7.12922C5.9891 7.69446 6.27679 8 6.61678 8C6.7955 8 6.93933 7.9338 7.11805 7.81159L11.5598 4.7562C11.8692 4.54233 12 4.29282 12 4.00255C12 3.7072 11.8692 3.45769 11.5598 3.24381L7.11805 0.188426C6.94371 0.0661983 6.7955 4.54992e-07 6.61678 4.70616e-07ZM0.627679 9.942e-07C0.287672 1.02392e-06 -6.72671e-07 0.305545 -6.23255e-07 0.870797L-7.61262e-08 7.12922C-2.6711e-08 7.69446 0.287673 8 0.62768 8C0.806398 8 0.950234 7.9338 1.12895 7.81159L5.57065 4.7562C5.88012 4.54233 6.0109 4.29282 6.0109 4.00255C6.0109 3.7072 5.88012 3.45769 5.57064 3.24381L1.12895 0.188427C0.954585 0.0661988 0.806398 9.78576e-07 0.627679 9.942e-07Z" fill="white" fill-opacity="0.85"/>
</svg>
