<svg width="8" height="10" viewBox="0 0 8 10" fill="none" xmlns="http://www.w3.org/2000/svg">
<path d="M2.84762e-07 0.501434C-8.91737e-05 0.413465 0.0209005 0.327021 0.0608573 0.250801C0.100814 0.17458 0.158329 0.111272 0.227614 0.0672444C0.2969 0.0232172 0.375512 2.45552e-05 0.455542 1.94877e-08C0.535572 -2.45162e-05 0.614196 0.0231199 0.683504 0.0671046L7.77241 4.56639C7.84161 4.61037 7.89907 4.67359 7.93902 4.7497C7.97897 4.82581 8 4.91213 8 5C8 5.08787 7.97897 5.17419 7.93902 5.2503C7.89907 5.32641 7.84161 5.38963 7.77241 5.43361L0.683504 9.9329C0.614244 9.97685 0.535679 9.99999 0.455705 10C0.37573 10 0.297162 9.97688 0.227896 9.93293C0.15863 9.88899 0.101105 9.82578 0.0611016 9.74966C0.0210981 9.67354 2.51641e-05 9.58719 2.84762e-07 9.49928V0.501434Z" fill="white" fill-opacity="0.85"/>
</svg>
