<svg width="160" height="160" viewBox="0 0 160 160" fill="none" xmlns="http://www.w3.org/2000/svg">
<g id="Group 12">
<path id="Ellipse 1" d="M23.4315 23.4315C34.6197 12.2433 48.8743 4.624 64.3928 1.53718C79.9112 -1.54964 95.9966 0.034625 110.615 6.08963C125.233 12.1446 137.727 22.3984 146.518 35.5544C155.308 48.7103 160 64.1775 160 80C160 95.8225 155.308 111.29 146.518 124.446C137.727 137.602 125.233 147.855 110.615 153.91C95.9966 159.965 79.9113 161.55 64.3928 158.463C48.8743 155.376 34.6197 147.757 23.4315 136.569L26.593 133.407C37.1559 143.97 50.6139 151.163 65.2651 154.078C79.9162 156.992 95.1026 155.496 108.904 149.78C122.705 144.063 134.501 134.382 142.8 121.962C151.099 109.541 155.529 94.9382 155.529 80C155.529 65.0618 151.099 50.4591 142.8 38.0384C134.501 25.6177 122.705 15.937 108.904 10.2204C95.1025 4.50383 79.9162 3.00811 65.265 5.92241C50.6139 8.8367 37.1559 16.0301 26.593 26.593L23.4315 23.4315Z" fill="#D9D9D9" fill-opacity="0.35"/>
<path id="Ellipse 2" d="M139 80C139 112.585 112.585 139 80 139C47.4152 139 21 112.585 21 80C21 47.4152 47.4152 21 80 21C112.585 21 139 47.4152 139 80ZM37.9167 80C37.9167 103.242 56.758 122.083 80 122.083C103.242 122.083 122.083 103.242 122.083 80C122.083 56.758 103.242 37.9167 80 37.9167C56.758 37.9167 37.9167 56.758 37.9167 80Z" fill="#D9D9D9" fill-opacity="0.25"/>
</g>
</svg>
