<svg width="44" height="44" viewBox="0 0 44 44" fill="none" xmlns="http://www.w3.org/2000/svg">
<g id="Group 8" opacity="0.32">
<circle id="Ellipse 8" cx="21.8301" cy="21.7813" r="20.5908" stroke="white" stroke-width="1.85086"/>
<path id="Vector" d="M34.9325 7.01417C31.6158 4.06436 27.3463 2.30929 22.902 2.06868C22.7574 2.05964 22.5748 2.04879 22.4682 2.04879L22.3326 2.03976H22.2549C22.1103 2.03072 21.8767 2 21.7321 2H21.723H21.6654C21.5118 2 21.4428 2.00904 21.2892 2.01988H21.2404L21.1247 2.02892C20.9801 2.02892 20.8265 2.03796 20.6819 2.0488H20.6729H20.6638H20.6548C16.2102 2.2892 11.9502 4.04426 8.64411 6.98504C4.41824 10.7356 2 16.1236 2 21.7632C2 27.4028 4.58498 32.944 8.80701 36.6947C8.92269 36.8014 9.05825 36.8881 9.17393 36.993C9.48301 37.2533 9.79027 37.5135 10.1084 37.7539C10.2909 37.8895 10.4843 38.0051 10.6669 38.1389C10.9362 38.3323 11.2164 38.5239 11.4965 38.6974C11.708 38.8221 11.9213 38.9378 12.1418 39.0643C12.4111 39.2179 12.6822 39.3824 12.9606 39.518C13.1829 39.6337 13.4233 39.7295 13.6456 39.8361C13.9258 39.9608 14.2041 40.0964 14.4843 40.2121C14.7156 40.3079 14.956 40.3856 15.1874 40.4723C15.4766 40.579 15.7658 40.6838 16.064 40.7814C16.2953 40.8591 16.5357 40.9061 16.7779 40.9748C17.087 41.0616 17.3853 41.1393 17.6943 41.2062C17.9347 41.255 18.1661 41.2929 18.4083 41.3417C18.7264 41.3996 19.0355 41.4574 19.3536 41.4954C19.594 41.5243 19.8453 41.5442 20.0857 41.5622C20.326 41.5821 20.5773 41.6201 20.8177 41.6291C20.9623 41.6382 21.087 41.6382 21.2515 41.649L21.387 41.658C21.5605 41.6671 21.6961 41.6779 21.8787 41.6779C22.0612 41.6779 22.3238 41.6888 22.4973 41.6779L22.613 41.6689C22.7576 41.6689 22.9112 41.6598 23.0558 41.649H23.0648H23.0739H23.0829C23.3143 41.64 23.5456 41.6002 23.777 41.5821C24.0282 41.5622 24.2686 41.5442 24.5199 41.5152C24.8579 41.4773 25.185 41.4086 25.5122 41.3508C25.7345 41.3128 25.955 41.273 26.1773 41.226C26.5153 41.1483 26.8425 41.0616 27.1696 40.9748C27.3811 40.917 27.5944 40.8682 27.8058 40.8013C28.133 40.7055 28.4421 40.579 28.7602 40.4633C28.9716 40.3856 29.1849 40.3187 29.3874 40.2319C29.6965 40.1072 29.9947 39.9626 30.3038 39.8271C30.5062 39.7313 30.7177 39.6445 30.9201 39.5379C31.2184 39.3842 31.5184 39.2107 31.8076 39.0462C32.001 38.9396 32.1926 38.8348 32.386 38.7191C32.7041 38.5166 33.0132 38.3052 33.3205 38.0828C33.4741 37.9762 33.6295 37.8804 33.7741 37.7738C34.2278 37.4358 34.6616 37.0797 35.0845 36.7128C39.3068 32.9622 41.7268 27.6521 41.7268 22.0126C41.7286 16.3749 39.1548 10.7557 34.9325 7.01417ZM19.9191 3.63059C19.2739 4.88316 18.7533 6.79185 18.3574 9.08738C17.7592 9.03857 17.1518 8.9717 16.5445 8.89398C17.4609 6.40689 18.6286 4.55602 19.9191 3.63059ZM14.2907 13.5697H11.8036C12.2464 12.0279 12.8067 10.6 13.4719 9.32753C14.0413 9.45224 14.6287 9.56792 15.245 9.67456C14.869 10.8693 14.5401 12.1707 14.2907 13.5697ZM17.7032 14.5331C17.5297 16.693 17.4429 18.9867 17.423 21.2804H14.5401C14.569 18.9089 14.7624 16.6245 15.1094 14.5331H17.7032ZM13.5767 21.2804H10.6847C10.7227 18.8999 11.0119 16.6153 11.5234 14.5331H14.1171C13.7882 16.6243 13.5966 18.8909 13.5767 21.2804ZM14.2909 29.1555H11.6972C11.1856 27.0733 10.8874 24.7886 10.8585 22.4082H13.7505C13.7613 24.7977 13.9529 27.064 14.2909 29.1555ZM10.8094 13.5697H8.32234C9.00738 11.7857 9.92194 10.1373 11.0498 8.67325C11.5125 8.82688 12.0042 8.96244 12.5157 9.098C11.8324 10.4464 11.2631 11.9502 10.8094 13.5697ZM10.56 14.5331C10.0593 16.6352 9.75927 18.8999 9.73035 21.2804H6.83839C6.88719 18.9288 7.26314 16.644 7.96625 14.5331H10.56ZM9.8951 22.4082C9.93306 24.7886 10.2223 27.0552 10.7247 29.1555H8.12198C7.41889 27.0444 7.04293 24.7597 6.99412 22.4082H9.8951ZM10.9742 30.1189C11.4278 31.7384 11.9954 33.2422 12.6894 34.5924C12.1779 34.728 11.6863 34.8617 11.2236 35.0172C10.0957 33.5513 9.17929 31.9029 8.49609 30.1207L10.9742 30.1189ZM11.9682 30.1189H14.4553C14.7156 31.516 15.0337 32.8174 15.4097 34.014C14.7933 34.1206 14.2041 34.2363 13.6366 34.361C12.9696 33.0886 12.4111 31.6625 11.9682 30.1189ZM15.2741 29.1555C14.9271 27.0643 14.7337 24.7796 14.7047 22.4082H17.5877C17.5967 24.7019 17.6943 26.9974 17.8678 29.1555H15.2741ZM17.9437 30.1189C18.0594 31.3534 18.204 32.5391 18.3685 33.6471C17.7124 33.7049 17.0472 33.7718 16.3821 33.8585C16.0151 32.7108 15.7079 31.4582 15.4476 30.1189L17.9437 30.1189ZM17.779 13.5697H15.2829C15.5431 12.2304 15.8522 10.9669 16.2173 9.83003C16.8825 9.91679 17.5476 9.99451 18.2038 10.0415C18.0393 11.1495 17.8947 12.3352 17.779 13.5697ZM15.5522 8.74913C14.9937 8.65334 14.4622 8.55573 13.9417 8.44005C15.0985 6.48254 16.5155 4.97872 18.0862 4.03525C17.1138 5.20106 16.2571 6.80226 15.5522 8.74913ZM13.0072 8.22858C12.5644 8.12194 12.1306 7.99722 11.7258 7.87251C12.9892 6.42653 14.4153 5.26974 15.9679 4.45097C14.8581 5.45233 13.8658 6.73378 13.0072 8.22858ZM10.202 6.95612C10.3846 6.81152 10.569 6.67596 10.7515 6.5422C10.9829 6.37772 11.2142 6.21505 11.4546 6.05959C11.648 5.93488 11.8306 5.80835 12.033 5.69267C12.2734 5.54808 12.5246 5.40348 12.7759 5.26792C12.9693 5.16128 13.1717 5.05644 13.3742 4.9498C13.4031 4.94076 13.432 4.92088 13.4609 4.91184C12.4777 5.65473 11.5613 6.53134 10.7226 7.53451C10.4244 7.42787 10.1352 7.32303 9.86403 7.21639C9.98151 7.13867 10.0972 7.04287 10.202 6.95612ZM9.06515 7.91949C9.3923 8.06408 9.73932 8.20868 10.1063 8.34424C8.94045 9.9059 7.99512 11.67 7.30105 13.5697H4.8718C5.89301 11.4585 7.30105 9.53903 9.06515 7.91949ZM4.43801 14.5331H6.96304C6.28887 16.6641 5.92193 18.9379 5.87312 21.2804H2.99198C3.04982 18.9379 3.55053 16.6532 4.43801 14.5331ZM3.15679 22.4082H6.03972C6.08853 24.7507 6.45364 27.0263 7.12965 29.1555H4.60281C3.71533 27.0353 3.21462 24.7507 3.15679 22.4082ZM5.03656 30.1189H7.46581C8.15988 32.0185 9.1052 33.7718 10.271 35.3443C9.90409 35.4799 9.55704 35.6245 9.22991 35.7691C7.46581 34.1496 6.05777 32.2301 5.03656 30.1189ZM13.606 38.7661C13.3837 38.6594 13.1632 38.5438 12.9499 38.4281C12.7095 38.3034 12.4782 38.1678 12.2468 38.0232C12.0353 37.8985 11.8329 37.7629 11.6305 37.6274C11.3991 37.4828 11.1768 37.3291 10.9563 37.1647C10.7539 37.0201 10.5605 36.8755 10.3689 36.7218C10.2622 36.6351 10.1574 36.5483 10.0417 36.4615C10.302 36.3549 10.5912 36.2501 10.8894 36.1434C11.7281 37.1466 12.6445 38.0232 13.6278 38.7751C13.6169 38.7661 13.6169 38.7661 13.606 38.7661ZM11.8817 35.8163C12.2956 35.6916 12.7203 35.5759 13.1632 35.4602C14.0217 36.955 15.014 38.2365 16.113 39.2397C14.5712 38.41 13.1433 37.2623 11.8817 35.8163ZM14.1085 35.2379C14.629 35.1222 15.1586 35.0264 15.719 34.9288C16.4221 36.8863 17.2806 38.4859 18.2549 39.6337C16.6824 38.7083 15.2743 37.1954 14.1085 35.2379ZM16.7203 34.7951C17.3276 34.7173 17.9349 34.6505 18.5332 34.6017C18.929 36.8953 19.4496 38.804 20.0948 40.0584C18.7935 39.133 17.6259 37.2821 16.7203 34.7951ZM21.4432 40.454C20.778 39.769 20.0551 37.7266 19.4966 34.5452C20.1527 34.5072 20.7979 34.4873 21.4432 34.4783V40.454ZM21.4432 33.5133C20.7491 33.5224 20.046 33.5423 19.3411 33.5911C19.1784 32.5301 19.0338 31.3823 18.9181 30.1189H21.4432L21.4432 33.5133ZM21.4432 29.1555H18.8314C18.6669 27.1311 18.5711 24.8754 18.5512 22.4082H21.4342V29.1555H21.4432ZM21.2784 21.2803H18.3955C18.4045 18.8131 18.5112 16.5574 18.6757 14.533H21.2874L21.2893 21.2803H21.2784ZM21.2784 13.5697H18.7534C18.8691 12.3062 19.0137 11.1603 19.1782 10.1083C19.8921 10.1463 20.5952 10.1752 21.2803 10.1861L21.2784 13.5697ZM21.2784 9.21183C20.6332 9.2028 19.9861 9.18291 19.3318 9.14496C19.8903 5.9638 20.6133 3.91953 21.2784 3.2361V9.21183ZM30.1988 4.98052C30.4013 5.07632 30.5947 5.192 30.7971 5.29864C31.0484 5.4342 31.2978 5.56795 31.54 5.7234C31.7334 5.83908 31.925 5.96379 32.1184 6.09031C32.3498 6.24395 32.5902 6.39939 32.8125 6.56205C32.995 6.69761 33.1794 6.83136 33.362 6.97596C33.4776 7.06272 33.5843 7.15852 33.7 7.24528C33.4397 7.35192 33.1505 7.45675 32.8523 7.56339C32.0136 6.56023 31.0972 5.68362 30.1139 4.93171C30.141 4.95159 30.1699 4.96064 30.1988 4.98052ZM29.9964 21.3004C29.9765 18.9091 29.7849 16.6446 29.4469 14.5532H32.0407C32.5522 16.6354 32.8504 18.92 32.8794 21.3004H29.9964ZM33.0531 22.4283C33.0152 24.8087 32.726 27.0933 32.2145 29.1756H29.6207C29.9479 27.0843 30.1413 24.8177 30.1702 22.4283H33.0531ZM29.2824 13.5897C29.0222 12.1926 28.7041 10.8912 28.3281 9.69461C28.9444 9.58797 29.5337 9.47229 30.1012 9.34757C30.7664 10.62 31.3249 12.0461 31.7695 13.5897H29.2824ZM28.4637 14.5531C28.8107 16.6443 29.0041 18.929 29.033 21.3004H26.1501C26.1411 19.0067 26.0435 16.7112 25.8699 14.5531H28.4637ZM25.794 13.5897C25.6784 12.3552 25.5338 11.1695 25.3693 10.0615C26.0254 10.0037 26.6906 9.93682 27.3557 9.85007C27.7226 10.9978 28.0299 12.2504 28.2902 13.5897L25.794 13.5897ZM25.9588 30.1389H28.4549C28.1946 31.4782 27.8855 32.7417 27.5205 33.8786C26.8553 33.7918 26.1902 33.7141 25.534 33.6671C25.6985 32.5591 25.8431 31.3734 25.9588 30.1389ZM26.0347 29.1756C26.2082 27.0156 26.295 24.7219 26.3149 22.4283H29.1978C29.1689 24.7997 28.9755 27.0841 28.6284 29.1756H26.0347ZM29.4472 30.1389H31.9343C31.4915 31.6807 30.9312 33.1086 30.266 34.3811C29.6966 34.2564 29.1092 34.1407 28.4929 34.034C28.8688 32.8393 29.1978 31.5379 29.4472 30.1389ZM32.9284 30.1389H35.4155C34.7305 31.9229 33.8159 33.5713 32.688 35.0354C32.2253 34.8817 31.7337 34.7462 31.2222 34.6106C31.9054 33.2622 32.4747 31.7584 32.9284 30.1389ZM33.1778 29.1756C33.6785 27.0734 33.9786 24.8087 34.0075 22.4283H36.8995C36.8507 24.7798 36.4747 27.0647 35.7716 29.1756H33.1778ZM33.8427 21.3004C33.8048 18.92 33.5156 16.6534 33.0131 14.5531H35.6068C36.3099 16.6642 36.6859 18.9489 36.7347 21.3004H33.8427ZM32.7637 13.5897C32.31 11.9702 31.7425 10.4664 31.0484 9.11621C31.5599 8.98065 32.0516 8.8469 32.5143 8.69146C33.6421 10.1573 34.5586 11.8058 35.2418 13.5879L32.7637 13.5897ZM31.8563 7.8928C31.4424 8.01751 31.0177 8.13319 30.5749 8.24887C29.7163 6.75407 28.724 5.47259 27.6251 4.46942C29.1668 5.29907 30.5948 6.44682 31.8563 7.8928ZM29.6295 8.47119C29.109 8.58687 28.5794 8.68267 28.0191 8.78027C27.316 6.82276 26.4574 5.22316 25.4832 4.07539C27.0556 5.00082 28.4637 6.51368 29.6295 8.47119ZM27.0177 8.91402C26.4104 8.99174 25.8031 9.05862 25.2048 9.10742C24.809 6.81375 24.2884 4.90505 23.6432 3.65064C24.9446 4.57606 26.1122 6.42693 27.0177 8.91402ZM22.2948 3.25503C22.96 3.94008 23.683 5.9825 24.2415 9.16389C23.5853 9.20185 22.9401 9.22173 22.2948 9.23076V3.25503ZM22.2948 10.1957C22.9889 10.1867 23.692 10.1668 24.3969 10.118C24.5596 11.179 24.7042 12.3267 24.8199 13.5902H22.2949L22.2948 10.1957ZM22.2948 14.5536H24.9066C25.0711 16.578 25.1669 18.8337 25.1868 21.3009H22.2948L22.2948 14.5536ZM22.4596 22.4287H25.3425C25.3335 24.8959 25.2268 27.1517 25.0624 29.176H22.4596L22.4596 22.4287ZM22.4596 30.1394H24.9846C24.8689 31.4028 24.7243 32.5488 24.5599 33.6007C23.8568 33.5628 23.1518 33.5339 22.4577 33.523L22.4596 30.1394ZM22.4596 40.4746V34.4972C23.1048 34.5063 23.7519 34.5262 24.4062 34.5641C23.8477 37.7453 23.1247 39.7898 22.4596 40.4746ZM23.8188 40.0787C24.4641 38.8262 24.9846 36.9175 25.3805 34.622C25.9788 34.6708 26.5861 34.7376 27.1934 34.8154C26.277 37.3024 25.1094 39.1533 23.8188 40.0787ZM25.6407 39.6648C26.615 38.508 27.4826 36.9084 28.1766 34.96C28.7351 35.0558 29.2666 35.1534 29.7871 35.269C28.6285 37.2157 27.2204 38.7286 25.6407 39.6648ZM27.7808 39.26C28.8797 38.2568 29.872 36.9753 30.7306 35.4805C31.1734 35.5872 31.6072 35.7119 32.0121 35.8366C30.7595 37.2826 29.3316 38.4304 27.7808 39.26ZM33.5448 36.7439C33.3514 36.8976 33.149 37.0422 32.9574 37.1868C32.7351 37.3404 32.5146 37.4959 32.2832 37.6495C32.0808 37.7851 31.8693 37.9188 31.656 38.0453C31.4247 38.1809 31.1933 38.3146 30.962 38.4412C30.7396 38.5659 30.5191 38.6816 30.2878 38.7882C31.271 38.0453 32.1874 37.1687 33.0261 36.1655C33.3244 36.2722 33.6135 36.377 33.8847 36.4837C33.7564 36.5704 33.6515 36.6572 33.5448 36.7439ZM34.6727 35.7896C34.3455 35.645 33.9985 35.5004 33.6316 35.3648C34.7974 33.8032 35.7427 32.0391 36.4368 30.1394H38.866C37.8448 32.2505 36.4368 34.1701 34.6727 35.7896ZM39.2998 29.176H36.7748C37.449 27.045 37.8159 24.7712 37.8647 22.4287H40.7477C40.688 24.7712 40.1873 27.0559 39.2998 29.176ZM40.5811 21.3009H37.6981C37.6493 18.9584 37.2842 16.6828 36.6082 14.5536H39.1332C40.0225 16.6737 40.5232 18.9584 40.5811 21.3009ZM36.2811 13.5902C35.587 11.6905 34.6417 9.93731 33.4758 8.36478C33.8428 8.22922 34.1898 8.08462 34.517 7.94002C36.2811 9.55952 37.6891 11.4772 38.7103 13.5884L36.2811 13.5902Z" fill="white"/>
</g>
</svg>
