<svg width="82" height="76" viewBox="0 0 82 76" fill="none" xmlns="http://www.w3.org/2000/svg">
<rect x="24.5" y="9.5" width="60" height="56" fill="#E6561D" stroke="white" stroke-width="3"/>
<mask id="path-2-inside-1_5881_10" fill="white">
<path d="M26 57C23.3736 57 20.7728 56.4956 18.3463 55.5157C15.9198 54.5357 13.715 53.0993 11.8579 51.2886C10.0007 49.4778 8.5275 47.3282 7.52241 44.9623C6.51732 42.5965 6 40.0608 6 37.5C6 34.9392 6.51732 32.4035 7.52241 30.0377C8.5275 27.6718 10.0007 25.5222 11.8579 23.7114C13.715 21.9007 15.9198 20.4643 18.3463 19.4843C20.7728 18.5044 23.3736 18 26 18L26 37.5L26 57Z"/>
</mask>
<path d="M26 57C23.3736 57 20.7728 56.4956 18.3463 55.5157C15.9198 54.5357 13.715 53.0993 11.8579 51.2886C10.0007 49.4778 8.5275 47.3282 7.52241 44.9623C6.51732 42.5965 6 40.0608 6 37.5C6 34.9392 6.51732 32.4035 7.52241 30.0377C8.5275 27.6718 10.0007 25.5222 11.8579 23.7114C13.715 21.9007 15.9198 20.4643 18.3463 19.4843C20.7728 18.5044 23.3736 18 26 18L26 37.5L26 57Z" stroke="white" stroke-width="6" mask="url(#path-2-inside-1_5881_10)"/>
<mask id="path-3-inside-2_5881_10" fill="white">
<path d="M23 18C25.6264 18 28.2272 18.5044 30.6537 19.4843C33.0802 20.4643 35.285 21.9007 37.1421 23.7114C38.9993 25.5222 40.4725 27.6718 41.4776 30.0377C42.4827 32.4035 43 34.9392 43 37.5C43 40.0608 42.4827 42.5965 41.4776 44.9623C40.4725 47.3282 38.9993 49.4778 37.1421 51.2886C35.285 53.0993 33.0802 54.5357 30.6537 55.5157C28.2272 56.4956 25.6264 57 23 57L23 37.5V18Z"/>
</mask>
<path d="M23 18C25.6264 18 28.2272 18.5044 30.6537 19.4843C33.0802 20.4643 35.285 21.9007 37.1421 23.7114C38.9993 25.5222 40.4725 27.6718 41.4776 30.0377C42.4827 32.4035 43 34.9392 43 37.5C43 40.0608 42.4827 42.5965 41.4776 44.9623C40.4725 47.3282 38.9993 49.4778 37.1421 51.2886C35.285 53.0993 33.0802 54.5357 30.6537 55.5157C28.2272 56.4956 25.6264 57 23 57L23 37.5V18Z" stroke="white" stroke-width="6" stroke-miterlimit="16" stroke-dasharray="183 183" mask="url(#path-3-inside-2_5881_10)"/>
<path d="M95.7598 74.5122C94.2854 74.5268 91.817 74.559 88.6572 74.6003C76.1815 74.763 52.9265 75.0664 37.5026 74.9871C27.6502 74.9364 17.7991 73.0388 11.4711 65.9783C8.15734 62.2808 5.52364 57.8856 3.72519 53.041C1.92672 48.1964 1 43.0008 1 37.7518C1 32.5027 1.92672 27.3071 3.72519 22.4625C5.52364 17.618 8.15736 13.2227 11.4712 9.52525C17.7232 2.54936 27.7177 1.00004 37.5143 1.00003L95.7579 1L87.7748 37.5383L87.7282 37.7517L87.7748 37.9652L95.7598 74.5122Z" stroke="white" stroke-width="2"/>
<mask id="path-5-inside-3_5881_10" fill="white">
<path d="M85 49C83.4241 49 81.8637 48.7025 80.4078 48.1246C78.9519 47.5467 77.629 46.6996 76.5147 45.6317C75.4004 44.5639 74.5165 43.2961 73.9134 41.9009C73.3104 40.5056 73 39.0102 73 37.5C73 35.9898 73.3104 34.4944 73.9134 33.0991C74.5165 31.7039 75.4004 30.4361 76.5147 29.3683C77.629 28.3004 78.9519 27.4533 80.4078 26.8754C81.8637 26.2975 83.4241 26 85 26L85 37.5V49Z"/>
</mask>
<path d="M85 49C83.4241 49 81.8637 48.7025 80.4078 48.1246C78.9519 47.5467 77.629 46.6996 76.5147 45.6317C75.4004 44.5639 74.5165 43.2961 73.9134 41.9009C73.3104 40.5056 73 39.0102 73 37.5C73 35.9898 73.3104 34.4944 73.9134 33.0991C74.5165 31.7039 75.4004 30.4361 76.5147 29.3683C77.629 28.3004 78.9519 27.4533 80.4078 26.8754C81.8637 26.2975 83.4241 26 85 26L85 37.5V49Z" stroke="white" stroke-width="4" mask="url(#path-5-inside-3_5881_10)"/>
</svg>
