<svg width="298" height="206" viewBox="0 0 298 206" fill="none" xmlns="http://www.w3.org/2000/svg">
<g clip-path="url(#clip0_4617_369)">
<rect width="51.5135" height="51.5135" rx="6.52786" transform="matrix(0.724263 -0.689524 0.724263 0.689524 147.702 69.113)" fill="url(#paint0_linear_4617_369)" fill-opacity="0.25" style="mix-blend-mode:color-dodge"/>
<rect width="51.5135" height="51.5135" rx="6.52786" transform="matrix(0.724263 -0.689524 0.724263 0.689524 222.208 69.113)" fill="url(#paint1_linear_4617_369)" fill-opacity="0.25" style="mix-blend-mode:color-dodge"/>
<rect width="51.5135" height="51.5135" rx="6.52786" transform="matrix(0.724263 -0.689524 0.724263 0.689524 -1.66638 69.113)" fill="url(#paint2_linear_4617_369)" fill-opacity="0.25" style="mix-blend-mode:color-dodge"/>
<rect width="51.5135" height="51.5135" rx="6.52786" transform="matrix(0.724263 -0.689524 0.724263 0.689524 72.9504 69.113)" fill="url(#paint3_linear_4617_369)" fill-opacity="0.25" style="mix-blend-mode:color-dodge"/>
<rect width="51.5135" height="51.5135" rx="6.52786" transform="matrix(0.724263 -0.689524 0.724263 0.689524 110.369 121.469)" fill="url(#paint4_linear_4617_369)" fill-opacity="0.25" style="mix-blend-mode:color-dodge"/>
<rect width="51.5135" height="51.5135" rx="6.52786" transform="matrix(0.724263 -0.689524 0.724263 0.689524 184.876 121.469)" fill="url(#paint5_linear_4617_369)" fill-opacity="0.25" style="mix-blend-mode:color-dodge"/>
<rect width="51.5135" height="51.5135" rx="6.52786" transform="matrix(0.724263 -0.689524 0.724263 0.689524 259.381 121.469)" fill="url(#paint6_linear_4617_369)" fill-opacity="0.25" style="mix-blend-mode:color-dodge"/>
<rect width="51.5135" height="51.5135" rx="6.52786" transform="matrix(0.724263 -0.689524 0.724263 0.689524 -39 121.469)" fill="url(#paint7_linear_4617_369)" fill-opacity="0.25" style="mix-blend-mode:color-dodge"/>
<rect width="51.5135" height="51.5135" rx="6.52786" transform="matrix(0.724263 -0.689524 0.724263 0.689524 35.6191 121.469)" fill="url(#paint8_linear_4617_369)" fill-opacity="0.25" style="mix-blend-mode:color-dodge"/>
<rect width="51.5135" height="51.5135" rx="6.52786" transform="matrix(0.724263 -0.689524 0.724263 0.689524 110.369 18.5198)" fill="url(#paint9_linear_4617_369)" fill-opacity="0.25" style="mix-blend-mode:color-dodge"/>
<rect width="51.5135" height="51.5135" rx="6.52786" transform="matrix(0.724263 -0.689524 0.724263 0.689524 184.876 18.5198)" fill="url(#paint10_linear_4617_369)" fill-opacity="0.25" style="mix-blend-mode:color-dodge"/>
<rect width="51.5135" height="51.5135" rx="6.52786" transform="matrix(0.724263 -0.689524 0.724263 0.689524 259.381 18.5198)" fill="url(#paint11_linear_4617_369)" fill-opacity="0.25" style="mix-blend-mode:color-dodge"/>
<rect width="51.5135" height="51.5135" rx="6.52786" transform="matrix(0.724263 -0.689524 0.724263 0.689524 -39 18.5198)" fill="url(#paint12_linear_4617_369)" fill-opacity="0.25" style="mix-blend-mode:color-dodge"/>
<rect width="51.5135" height="51.5135" rx="6.52786" transform="matrix(0.724263 -0.689524 0.724263 0.689524 35.6191 18.5198)" fill="url(#paint13_linear_4617_369)" fill-opacity="0.25" style="mix-blend-mode:color-dodge"/>
<rect width="51.5135" height="51.5135" rx="6.52786" transform="matrix(0.724263 -0.689524 0.724263 0.689524 147.654 170.874)" fill="url(#paint14_linear_4617_369)" fill-opacity="0.05" style="mix-blend-mode:color-dodge"/>
<rect width="51.5135" height="51.5135" rx="6.52786" transform="matrix(0.724263 -0.689524 0.724263 0.689524 72.9058 170.874)" fill="url(#paint15_linear_4617_369)" fill-opacity="0.05" style="mix-blend-mode:color-dodge"/>
<rect width="51.5135" height="51.5135" rx="6.52786" transform="matrix(0.724263 -0.689524 0.724263 0.689524 -1.35181 170.874)" fill="url(#paint16_linear_4617_369)" fill-opacity="0.25" style="mix-blend-mode:color-dodge"/>
<rect width="51.5135" height="51.5135" rx="6.52786" transform="matrix(0.724263 -0.689524 0.724263 0.689524 222.536 170.874)" fill="url(#paint17_linear_4617_369)" fill-opacity="0.25" style="mix-blend-mode:color-dodge"/>
</g>
<defs>
<linearGradient id="paint0_linear_4617_369" x1="37.2765" y1="-17.0954" x2="0.822011" y2="33.5741" gradientUnits="userSpaceOnUse">
<stop stop-color="#D9D9D9"/>
<stop offset="1" stop-color="#737373" stop-opacity="0"/>
</linearGradient>
<linearGradient id="paint1_linear_4617_369" x1="37.2765" y1="-17.0954" x2="0.822011" y2="33.5741" gradientUnits="userSpaceOnUse">
<stop stop-color="#D9D9D9"/>
<stop offset="1" stop-color="#737373" stop-opacity="0"/>
</linearGradient>
<linearGradient id="paint2_linear_4617_369" x1="37.2765" y1="-17.0954" x2="0.822011" y2="33.5741" gradientUnits="userSpaceOnUse">
<stop stop-color="#D9D9D9"/>
<stop offset="1" stop-color="#737373" stop-opacity="0"/>
</linearGradient>
<linearGradient id="paint3_linear_4617_369" x1="37.2765" y1="-17.0954" x2="0.822011" y2="33.5741" gradientUnits="userSpaceOnUse">
<stop stop-color="#D9D9D9"/>
<stop offset="1" stop-color="#737373" stop-opacity="0"/>
</linearGradient>
<linearGradient id="paint4_linear_4617_369" x1="37.2765" y1="-17.0954" x2="0.822011" y2="33.5741" gradientUnits="userSpaceOnUse">
<stop stop-color="#D9D9D9"/>
<stop offset="1" stop-color="#737373" stop-opacity="0"/>
</linearGradient>
<linearGradient id="paint5_linear_4617_369" x1="37.2765" y1="-17.0954" x2="0.822011" y2="33.5741" gradientUnits="userSpaceOnUse">
<stop stop-color="#D9D9D9"/>
<stop offset="1" stop-color="#737373" stop-opacity="0"/>
</linearGradient>
<linearGradient id="paint6_linear_4617_369" x1="37.2765" y1="-17.0954" x2="0.822011" y2="33.5741" gradientUnits="userSpaceOnUse">
<stop stop-color="#D9D9D9"/>
<stop offset="1" stop-color="#737373" stop-opacity="0"/>
</linearGradient>
<linearGradient id="paint7_linear_4617_369" x1="37.2765" y1="-17.0954" x2="0.822011" y2="33.5741" gradientUnits="userSpaceOnUse">
<stop stop-color="#D9D9D9"/>
<stop offset="1" stop-color="#737373" stop-opacity="0"/>
</linearGradient>
<linearGradient id="paint8_linear_4617_369" x1="37.2765" y1="-17.0954" x2="0.822011" y2="33.5741" gradientUnits="userSpaceOnUse">
<stop stop-color="#D9D9D9"/>
<stop offset="1" stop-color="#737373" stop-opacity="0"/>
</linearGradient>
<linearGradient id="paint9_linear_4617_369" x1="37.2765" y1="-17.0954" x2="0.822011" y2="33.5741" gradientUnits="userSpaceOnUse">
<stop stop-color="#D9D9D9"/>
<stop offset="1" stop-color="#737373" stop-opacity="0"/>
</linearGradient>
<linearGradient id="paint10_linear_4617_369" x1="37.2765" y1="-17.0954" x2="0.822011" y2="33.5741" gradientUnits="userSpaceOnUse">
<stop stop-color="#D9D9D9"/>
<stop offset="1" stop-color="#737373" stop-opacity="0"/>
</linearGradient>
<linearGradient id="paint11_linear_4617_369" x1="37.2765" y1="-17.0954" x2="0.822011" y2="33.5741" gradientUnits="userSpaceOnUse">
<stop stop-color="#D9D9D9"/>
<stop offset="1" stop-color="#737373" stop-opacity="0"/>
</linearGradient>
<linearGradient id="paint12_linear_4617_369" x1="37.2765" y1="-17.0954" x2="0.822011" y2="33.5741" gradientUnits="userSpaceOnUse">
<stop stop-color="#D9D9D9"/>
<stop offset="1" stop-color="#737373" stop-opacity="0"/>
</linearGradient>
<linearGradient id="paint13_linear_4617_369" x1="37.2765" y1="-17.0954" x2="0.822011" y2="33.5741" gradientUnits="userSpaceOnUse">
<stop stop-color="#D9D9D9"/>
<stop offset="1" stop-color="#737373" stop-opacity="0"/>
</linearGradient>
<linearGradient id="paint14_linear_4617_369" x1="37.2765" y1="-17.0954" x2="0.822011" y2="33.5741" gradientUnits="userSpaceOnUse">
<stop stop-color="#D9D9D9"/>
<stop offset="1" stop-color="#737373" stop-opacity="0"/>
</linearGradient>
<linearGradient id="paint15_linear_4617_369" x1="37.2765" y1="-17.0954" x2="0.822011" y2="33.5741" gradientUnits="userSpaceOnUse">
<stop stop-color="#D9D9D9"/>
<stop offset="1" stop-color="#737373" stop-opacity="0"/>
</linearGradient>
<linearGradient id="paint16_linear_4617_369" x1="37.2765" y1="-17.0954" x2="0.822011" y2="33.5741" gradientUnits="userSpaceOnUse">
<stop stop-color="#D9D9D9"/>
<stop offset="1" stop-color="#737373" stop-opacity="0"/>
</linearGradient>
<linearGradient id="paint17_linear_4617_369" x1="37.2765" y1="-17.0954" x2="0.822011" y2="33.5741" gradientUnits="userSpaceOnUse">
<stop stop-color="#D9D9D9"/>
<stop offset="1" stop-color="#737373" stop-opacity="0"/>
</linearGradient>
<clipPath id="clip0_4617_369">
<rect width="298" height="206" fill="white"/>
</clipPath>
</defs>
</svg>
