<svg width="25" height="15" viewBox="0 0 25 15" fill="none" xmlns="http://www.w3.org/2000/svg">
<g id="Group 2">
<g id="Vector">
<path d="M23.2974 5.17008C23.8395 5.17008 24.279 5.60954 24.279 6.15164V8.72965C24.279 9.27175 23.8395 9.71121 23.2974 9.71121V5.17008Z" fill="white" fill-opacity="0.5"/>
<path fill-rule="evenodd" clip-rule="evenodd" d="M19.8622 2.38511H4.15736C3.07317 2.38511 2.19425 3.26403 2.19425 4.34822V10.7283C2.19425 11.8125 3.07317 12.6914 4.15736 12.6914H19.8622C20.9464 12.6914 21.8253 11.8125 21.8253 10.7283V4.34822C21.8253 3.26402 20.9464 2.38511 19.8622 2.38511ZM4.15736 0.912781C2.26002 0.912781 0.721924 2.45088 0.721924 4.34822V10.7283C0.721924 12.6257 2.26002 14.1638 4.15736 14.1638H19.8622C21.7596 14.1638 23.2977 12.6257 23.2977 10.7283V4.34822C23.2977 2.45088 21.7596 0.912781 19.8622 0.912781H4.15736Z" fill="white" fill-opacity="0.5"/>
</g>
<rect id="Rectangle 17" x="3.17566" y="3.36705" width="14.4779" height="8.34321" rx="0.981554" fill="white" fill-opacity="0.5"/>
</g>
</svg>
