<svg width="13" height="13" viewBox="0 0 13 13" fill="none" xmlns="http://www.w3.org/2000/svg">
<g id="Group">
<path id="Vector" d="M6.29105 0C9.7656 0 12.5821 2.8165 12.5821 6.29105C12.5821 9.7656 9.7656 12.5821 6.29105 12.5821C2.8165 12.5821 0 9.7656 0 6.29105C0 2.8165 2.8165 0 6.29105 0ZM6.29105 2.51642C6.1242 2.51642 5.96419 2.5827 5.84621 2.70068C5.72823 2.81866 5.66195 2.97868 5.66195 3.14553V6.29105C5.66198 6.45789 5.72829 6.61788 5.84627 6.73583L7.73359 8.62314C7.85224 8.73774 8.01115 8.80115 8.1761 8.79972C8.34105 8.79828 8.49884 8.73212 8.61548 8.61548C8.73212 8.49884 8.79828 8.34105 8.79972 8.1761C8.80115 8.01115 8.73774 7.85224 8.62314 7.73359L6.92016 6.0306V3.14553C6.92016 2.97868 6.85388 2.81866 6.7359 2.70068C6.61792 2.5827 6.4579 2.51642 6.29105 2.51642Z" fill="white" fill-opacity="0.6"/>
</g>
</svg>
