<svg width="23" height="23" viewBox="0 0 23 23" fill="none" xmlns="http://www.w3.org/2000/svg">
<g id="Vector">
<path d="M22.148 22.287H1.09886C1.06945 22.287 1.04044 22.2801 1.01411 22.267C0.987779 22.2539 0.964849 22.2349 0.947121 22.2114C0.929393 22.1879 0.91735 22.1607 0.911938 22.1318C0.906527 22.1029 0.907894 22.0731 0.915933 22.0448L1.58183 19.702C1.75512 19.2685 2.06157 18.9014 2.457 18.6534C2.85243 18.4054 3.31641 18.2893 3.78203 18.322H19.4648C19.9304 18.2893 20.3944 18.4054 20.7898 18.6534C21.1853 18.9014 21.4917 19.2685 21.665 19.702L22.3309 22.0448C22.339 22.0731 22.3403 22.1029 22.3349 22.1318C22.3295 22.1607 22.3175 22.1879 22.2997 22.2114C22.282 22.2349 22.2591 22.2539 22.2327 22.267C22.2064 22.2801 22.1774 22.287 22.148 22.287Z" fill="white"/>
<path d="M18.5144 3.18291C18.3851 2.39591 17.9704 1.68413 17.3494 1.18363C16.7285 0.683123 15.9448 0.428995 15.1483 0.469814H8.09936C7.30286 0.428995 6.51924 0.683123 5.89829 1.18363C5.27734 1.68413 4.8626 2.39591 4.73334 3.18291L3.35144 17.078C3.49439 17.0599 3.6384 17.0515 3.78249 17.0527H10.546V15.8407H12.7017V17.0527H19.4652C19.6093 17.0515 19.7533 17.0599 19.8963 17.078L18.5144 3.18291ZM16.7076 11.103C16.7076 11.1555 16.6946 11.2072 16.6697 11.2534C16.6448 11.2996 16.6088 11.3389 16.5649 11.3677C16.5211 11.3966 16.4708 11.4141 16.4185 11.4187C16.3662 11.4233 16.3136 11.4149 16.2654 11.3941L12.7017 9.85997V14.5728H10.546V9.85997L6.98234 11.3941C6.93412 11.4149 6.88151 11.4233 6.82922 11.4187C6.77693 11.4141 6.7266 11.3966 6.68275 11.3677C6.63891 11.3389 6.60292 11.2996 6.57801 11.2534C6.55311 11.2072 6.54007 11.1555 6.54006 11.103V7.00021C6.54006 6.94772 6.55309 6.89604 6.578 6.84983C6.6029 6.80362 6.63889 6.76432 6.68274 6.73545C6.72659 6.70659 6.77692 6.68907 6.82921 6.68446C6.8815 6.67986 6.93412 6.68831 6.98234 6.70907L10.546 8.24322V8.238H12.7017V8.24322L16.2654 6.70907C16.3136 6.68831 16.3662 6.67986 16.4185 6.68446C16.4708 6.68907 16.5211 6.70659 16.565 6.73545C16.6088 6.76432 16.6448 6.80362 16.6697 6.84983C16.6946 6.89604 16.7076 6.94772 16.7076 7.00021V11.103Z" fill="white"/>
</g>
</svg>
