<svg width="22" height="28" viewBox="0 0 22 28" fill="none" xmlns="http://www.w3.org/2000/svg">
<g id="Vector">
<path d="M10.9986 0L10.2322 0.385966L9.52648 1.21633L8.54946 4.43516L8.31678 8.11724L1.32863 0.518197L0.474016 1.33643L8.29044 8.9431L8.33786 9.89807L7.61005 10.7295V13.3706L7.88022 13.5989L0 21.0139L0.865656 21.9203L8.4791 13.9983L8.79339 13.9961L9.17936 15.5598L9.96673 16.8853L10.3284 24.6927L8.14056 24.6541L9.12312 26.9225L10.356 26.0326L10.5214 27.9469L11 27.9381L11.4786 27.9469L11.644 26.0326L12.8769 26.9225L13.8594 24.6541L11.6716 24.6927L12.0333 16.8853L12.8206 15.5598L13.2066 13.9961L13.5209 13.9983L21.1343 21.9203L22 21.0139L14.1198 13.5989L14.3899 13.3706L14.3888 10.7306L13.661 9.89917L13.7085 8.9431L21.5237 1.33643L20.6691 0.518197L13.681 8.11724L13.4483 4.43516L12.4713 1.21633L11.7655 0.385966L10.9986 0Z" fill="white"/>
<path d="M14.4705 16.1697C14.0018 16.5204 13.4803 16.8016 12.9167 16.9989L12.8396 17.1291L12.7988 18.0036C13.649 17.7665 14.4319 17.3662 15.1123 16.838L14.4705 16.1697Z" fill="white" fill-opacity="0.4"/>
<path d="M16.365 7.49872L15.699 8.14714C16.386 9.09992 16.794 10.2666 16.794 11.5337C16.794 12.546 16.5348 13.4965 16.0805 14.3247L16.7664 14.9698C17.3674 13.9641 17.7148 12.7886 17.7148 11.5336C17.7148 10.0206 17.212 8.62336 16.3651 7.49979L16.365 7.49872Z" fill="white" fill-opacity="0.4"/>
<path d="M17.7345 6.16658L17.0762 6.80727C18.0907 8.11072 18.6972 9.74944 18.6972 11.5325C18.6972 13.051 18.2572 14.4659 17.4996 15.6578L18.1778 16.2952C19.0865 14.93 19.6169 13.2923 19.6169 11.5324C19.6169 9.50336 18.9111 7.6386 17.7356 6.16526L17.7345 6.16658Z" fill="white" fill-opacity="0.25"/>
<path d="M15.7982 17.5514C14.9193 18.2528 13.8838 18.7644 12.7502 19.028L12.7061 19.9797C14.0999 19.6985 15.3714 19.0798 16.4344 18.2142L15.7982 17.5514Z" fill="white" fill-opacity="0.25"/>
<path d="M6.19874 17.5514L5.56246 18.2142C6.6255 19.0798 7.89697 19.6985 9.29084 19.9797L9.24673 19.028C8.11422 18.7666 7.07763 18.2539 6.19983 17.5525L6.19874 17.5514Z" fill="white" fill-opacity="0.25"/>
<path d="M4.26324 6.16658C3.0866 7.63987 2.38194 9.50567 2.38194 11.5337C2.38194 13.2937 2.91236 14.9313 3.82104 16.2965L4.49922 15.658C3.74273 14.4659 3.30273 13.0522 3.30273 11.5327C3.30273 9.74955 3.90813 8.11089 4.92267 6.80637L4.26324 6.16658Z" fill="white" fill-opacity="0.25"/>
<path d="M7.99134 3.45822C7.30543 3.71406 6.66254 4.05481 6.07255 4.46723L6.6967 5.14651C7.0209 4.92816 7.36387 4.73409 7.72225 4.56646L7.73328 4.38451C7.73659 4.32165 7.74872 4.25879 7.76636 4.19814L7.99134 3.45822Z" fill="white" fill-opacity="0.25"/>
<path d="M14.0058 3.45822L14.2308 4.19817C14.2495 4.25882 14.2606 4.32057 14.2639 4.38453L14.2749 4.56648C14.6322 4.7341 14.9751 4.92817 15.3004 5.14653L15.9246 4.46836C15.3346 4.05484 14.6917 3.71404 14.0058 3.45822Z" fill="white" fill-opacity="0.25"/>
<path d="M19.1844 4.75507L18.5261 5.39575C19.8913 7.06753 20.7095 9.20347 20.7095 11.5336C20.7095 13.588 20.0721 15.4904 18.9859 17.0583L19.6586 17.6913C20.8981 15.9533 21.6292 13.8282 21.6292 11.5337C21.6292 8.95874 20.7106 6.59681 19.1844 4.75507Z" fill="white" fill-opacity="0.1"/>
<path d="M13.3077 1.1579L13.6187 2.18345C14.7302 2.49333 15.7613 2.99617 16.6732 3.6534L17.2973 2.97413C16.1273 2.11067 14.7744 1.48322 13.3077 1.1579Z" fill="white" fill-opacity="0.1"/>
<path d="M8.68948 1.1579C7.22283 1.4832 5.86975 2.11067 4.69855 2.97413L5.3227 3.6523C6.23578 2.99507 7.26574 2.4922 8.37835 2.18235L8.68948 1.1579Z" fill="white" fill-opacity="0.1"/>
<path d="M2.81305 4.75507C1.28686 6.59554 0.368243 8.95885 0.368243 11.5337C0.368243 13.8286 1.09935 15.9524 2.33886 17.6913L3.01154 17.0584C1.92642 15.4903 1.28903 13.588 1.28903 11.5337C1.28903 9.20358 2.10726 7.06764 3.47248 5.39584L2.81305 4.75507Z" fill="white" fill-opacity="0.1"/>
<path d="M4.79711 19.0093L4.16302 19.6698C5.62197 20.8972 7.41516 21.7418 9.38564 22.0418L9.34263 21.1012C7.63337 20.8089 6.07751 20.0723 4.79811 19.0104L4.79711 19.0093Z" fill="white" fill-opacity="0.1"/>
<path fill-rule="evenodd" clip-rule="evenodd" d="M4.28323 11.5326C4.28323 10.0196 4.78607 8.62243 5.63298 7.49872L6.29907 8.14607C5.61316 9.09881 5.20405 10.2655 5.20405 11.5326C5.20405 12.546 5.46317 13.4966 5.91751 14.3236L5.2316 14.9688C4.6295 13.963 4.28323 12.7875 4.28323 11.5326ZM7.52709 16.1701L7.52755 16.1697L7.52645 16.1697L7.52709 16.1701ZM7.52709 16.1701L6.88576 16.8368C7.56504 17.3651 8.34801 17.7654 9.19932 18.0024L9.15852 17.128L9.08132 16.9989C8.51808 16.8016 7.99558 16.5206 7.52709 16.1701Z" fill="white" fill-opacity="0.4"/>
<path d="M17.1987 19.0093C15.9195 20.0701 14.3635 20.8067 12.6542 21.1L12.6112 22.0407C14.5818 21.7396 16.3737 20.896 17.8338 19.6687L17.1987 19.0093Z" fill="white" fill-opacity="0.1"/>
</g>
</svg>
