<svg width="20" height="16" viewBox="0 0 20 16" fill="none" xmlns="http://www.w3.org/2000/svg">
<path fill-rule="evenodd" clip-rule="evenodd" d="M10.9722 12.266C10.0615 12.4829 9.15102 12.4316 8.32744 12.1638L10.0469 11.7544C10.304 11.7415 10.5639 11.7049 10.8239 11.643C11.0838 11.5811 11.3323 11.4967 11.5677 11.3923L12.3161 11.2141L12.722 11.4639C12.214 11.833 11.6241 12.1108 10.9722 12.266ZM11.3075 3.19196C10.5198 2.96102 9.65868 2.92619 8.79722 3.1313C7.73208 3.38492 6.83265 3.96579 6.18516 4.7376L7.44887 4.4367C7.88431 4.12309 8.38872 3.88693 8.94557 3.75434C9.47893 3.62734 10.0122 3.60686 10.522 3.67893L10.8742 3.29512L11.3075 3.19196Z" fill="white" fill-opacity="0.4"/>
<path d="M18.0725 3.26597L17.2815 2.86793L17.3454 3.13599L17.9442 3.46065L18.214 3.98805L18.0516 4.01746L17.823 3.5742L17.3479 3.32995L16.3902 3.55797C16.8613 4.28015 17.2181 5.0944 17.4293 5.98139C17.6487 6.90285 17.6924 7.82506 17.5821 8.71283L18.5733 8.47681L18.8874 8.04465L18.8917 7.54592L19.0497 7.49773L19.0465 8.09015L18.657 8.64483L18.722 8.91789L19.2488 8.2061C19.2575 6.36948 18.9199 4.92378 18.0725 3.26597Z" fill="white"/>
<path d="M17.7669 9.6483L18.0596 9.30992L18.5673 9.12417L18.6888 8.96157L18.579 8.50061L17.5788 8.73876C17.5354 9.07821 17.4695 9.41257 17.3823 9.73987L17.7669 9.6483Z" fill="white"/>
<path d="M17.3422 3.30615L17.2324 2.84519L17.0507 2.75476L16.5138 2.81776L16.1 2.64759L15.764 2.72758C15.9845 2.98196 16.1891 3.2519 16.3759 3.53622L17.3422 3.30615Z" fill="white"/>
<path d="M17.5821 8.71283C17.6924 7.82506 17.6487 6.90285 17.4293 5.98139C17.2181 5.0944 16.8613 4.28015 16.3902 3.55797L15.5682 3.75369C16.0709 4.45847 16.4487 5.27016 16.6616 6.1642C16.8828 7.09342 16.905 8.0235 16.7556 8.90962L17.5821 8.71283Z" fill="white"/>
<path d="M17.3823 9.73987C17.4695 9.41257 17.5354 9.07821 17.5788 8.73876L16.7511 8.93583C16.6914 9.28194 16.6055 9.62127 16.4951 9.95113L17.3823 9.73987Z" fill="white"/>
<path d="M16.3759 3.53622C16.1891 3.2519 15.9845 2.98196 15.764 2.72758L14.8843 2.93705C15.1256 3.18365 15.3493 3.44924 15.5528 3.73221L16.3759 3.53622Z" fill="white"/>
<path d="M16.7556 8.90962C16.905 8.0235 16.8828 7.09342 16.6616 6.1642C16.4487 5.27016 16.0709 4.45847 15.5682 3.75369L14.908 3.91088C15.4577 4.59148 15.8666 5.39917 16.0816 6.30232C16.3052 7.24159 16.2953 8.18313 16.0887 9.06841L16.7556 8.90962Z" fill="white"/>
<path d="M16.4951 9.95113C16.6055 9.62127 16.6914 9.28194 16.7511 8.93583L16.0824 9.09505C15.9976 9.45125 15.881 9.79822 15.7349 10.1321L16.4951 9.95113Z" fill="white"/>
<path d="M15.5528 3.73221C15.3493 3.44924 15.1256 3.18365 14.8843 2.93705L14.1358 3.11527C14.4091 3.3501 14.662 3.60902 14.8909 3.8898L15.5528 3.73221Z" fill="white"/>
<path d="M14.76 3.94612L14.7543 3.92232L14.8909 3.8898C14.662 3.60902 14.4091 3.3501 14.1358 3.11527L13.3414 3.30442C14.3678 4.04725 15.1388 5.13693 15.452 6.45222C15.7755 7.81097 15.5543 9.17501 14.9275 10.3244L15.7349 10.1321C15.881 9.79822 15.9976 9.45125 16.0824 9.09505L15.9911 9.11679L15.9855 9.09299L16.0887 9.06841C16.2953 8.18313 16.3052 7.24159 16.0816 6.30232C15.8666 5.39917 15.4577 4.59148 14.908 3.91088L14.76 3.94612Z" fill="white"/>
<path d="M13.0787 3.36696L12.8542 3.53028L12.3673 3.64622C13.4402 4.26771 14.2604 5.29916 14.5663 6.58398C14.728 7.26307 14.7295 7.94372 14.595 8.58788C14.5956 8.61655 14.5955 8.6434 14.5948 8.66829C14.5745 9.2502 14.4463 9.48457 14.4463 9.48457L14.3145 9.47524C14.1582 9.83899 13.9563 10.1828 13.714 10.4981L14.4704 10.318L14.7456 10.3677L14.9275 10.3244C15.5543 9.17501 15.7755 7.81097 15.452 6.45222C15.1388 5.13693 14.3678 4.04725 13.3414 3.30442L13.0787 3.36696Z" fill="white"/>
<path d="M12.0826 3.71399L11.5566 3.5057L11.0992 3.56958L11.0147 3.77908C11.3696 3.87376 11.7084 4.01425 12.0222 4.19531L12.4227 4.09905L12.7379 4.08885C12.6128 4.16991 12.4638 4.24208 12.2913 4.30935C12.2741 4.31607 12.2566 4.32275 12.2389 4.32937C12.3772 4.421 12.5099 4.52091 12.6361 4.62858L13.2095 4.29017C13.2095 4.29017 13.4284 4.4366 13.7087 4.94696C14.0411 5.55919 14.5777 7.78595 14.595 8.58788C14.7295 7.94372 14.728 7.26307 14.5663 6.58398C14.2604 5.29916 13.4402 4.26771 12.3673 3.64622L12.0826 3.71399Z" fill="white"/>
<path fill-rule="evenodd" clip-rule="evenodd" d="M12.1682 5.15889L12.3635 4.78943L12.6361 4.62858C12.5099 4.52091 12.3772 4.421 12.2389 4.32937C11.8668 4.46868 11.3912 4.58819 10.8166 4.725L6.22473 5.82368C5.76627 6.66627 5.60473 7.66572 5.84178 8.6613C6.10711 9.77565 6.8204 10.6693 7.7528 11.2052L12.114 10.1738C12.5844 10.0618 12.99 9.96792 13.3382 9.91315C13.4436 9.75729 13.5382 9.59457 13.6211 9.4262L13.4649 9.41515L13.1252 9.17835C12.8171 7.77853 12.5236 6.54607 12.1682 5.15889ZM10.3277 6.51173L7.5707 7.16817L8.11411 9.45042L10.8711 8.79397L10.3277 6.51173Z" fill="white"/>
<path d="M12.8809 10.6131L12.6865 10.903L12.886 11.0738L13.3231 10.9248L13.6988 10.5018L13.714 10.4981C13.9563 10.1828 14.1582 9.83899 14.3145 9.47524L13.6211 9.4262C13.5382 9.59457 13.4436 9.75729 13.3382 9.91315C13.6381 9.86598 13.8954 9.84783 14.1149 9.87211L13.8298 10.0088L13.1505 10.169C13.0124 10.343 12.8598 10.5065 12.694 10.6576L12.8809 10.6131Z" fill="white"/>
<path d="M10.9993 3.81707L11.3035 3.98819L6.74887 5.07265C6.61682 5.22327 6.49615 5.38282 6.38774 5.54988L12.0222 4.19531C11.7084 4.01425 11.3696 3.87376 11.0147 3.77908L10.9993 3.81707Z" fill="white"/>
<path d="M12.694 10.6576C12.8598 10.5065 13.0124 10.343 13.1505 10.169L8.06597 11.3679C8.27279 11.4645 8.4883 11.5443 8.71034 11.6061L12.694 10.6576Z" fill="white"/>
<path d="M7.7528 11.2052C6.8204 10.6693 6.10711 9.77565 5.84178 8.6613C5.60473 7.66572 5.76627 6.66627 6.22473 5.82368L5.41531 6.01735C5.06708 6.87965 4.97334 7.84808 5.20317 8.81336C5.4584 9.88528 6.07158 10.7808 6.89082 11.4091L7.7528 11.2052Z" fill="white"/>
<path d="M5.20317 8.81336C4.97334 7.84808 5.06708 6.87965 5.41531 6.01735L4.52331 6.23077C4.24765 7.12816 4.2001 8.10353 4.4317 9.07618C4.67199 10.0854 5.18187 10.9618 5.86983 11.6506L6.89082 11.4091C6.07158 10.7808 5.4584 9.88528 5.20317 8.81336Z" fill="white"/>
<path d="M5.86983 11.6506C5.18187 10.9618 4.67199 10.0854 4.4317 9.07618C4.2001 8.10353 4.24765 7.12816 4.52331 6.23077L3.80892 6.4017C3.589 7.30389 3.57356 8.26617 3.80212 9.22609C4.03904 10.2211 4.51117 11.1003 5.14785 11.8213L5.86983 11.6506Z" fill="white"/>
<path d="M3.80212 9.22609C3.57356 8.26617 3.589 7.30389 3.80892 6.4017L3.13787 6.56226C2.97789 7.4653 2.99619 8.41517 3.22214 9.36415C3.45619 10.3471 3.88958 11.2306 4.46924 11.9818L5.14785 11.8213C4.51117 11.1003 4.03904 10.2211 3.80212 9.22609Z" fill="white"/>
<path d="M4.46924 11.9818C3.88958 11.2306 3.45619 10.3471 3.22214 9.36415C2.99619 8.41517 2.97789 7.4653 3.13787 6.56226L2.30865 6.76067C2.18955 7.66527 2.23044 8.60651 2.45436 9.54696C2.68617 10.5205 3.09345 11.4064 3.6347 12.1792L4.46924 11.9818Z" fill="white"/>
<path fill-rule="evenodd" clip-rule="evenodd" d="M2.3702 5.91668L2.14754 6.19339L1.01801 6.54704L0.409304 7.02023L1.78927 12.8159L2.54471 12.959L3.71362 12.7707L4.03709 12.9174L4.19013 12.881C4.0466 12.7199 3.90949 12.5524 3.77932 12.3787L2.90384 12.5852L3.01691 12.3253L3.6347 12.1792C3.09345 11.4064 2.68617 10.5205 2.45436 9.54696C2.23044 8.60651 2.18955 7.66527 2.30865 6.76067L1.7252 6.90027L1.50804 6.72299L2.34391 6.52204C2.37874 6.30956 2.42241 6.09932 2.47463 5.89182L2.3702 5.91668ZM1.19901 7.63567L0.922897 7.58229L1.99393 12.0805L2.21516 11.9034L1.19901 7.63567Z" fill="white"/>
<path d="M4.62711 12.1788C4.76958 12.3501 4.9199 12.5138 5.07737 12.6697L5.83757 12.4887C5.65828 12.3405 5.48729 12.1821 5.32562 12.0141L4.62711 12.1788Z" fill="white"/>
<path d="M3.77932 12.3787C3.90949 12.5524 4.0466 12.7199 4.19013 12.881L5.07737 12.6697C4.9199 12.5138 4.76958 12.3501 4.62711 12.1788L3.77932 12.3787Z" fill="white"/>
<path d="M5.32562 12.0141C5.48729 12.1821 5.65828 12.3405 5.83757 12.4887L6.64491 12.2965C6.44268 12.1569 6.2498 12.0042 6.06773 11.8391L5.32562 12.0141Z" fill="white"/>
<path d="M6.71013 12.2809L7.06497 11.9979L7.61449 11.8671C7.4503 11.7827 7.29132 11.6891 7.1384 11.5867L6.06773 11.8391C6.2498 12.0042 6.44268 12.1569 6.64491 12.2965L6.71013 12.2809Z" fill="white"/>
<path d="M8.71034 11.6061C8.4883 11.5443 8.27279 11.4645 8.06597 11.3679L7.1384 11.5867C7.29132 11.6891 7.4503 11.7827 7.61449 11.8671L8.71034 11.6061Z" fill="white"/>
<path d="M2.47463 5.89182C2.42241 6.09932 2.37874 6.30956 2.34391 6.52204L3.18535 6.31975C3.23161 6.10409 3.28809 5.89139 3.35438 5.68235L2.47463 5.89182Z" fill="white"/>
<path d="M3.35438 5.68235C3.28809 5.89139 3.23161 6.10409 3.18535 6.31975L3.87487 6.15399C3.9387 5.933 4.01491 5.71606 4.10287 5.50413L3.35438 5.68235Z" fill="white"/>
<path d="M4.10287 5.50413C4.01491 5.71606 3.9387 5.933 3.87487 6.15399L4.60778 5.97779C4.68978 5.75072 4.78657 5.52932 4.8973 5.31497L4.10287 5.50413Z" fill="white"/>
<path d="M5.48756 5.37297L5.04324 5.28022L4.8973 5.31497C4.78657 5.52932 4.68978 5.75072 4.60778 5.97779L5.53014 5.75605C5.60383 5.60125 5.68593 5.45043 5.77602 5.30429L5.48756 5.37297Z" fill="white"/>
<path d="M6.38774 5.54988C6.49615 5.38282 6.61682 5.22327 6.74887 5.07265L5.77602 5.30429C5.68593 5.45043 5.60383 5.60125 5.53014 5.75605L6.38774 5.54988Z" fill="white"/>
<path d="M6.31089 12.8435C7.72768 13.804 9.54738 14.1877 11.3681 13.7542C13.1888 13.3207 14.6403 12.1581 15.4722 10.6622L14.5858 10.8732C13.8138 11.968 12.6432 12.8015 11.2218 13.14C9.8005 13.4784 8.37985 13.2619 7.19727 12.6325L6.31089 12.8435Z" fill="white" fill-opacity="0.25"/>
<path d="M13.7303 2.79524C12.2923 1.75433 10.4045 1.32446 8.51563 1.77421C6.62594 2.22415 5.13395 3.4595 4.3196 5.03768L5.17715 4.8335C5.9451 3.65118 7.16434 2.745 8.66188 2.38844C10.1585 2.03208 11.6545 2.29106 12.8724 2.99949L13.7303 2.79524Z" fill="white" fill-opacity="0.25"/>
<path d="M4.55376 13.2619C6.38014 15.0485 9.05556 15.8872 11.7246 15.2517C14.3937 14.6161 16.4041 12.6617 17.2294 10.2438L16.3 10.4651C15.4706 12.4131 13.7596 13.9558 11.5418 14.4839C9.32406 15.0119 7.10142 14.4059 5.48315 13.0406L4.55376 13.2619Z" fill="white" fill-opacity="0.1"/>
<path d="M15.4494 2.38592C13.6214 0.517565 10.8869 -0.372823 8.15907 0.27669C5.43053 0.926359 3.39039 2.95434 2.60097 5.44682L3.51568 5.22902C4.317 3.20302 6.06157 1.58741 8.34187 1.04447C10.6215 0.501687 12.9063 1.15717 14.5345 2.60375L15.4494 2.38592Z" fill="white" fill-opacity="0.1"/>
</svg>
