<svg width="28" height="41" viewBox="0 0 28 41" fill="none" xmlns="http://www.w3.org/2000/svg">
<path d="M14 23.3276C16.1139 23.3276 17.8276 25.0413 17.8276 27.1552V22.8621C17.8276 20.7482 16.1139 19.0345 14 19.0345C11.8861 19.0345 10.1724 20.7482 10.1724 22.8621V27.1552C10.1724 25.0413 11.8861 23.3276 14 23.3276Z" fill="#DFDFDF" fill-opacity="0.4"/>
<path fill-rule="evenodd" clip-rule="evenodd" d="M8.00375 21.4629L8 21.5172H8.41379V29.431L8.25862 30.2586L9.0819 39.6349C9.14288 40.3293 9.72444 40.8621 10.4216 40.8621H17.5784C18.2756 40.8621 18.8571 40.3293 18.9181 39.6349L19.7414 30.2586L19.5862 29.431V21.5172H20L19.9963 21.4629C19.2463 10.5913 18.8247 4.47926 14 0C9.17535 4.47926 8.75371 10.5913 8.00375 21.4629ZM10.1724 27.764V32.0571C10.1724 32.6921 10.6872 33.2069 11.3222 33.2069H16.6778C17.3128 33.2069 17.8276 32.6921 17.8276 32.0571V27.764V27.1552V22.8621C17.8276 20.7482 16.1139 19.0345 14 19.0345C11.8861 19.0345 10.1724 20.7482 10.1724 22.8621V27.1552V27.764ZM14 17.5862C14.5713 17.5862 15.0345 17.1231 15.0345 16.5517C15.0345 15.9804 14.5713 15.5172 14 15.5172C13.4287 15.5172 12.9655 15.9804 12.9655 16.5517C12.9655 17.1231 13.4287 17.5862 14 17.5862ZM13.8966 4.18965C13.8966 4.61815 13.5492 4.96552 13.1207 4.96552C12.6922 4.96552 12.3448 4.61815 12.3448 4.18965C12.3448 3.76116 12.6922 3.41379 13.1207 3.41379C13.5492 3.41379 13.8966 3.76116 13.8966 4.18965ZM14.8793 4.96552C15.3078 4.96552 15.6552 4.61815 15.6552 4.18965C15.6552 3.76116 15.3078 3.41379 14.8793 3.41379C14.4508 3.41379 14.1034 3.76116 14.1034 4.18965C14.1034 4.61815 14.4508 4.96552 14.8793 4.96552Z" fill="white" fill-opacity="0.25"/>
<path d="M22 21.9999C22 23.8936 21.342 25.6336 20.2423 27.0038V24.7338C20.6093 23.8969 20.813 22.9722 20.813 21.9999C20.7564 20.3186 20.7176 18.9442 20.6563 17.5606C21.5051 18.8308 22 20.3575 22 21.9999Z" fill="white" fill-opacity="0.25"/>
<path d="M7.18705 21.9999C7.19411 20.3812 7.21355 18.9953 7.25957 17.6892C6.46229 18.9333 6 20.4126 6 21.9999C6 23.9635 6.70746 25.7619 7.88141 27.1541V24.9999C7.43676 24.0947 7.18705 23.0765 7.18705 21.9999Z" fill="#D9D9D9" fill-opacity="0.25"/>
<path d="M25 21.9999C25 25.7569 23.1165 29.074 20.2423 31.0584L20.3338 29.4999C22.4638 27.6992 23.8164 25.0075 23.8164 21.9999C23.8164 19.0653 22.5287 16.4315 20.4875 14.6326C20.4509 14.1232 20.4031 13.5893 20.3541 13.0197C23.0898 15.0207 25 18.3508 25 21.9999Z" fill="#D9D9D9" fill-opacity="0.25"/>
<path d="M4.18356 21.9999C4.18356 19.1089 5.43328 16.5098 7.42197 14.7134C7.46221 14.1791 7.50907 13.6379 7.5636 13.0786C4.79898 15.0766 3 18.3282 3 21.9999C3 25.7569 4.8835 29.074 7.75775 31.0584L7.66623 29.4999C5.53616 27.6992 4.18356 25.0075 4.18356 21.9999Z" fill="#D9D9D9" fill-opacity="0.25"/>
<path d="M28 21.9999C28 27.5847 24.7299 32.4057 20 34.6526L20.2423 33.124C24.1284 30.9386 26.7536 26.7758 26.7536 21.9999C26.7536 17.188 24.0887 12.9986 20.1544 10.8268C20.1073 10.3589 20.056 9.86699 20 9.34717C24.7299 11.5941 28 16.4151 28 21.9999Z" fill="#D9D9D9" fill-opacity="0.1"/>
<path d="M0 21.9999C0 16.4151 3.27011 11.5941 8 9.34717C7.93081 9.86965 7.8674 10.3679 7.8093 10.847C3.89486 13.0244 1.24643 17.2029 1.24643 21.9999C1.24643 26.7758 3.87163 30.9386 7.75775 33.124L8 34.6526C3.27011 32.4057 0 27.5847 0 21.9999Z" fill="#D9D9D9" fill-opacity="0.1"/>
</svg>
