<svg width="15" height="20" viewBox="0 0 15 20" fill="none" xmlns="http://www.w3.org/2000/svg">
<path d="M7.3843 0.638062C2.54868 0.638062 0.384712 4.73332 0.384712 8.79262C0.384712 12.8265 3.58731 19.2529 7.3843 19.2529C11.1813 19.2529 14.3839 12.8265 14.3839 8.79262C14.3839 4.73332 12.2199 0.638062 7.3843 0.638062ZM7.3843 16.1021C5.72103 16.1021 4.03723 15.7087 4.03723 14.9556C4.03723 14.2025 5.72103 13.8087 7.3843 13.8087C9.04758 13.8087 10.7314 14.2025 10.7314 14.9556C10.7314 15.7087 9.04758 16.1021 7.3843 16.1021ZM11.1288 11.2927C10.3254 11.2927 9.46197 10.7061 8.70024 10.1883C8.19384 9.84457 7.67072 9.48877 7.38409 9.48877C7.09324 9.48877 6.55362 9.85112 6.03177 10.2016C5.27068 10.7129 4.40805 11.2923 3.63913 11.2923C2.62843 11.2923 2.02493 10.5388 2.02493 9.27724V7.94141C2.02493 6.82177 2.44419 6.58676 2.79596 6.58676C2.96138 6.58676 3.13992 6.64155 3.34193 6.75472C3.44452 6.81226 3.5579 6.87762 3.68059 6.94827C4.63566 7.4991 6.07915 8.33127 7.3843 8.33127C8.83753 8.33127 10.49 7.32522 11.3774 6.78476L11.4199 6.75895C11.6207 6.6369 11.7998 6.57746 11.9678 6.57746C12.4606 6.57746 12.7435 7.07456 12.7433 7.94184V9.27766C12.7433 11.031 11.7319 11.2927 11.1288 11.2927Z" fill="white"/>
</svg>
