<svg width="31" height="37" viewBox="0 0 31 37" fill="none" xmlns="http://www.w3.org/2000/svg">
<g opacity="0.33">
<path fill-rule="evenodd" clip-rule="evenodd" d="M6.07411 18.7948C6.07411 20.6485 6.58867 22.3785 7.47887 23.842V20.3425C7.38614 19.8412 7.33761 19.3239 7.33761 18.7948C7.33761 18.2658 7.38614 17.7485 7.47887 17.2472V15.7241L6.81407 15.0569C6.33775 16.2046 6.07411 17.468 6.07411 18.7948ZM23.3356 13.9878C24.1387 15.3989 24.5991 17.0416 24.5991 18.7948C24.5991 20.9627 23.8953 22.9614 22.7099 24.5625V21.9905C23.1128 21.008 23.3356 19.9282 23.3356 18.7948C23.3356 17.7093 23.1312 16.6729 22.7599 15.7241L23.3356 14.8695V13.9878Z" fill="white" fill-opacity="0.4"/>
<path d="M20.1022 0.991899L21.2275 2.33286H20.6839L19.7872 1.3284L18.6517 1.05052L18.6695 1.37683L19.6247 1.61392L20.3106 2.41699V4.3661C18.7093 3.7899 16.9836 3.476 15.1848 3.476C13.3161 3.476 11.5262 3.81477 9.87288 4.43445V2.41699L10.5587 1.61392L11.5139 1.37683L11.5342 1.05052L10.3987 1.3284L9.51219 2.33286H8.95842L10.0838 0.991899C13.6046 0.132773 16.5333 0.120047 20.1022 0.991899Z" fill="white"/>
<path d="M7.9931 4.50748L8.50877 3.78854L8.63324 2.72546L8.88981 2.41699H9.82462V4.45264C9.19297 4.69186 8.58139 4.97213 7.9931 5.29021V4.50748Z" fill="white"/>
<path d="M20.3588 2.41699H21.2936L21.5502 2.72546L21.6747 3.78854L22.1903 4.50748V5.19126C21.6014 4.88336 20.9898 4.61307 20.3588 4.38356V2.41699Z" fill="white"/>
<path d="M9.87288 4.43445C11.5262 3.81477 13.3161 3.476 15.1848 3.476C16.9836 3.476 18.7093 3.7899 20.3106 4.3661V6.03906C18.7282 5.39396 16.9979 5.03861 15.1848 5.03861C13.3003 5.03861 11.5052 5.42248 9.87288 6.11655V4.43445Z" fill="white"/>
<path d="M7.9931 5.29021C8.58139 4.97213 9.19297 4.69186 9.82462 4.45264V6.13718C9.18766 6.41093 8.5757 6.73199 7.9931 7.09596V5.29021Z" fill="white"/>
<path d="M20.3588 4.38356C20.9898 4.61307 21.6014 4.88336 22.1903 5.19126V6.98177C21.6068 6.63009 20.9949 6.32102 20.3588 6.05884V4.38356Z" fill="white"/>
<path d="M9.87288 6.11655C11.5052 5.42248 13.3003 5.03861 15.1848 5.03861C16.9979 5.03861 18.7282 5.39396 20.3106 6.03906V7.38268C18.7532 6.63597 17.0163 6.21899 15.1847 6.21899C13.2799 6.21899 11.4775 6.66999 9.87288 7.47384V6.11655Z" fill="white"/>
<path d="M7.9931 7.09596C8.5757 6.73199 9.18766 6.41093 9.82462 6.13718V7.49815C9.17977 7.82485 8.56719 8.20865 7.9931 8.64315V7.09596Z" fill="white"/>
<path d="M20.3588 6.05884C20.9949 6.32102 21.6068 6.63009 22.1903 6.98177V8.50515C21.6148 8.08648 21.0023 7.71801 20.3588 7.40595V6.05884Z" fill="white"/>
<path d="M20.3106 7.68394H20.3588V7.40595C21.0023 7.71801 21.6148 8.08648 22.1903 8.50515V10.122C20.2957 8.48576 17.8521 7.50034 15.1847 7.50034C12.4292 7.50034 9.91248 8.55195 7.9931 10.2863V8.64315C8.56719 8.20865 9.17977 7.82485 9.82462 7.49815V7.68394H9.87288V7.47384C11.4775 6.66999 13.2799 6.21899 15.1847 6.21899C17.0163 6.21899 18.7532 6.63597 20.3106 7.38268V7.68394Z" fill="white"/>
<path d="M22.1903 10.6565L21.9795 11.1638V12.1549C20.2965 10.3735 17.9422 9.26675 15.3366 9.26675C13.9594 9.26675 12.6524 9.57593 11.4777 10.1305C11.4224 10.1424 11.3709 10.1549 11.3234 10.1677C10.2159 10.4736 9.82468 10.828 9.82468 10.828L9.90285 11.0777C9.27615 11.5454 8.70866 12.092 8.2141 12.7032V11.1638L7.9931 10.6565V10.2863C9.91248 8.55195 12.4292 7.50034 15.1847 7.50034C17.8521 7.50034 20.2957 8.48576 22.1903 10.122V10.6565Z" fill="white"/>
<path d="M21.9795 12.7342L22.6196 13.6519L22.706 14.562L22.3426 14.821C21.9987 14.1808 21.5743 13.5927 21.0834 13.0713L21.0851 12.2559L20.9606 11.644C20.8622 11.9221 20.7918 12.2422 20.7415 12.6053C20.7365 12.6416 20.7317 12.6783 20.7271 12.7154C20.488 12.491 20.2356 12.2813 19.9714 12.0877L20.3588 10.828C20.3588 10.828 19.9777 10.4736 18.8702 10.1677C17.5433 9.80835 13.0246 9.79594 11.4777 10.1305C12.6524 9.57593 13.9594 9.26675 15.3366 9.26675C17.9422 9.26675 20.2965 10.3735 21.9795 12.1549V12.7342Z" fill="white"/>
<path fill-rule="evenodd" clip-rule="evenodd" d="M19.1674 13.232L19.7872 12.6865L19.9714 12.0877C20.2356 12.2813 20.488 12.491 20.7271 12.7154C20.6298 13.4961 20.6177 14.4668 20.6177 15.6363L20.6075 24.9843C19.1999 26.2537 17.3556 27.0232 15.3366 27.0232C13.0767 27.0232 11.0358 26.0592 9.58108 24.5091L9.56768 15.6363C9.56768 14.6789 9.56255 13.8546 9.50855 13.1589C9.7595 12.8844 10.0286 12.6276 10.3138 12.3906L10.4064 12.6865L11.0161 13.232C13.8434 13.1836 16.3427 13.1836 19.1674 13.232ZM17.4121 17.3973V23.0085H12.7838V17.3973H17.4121Z" fill="white"/>
<path d="M8.37414 14.3606L7.90674 14.868L7.4876 14.562L7.57396 13.6519L8.2141 12.7342V12.7032C8.70866 12.092 9.27615 11.5454 9.90285 11.0777L10.3138 12.3906C10.0286 12.6276 9.7595 12.8844 9.50855 13.1589C9.46204 12.5597 9.3793 12.0557 9.23237 11.644L9.10028 12.2559L9.10328 13.6377C8.83252 13.9835 8.58841 14.3524 8.37414 14.741V14.3606Z" fill="white"/>
<path d="M22.2767 14.868L21.8093 14.3606V23.6304C21.5806 23.9538 21.3295 24.2594 21.0584 24.5448L21.0834 13.0713C21.5743 13.5927 21.9987 14.1808 22.3426 14.821L22.2767 14.868Z" fill="white"/>
<path d="M8.37414 14.741C8.58841 14.3524 8.83252 13.9835 9.10328 13.6377L9.12574 23.9806C8.84601 23.6265 8.59431 23.248 8.37414 22.8487V14.741Z" fill="white"/>
<path d="M9.58108 24.5091C11.0358 26.0592 13.0767 27.0232 15.3366 27.0232C17.3556 27.0232 19.1999 26.2537 20.6075 24.9843L20.6056 26.6321C19.1099 27.6983 17.2941 28.3229 15.3366 28.3229C13.1628 28.3229 11.1638 27.5526 9.58372 26.2629L9.58108 24.5091Z" fill="white"/>
<path d="M15.3366 28.3229C17.2941 28.3229 19.1099 27.6983 20.6056 26.6321L20.6037 28.448C19.0074 29.3905 17.1572 29.9294 15.1847 29.9294C13.1381 29.9294 11.2231 29.3492 9.58686 28.3401L9.58372 26.2629C11.1638 27.5526 13.1628 28.3229 15.3366 28.3229Z" fill="white"/>
<path d="M9.58686 28.3401C11.2231 29.3492 13.1381 29.9294 15.1847 29.9294C17.1572 29.9294 19.0074 29.3905 20.6037 28.448L20.6021 29.9024C18.9711 30.7397 17.1314 31.2107 15.1847 31.2107C13.1668 31.2107 11.2637 30.7046 9.58908 29.8089L9.58686 28.3401Z" fill="white"/>
<path d="M15.1847 31.2107C17.1314 31.2107 18.9711 30.7397 20.6021 29.9024L20.6006 31.2685C18.9406 31.9907 17.1093 32.3911 15.1848 32.3911C13.1913 32.3911 11.2978 31.9615 9.59116 31.1896L9.58908 29.8089C11.2637 30.7046 13.1668 31.2107 15.1847 31.2107Z" fill="white"/>
<path d="M9.59116 31.1896C11.2978 31.9615 13.1913 32.3911 15.1848 32.3911C17.1093 32.3911 18.9406 31.9907 20.6006 31.2685L20.5987 32.9566C18.917 33.6008 17.092 33.9537 15.1848 33.9537C13.2104 33.9537 11.3241 33.5756 9.59373 32.8875L9.59116 31.1896Z" fill="white"/>
<path fill-rule="evenodd" clip-rule="evenodd" d="M22.1903 32.451L21.761 33.0067L21.5985 35.3445L20.9685 36.7339H9.21495L8.59514 35.3445L8.42241 33.0067L7.9931 32.451V32.1395C8.36779 32.3421 8.75193 32.5294 9.14468 32.7004L9.14855 34.4813L9.59562 34.1444L9.59373 32.8875C11.3241 33.5756 13.2104 33.9537 15.1848 33.9537C17.092 33.9537 18.917 33.6008 20.5987 32.9566L20.5974 34.1444L21.0369 34.4813L21.0406 32.7792C21.4324 32.6147 21.8159 32.4342 22.1903 32.2385V32.451ZM19.4265 35.4951L19.6551 36.0024H10.5329L10.7717 35.4951H19.4265Z" fill="white"/>
<path d="M9.14093 30.9759C8.74716 30.78 8.36417 30.5656 7.9931 30.3338V28.7866C8.35954 29.0639 8.74166 29.3206 9.13785 29.555L9.14093 30.9759Z" fill="white"/>
<path d="M9.14468 32.7004C8.75193 32.5294 8.36779 32.3421 7.9931 32.1395V30.3338C8.36417 30.5656 8.74716 30.78 9.14093 30.9759L9.14468 32.7004Z" fill="white"/>
<path d="M9.13785 29.555C8.74166 29.3206 8.35954 29.0639 7.9931 28.7866V27.1434C8.35334 27.4689 8.73462 27.7704 9.13457 28.0454L9.13785 29.555Z" fill="white"/>
<path d="M7.9931 27.0107L8.37414 26.1975V25.0791C8.61107 25.3566 8.86343 25.6199 9.12984 25.8674L9.13457 28.0454C8.73462 27.7704 8.35334 27.4689 7.9931 27.1434V27.0107Z" fill="white"/>
<path d="M8.37414 22.8487C8.59431 23.248 8.84601 23.6265 9.12574 23.9806L9.12984 25.8674C8.86343 25.6199 8.61107 25.3566 8.37414 25.0791V22.8487Z" fill="white"/>
<path d="M22.1903 32.2385C21.8159 32.4342 21.4324 32.6147 21.0406 32.7792L21.0443 31.0658C21.437 30.8778 21.8194 30.6715 22.1903 30.448V32.2385Z" fill="white"/>
<path d="M22.1903 30.448C21.8194 30.6715 21.437 30.8778 21.0443 31.0658L21.0473 29.6618C21.4423 29.4375 21.8238 29.1912 22.1903 28.9246V30.448Z" fill="white"/>
<path d="M22.1903 28.9246C21.8238 29.1912 21.4423 29.4375 21.0473 29.6618L21.0506 28.1693C21.4489 27.9073 21.8296 27.6193 22.1903 27.3077V28.9246Z" fill="white"/>
<path d="M21.8093 26.1975L22.1903 27.0107V27.3077C21.8296 27.6193 21.4489 27.9073 21.0506 28.1693L21.0546 26.2911C21.3181 26.0782 21.57 25.8509 21.8093 25.6104V26.1975Z" fill="white"/>
<path d="M21.0584 24.5448C21.3295 24.2594 21.5806 23.9538 21.8093 23.6304V25.6104C21.57 25.8509 21.3181 26.0782 21.0546 26.2911L21.0584 24.5448Z" fill="white"/>
<path d="M7.09589 28.0376C4.60519 25.7493 3.0372 22.4204 3.0372 18.7149C3.0372 15.0093 4.60519 11.6804 7.09589 9.39208V11.1961C5.34756 13.1851 4.28282 15.8221 4.28282 18.7149C4.28282 21.6076 5.34756 24.2446 7.09589 26.2336V28.0376Z" fill="white" fill-opacity="0.25"/>
<path d="M22.9898 9.13937C25.6446 11.4316 27.3322 14.8705 27.3322 18.7149C27.3322 22.5608 25.6432 26.001 22.9865 28.2932V26.5479C24.9046 24.5266 26.0866 21.7627 26.0866 18.7149C26.0866 15.6688 24.906 12.9063 22.9898 10.8853V9.13937Z" fill="white" fill-opacity="0.25"/>
<path d="M7.09589 31.6138C2.83257 28.9154 0.00038147 24.1471 0.00038147 18.7149C0.00038147 13.2826 2.83257 8.51428 7.09589 5.8159V7.70742C3.73621 10.1982 1.55741 14.2012 1.55741 18.7149C1.55741 23.2285 3.73621 27.2315 7.09589 29.7223V31.6138Z" fill="white" fill-opacity="0.1"/>
<path d="M22.9898 5.6406C27.4108 8.30452 30.3691 13.163 30.3691 18.7149C30.3691 24.2681 27.4094 29.1275 22.9866 31.791V29.9294C26.5087 27.4569 28.8121 23.3558 28.8121 18.7149C28.8121 14.0753 26.5101 9.97531 22.9898 7.50258V5.6406Z" fill="white" fill-opacity="0.1"/>
</g>
</svg>
