<svg width="28" height="27" viewBox="0 0 28 27" fill="none" xmlns="http://www.w3.org/2000/svg">
<g id="Group 53">
<g id="Ellipse 1" filter="url(#filter0_f_4539_651)">
<circle cx="13.9603" cy="13.5682" r="8.9305" transform="rotate(76.6071 13.9603 13.5682)" fill="black" fill-opacity="0.5"/>
</g>
<g id="Vector">
<path fill-rule="evenodd" clip-rule="evenodd" d="M14.9722 18.266C14.0615 18.4829 13.151 18.4316 12.3274 18.1638L14.0469 17.7544C14.304 17.7415 14.5639 17.7049 14.8239 17.643C15.0838 17.5811 15.3323 17.4967 15.5677 17.3923L16.3161 17.2141L16.722 17.4639C16.214 17.833 15.6241 18.1108 14.9722 18.266ZM15.3075 9.19196C14.5198 8.96102 13.6587 8.92619 12.7972 9.1313C11.7321 9.38492 10.8326 9.96579 10.1852 10.7376L11.4489 10.4367C11.8843 10.1231 12.3887 9.88693 12.9456 9.75434C13.4789 9.62734 14.0122 9.60686 14.522 9.67893L14.8742 9.29512L15.3075 9.19196Z" fill="white" fill-opacity="0.4"/>
<path d="M22.0725 9.26597L21.2815 8.86793L21.3454 9.13599L21.9442 9.46065L22.214 9.98805L22.0516 10.0175L21.823 9.5742L21.3479 9.32995L20.3902 9.55797C20.8613 10.2802 21.2181 11.0944 21.4293 11.9814C21.6487 12.9028 21.6924 13.8251 21.5821 14.7128L22.5733 14.4768L22.8874 14.0447L22.8917 13.5459L23.0497 13.4977L23.0465 14.0901L22.657 14.6448L22.722 14.9179L23.2488 14.2061C23.2575 12.3695 22.9199 10.9238 22.0725 9.26597Z" fill="white"/>
<path d="M21.7669 15.6483L22.0596 15.3099L22.5673 15.1242L22.6888 14.9616L22.579 14.5006L21.5788 14.7388C21.5354 15.0782 21.4695 15.4126 21.3823 15.7399L21.7669 15.6483Z" fill="white"/>
<path d="M21.3422 9.30615L21.2324 8.84519L21.0507 8.75476L20.5138 8.81776L20.1 8.64759L19.764 8.72758C19.9845 8.98196 20.1891 9.2519 20.3759 9.53622L21.3422 9.30615Z" fill="white"/>
<path d="M21.5821 14.7128C21.6924 13.8251 21.6487 12.9028 21.4293 11.9814C21.2181 11.0944 20.8613 10.2802 20.3902 9.55797L19.5682 9.75369C20.0709 10.4585 20.4487 11.2702 20.6616 12.1642C20.8828 13.0934 20.905 14.0235 20.7556 14.9096L21.5821 14.7128Z" fill="white"/>
<path d="M21.3823 15.7399C21.4695 15.4126 21.5354 15.0782 21.5788 14.7388L20.7511 14.9358C20.6914 15.2819 20.6055 15.6213 20.4951 15.9511L21.3823 15.7399Z" fill="white"/>
<path d="M20.3759 9.53622C20.1891 9.2519 19.9845 8.98196 19.764 8.72758L18.8843 8.93705C19.1256 9.18365 19.3493 9.44924 19.5528 9.73221L20.3759 9.53622Z" fill="white"/>
<path d="M20.7556 14.9096C20.905 14.0235 20.8828 13.0934 20.6616 12.1642C20.4487 11.2702 20.0709 10.4585 19.5682 9.75369L18.908 9.91088C19.4577 10.5915 19.8666 11.3992 20.0816 12.3023C20.3052 13.2416 20.2953 14.1831 20.0887 15.0684L20.7556 14.9096Z" fill="white"/>
<path d="M20.4951 15.9511C20.6055 15.6213 20.6914 15.2819 20.7511 14.9358L20.0824 15.0951C19.9976 15.4512 19.881 15.7982 19.7349 16.1321L20.4951 15.9511Z" fill="white"/>
<path d="M19.5528 9.73221C19.3493 9.44924 19.1256 9.18365 18.8843 8.93705L18.1358 9.11527C18.4091 9.3501 18.662 9.60902 18.8909 9.8898L19.5528 9.73221Z" fill="white"/>
<path d="M18.76 9.94612L18.7543 9.92232L18.8909 9.8898C18.662 9.60902 18.4091 9.3501 18.1358 9.11527L17.3414 9.30442C18.3678 10.0472 19.1388 11.1369 19.452 12.4522C19.7755 13.811 19.5543 15.175 18.9275 16.3244L19.7349 16.1321C19.881 15.7982 19.9976 15.4512 20.0824 15.0951L19.9911 15.1168L19.9855 15.093L20.0887 15.0684C20.2953 14.1831 20.3052 13.2416 20.0816 12.3023C19.8666 11.3992 19.4577 10.5915 18.908 9.91088L18.76 9.94612Z" fill="white"/>
<path d="M17.0787 9.36696L16.8542 9.53028L16.3673 9.64622C17.4402 10.2677 18.2604 11.2992 18.5663 12.584C18.728 13.2631 18.7295 13.9437 18.595 14.5879C18.5956 14.6165 18.5955 14.6434 18.5948 14.6683C18.5745 15.2502 18.4463 15.4846 18.4463 15.4846L18.3145 15.4752C18.1582 15.839 17.9563 16.1828 17.714 16.4981L18.4704 16.318L18.7456 16.3677L18.9275 16.3244C19.5543 15.175 19.7755 13.811 19.452 12.4522C19.1388 11.1369 18.3678 10.0472 17.3414 9.30442L17.0787 9.36696Z" fill="white"/>
<path d="M16.0826 9.71399L15.5566 9.5057L15.0992 9.56958L15.0147 9.77908C15.3696 9.87376 15.7084 10.0143 16.0222 10.1953L16.4227 10.099L16.7379 10.0888C16.6128 10.1699 16.4638 10.2421 16.2913 10.3094C16.2741 10.3161 16.2566 10.3227 16.2389 10.3294C16.3772 10.421 16.5099 10.5209 16.6361 10.6286L17.2095 10.2902C17.2095 10.2902 17.4284 10.4366 17.7087 10.947C18.0411 11.5592 18.5777 13.7859 18.595 14.5879C18.7295 13.9437 18.728 13.2631 18.5663 12.584C18.2604 11.2992 17.4402 10.2677 16.3673 9.64622L16.0826 9.71399Z" fill="white"/>
<path fill-rule="evenodd" clip-rule="evenodd" d="M16.1682 11.1589L16.3635 10.7894L16.6361 10.6286C16.5099 10.5209 16.3772 10.421 16.2389 10.3294C15.8668 10.4687 15.3912 10.5882 14.8166 10.725L10.2247 11.8237C9.76627 12.6663 9.60473 13.6657 9.84178 14.6613C10.1071 15.7756 10.8204 16.6693 11.7528 17.2052L16.114 16.1738C16.5844 16.0618 16.99 15.9679 17.3382 15.9131C17.4436 15.7573 17.5382 15.5946 17.6211 15.4262L17.4649 15.4152L17.1252 15.1784C16.8171 13.7785 16.5236 12.5461 16.1682 11.1589ZM14.3277 12.5117L11.5707 13.1682L12.1141 15.4504L14.8711 14.794L14.3277 12.5117Z" fill="white"/>
<path d="M16.8809 16.6131L16.6865 16.903L16.886 17.0738L17.3231 16.9248L17.6988 16.5018L17.714 16.4981C17.9563 16.1828 18.1582 15.839 18.3145 15.4752L17.6211 15.4262C17.5382 15.5946 17.4436 15.7573 17.3382 15.9131C17.6381 15.866 17.8954 15.8478 18.1149 15.8721L17.8298 16.0088L17.1505 16.169C17.0124 16.343 16.8598 16.5065 16.694 16.6576L16.8809 16.6131Z" fill="white"/>
<path d="M14.9993 9.81707L15.3035 9.98819L10.7489 11.0727C10.6168 11.2233 10.4961 11.3828 10.3877 11.5499L16.0222 10.1953C15.7084 10.0143 15.3696 9.87376 15.0147 9.77908L14.9993 9.81707Z" fill="white"/>
<path d="M16.694 16.6576C16.8598 16.5065 17.0124 16.343 17.1505 16.169L12.066 17.3679C12.2728 17.4645 12.4883 17.5443 12.7103 17.6061L16.694 16.6576Z" fill="white"/>
<path d="M11.7528 17.2052C10.8204 16.6693 10.1071 15.7756 9.84178 14.6613C9.60473 13.6657 9.76627 12.6663 10.2247 11.8237L9.41531 12.0173C9.06708 12.8797 8.97334 13.8481 9.20317 14.8134C9.4584 15.8853 10.0716 16.7808 10.8908 17.4091L11.7528 17.2052Z" fill="white"/>
<path d="M9.20317 14.8134C8.97334 13.8481 9.06708 12.8797 9.41531 12.0173L8.52331 12.2308C8.24765 13.1282 8.2001 14.1035 8.4317 15.0762C8.67199 16.0854 9.18187 16.9618 9.86983 17.6506L10.8908 17.4091C10.0716 16.7808 9.4584 15.8853 9.20317 14.8134Z" fill="white"/>
<path d="M9.86983 17.6506C9.18187 16.9618 8.67199 16.0854 8.4317 15.0762C8.2001 14.1035 8.24765 13.1282 8.52331 12.2308L7.80892 12.4017C7.589 13.3039 7.57356 14.2662 7.80212 15.2261C8.03904 16.2211 8.51117 17.1003 9.14785 17.8213L9.86983 17.6506Z" fill="white"/>
<path d="M7.80212 15.2261C7.57356 14.2662 7.589 13.3039 7.80892 12.4017L7.13787 12.5623C6.97789 13.4653 6.99619 14.4152 7.22214 15.3642C7.45619 16.3471 7.88958 17.2306 8.46924 17.9818L9.14785 17.8213C8.51117 17.1003 8.03904 16.2211 7.80212 15.2261Z" fill="white"/>
<path d="M8.46924 17.9818C7.88958 17.2306 7.45619 16.3471 7.22214 15.3642C6.99619 14.4152 6.97789 13.4653 7.13787 12.5623L6.30865 12.7607C6.18955 13.6653 6.23044 14.6065 6.45436 15.547C6.68617 16.5205 7.09345 17.4064 7.6347 18.1792L8.46924 17.9818Z" fill="white"/>
<path fill-rule="evenodd" clip-rule="evenodd" d="M6.3702 11.9167L6.14754 12.1934L5.01801 12.547L4.4093 13.0202L5.78927 18.8159L6.54471 18.959L7.71362 18.7707L8.03709 18.9174L8.19013 18.881C8.0466 18.7199 7.90949 18.5524 7.77932 18.3787L6.90384 18.5852L7.01691 18.3253L7.6347 18.1792C7.09345 17.4064 6.68617 16.5205 6.45436 15.547C6.23044 14.6065 6.18955 13.6653 6.30865 12.7607L5.7252 12.9003L5.50804 12.723L6.34391 12.522C6.37874 12.3096 6.42241 12.0993 6.47463 11.8918L6.3702 11.9167ZM5.19901 13.6357L4.9229 13.5823L5.99393 18.0805L6.21516 17.9034L5.19901 13.6357Z" fill="white"/>
<path d="M8.62711 18.1788C8.76958 18.3501 8.9199 18.5138 9.07737 18.6697L9.83757 18.4887C9.65828 18.3405 9.48729 18.1821 9.32562 18.0141L8.62711 18.1788Z" fill="white"/>
<path d="M7.77932 18.3787C7.90949 18.5524 8.0466 18.7199 8.19013 18.881L9.07737 18.6697C8.9199 18.5138 8.76958 18.3501 8.62711 18.1788L7.77932 18.3787Z" fill="white"/>
<path d="M9.32562 18.0141C9.48729 18.1821 9.65828 18.3405 9.83757 18.4887L10.6449 18.2965C10.4427 18.1569 10.2498 18.0042 10.0677 17.8391L9.32562 18.0141Z" fill="white"/>
<path d="M10.7101 18.2809L11.065 17.9979L11.6145 17.8671C11.4503 17.7827 11.2913 17.6891 11.1384 17.5867L10.0677 17.8391C10.2498 18.0042 10.4427 18.1569 10.6449 18.2965L10.7101 18.2809Z" fill="white"/>
<path d="M12.7103 17.6061C12.4883 17.5443 12.2728 17.4645 12.066 17.3679L11.1384 17.5867C11.2913 17.6891 11.4503 17.7827 11.6145 17.8671L12.7103 17.6061Z" fill="white"/>
<path d="M6.47463 11.8918C6.42241 12.0993 6.37874 12.3096 6.34391 12.522L7.18535 12.3198C7.23161 12.1041 7.28809 11.8914 7.35438 11.6823L6.47463 11.8918Z" fill="white"/>
<path d="M7.35438 11.6823C7.28809 11.8914 7.23161 12.1041 7.18535 12.3198L7.87487 12.154C7.9387 11.933 8.01491 11.7161 8.10287 11.5041L7.35438 11.6823Z" fill="white"/>
<path d="M8.10287 11.5041C8.01491 11.7161 7.9387 11.933 7.87487 12.154L8.60778 11.9778C8.68978 11.7507 8.78657 11.5293 8.8973 11.315L8.10287 11.5041Z" fill="white"/>
<path d="M9.48756 11.373L9.04324 11.2802L8.8973 11.315C8.78657 11.5293 8.68978 11.7507 8.60778 11.9778L9.53014 11.7561C9.60383 11.6012 9.68593 11.4504 9.77602 11.3043L9.48756 11.373Z" fill="white"/>
<path d="M10.3877 11.5499C10.4961 11.3828 10.6168 11.2233 10.7489 11.0727L9.77602 11.3043C9.68593 11.4504 9.60383 11.6012 9.53014 11.7561L10.3877 11.5499Z" fill="white"/>
<path d="M10.3109 18.8435C11.7277 19.804 13.5474 20.1877 15.3681 19.7542C17.1888 19.3207 18.6403 18.1581 19.4722 16.6622L18.5858 16.8732C17.8138 17.968 16.6432 18.8015 15.2218 19.14C13.8005 19.4784 12.3799 19.2619 11.1973 18.6325L10.3109 18.8435Z" fill="white" fill-opacity="0.25"/>
<path d="M17.7303 8.79524C16.2923 7.75433 14.4045 7.32446 12.5156 7.77421C10.6259 8.22415 9.13395 9.4595 8.3196 11.0377L9.17715 10.8335C9.9451 9.65118 11.1643 8.745 12.6619 8.38844C14.1585 8.03208 15.6545 8.29106 16.8724 8.99949L17.7303 8.79524Z" fill="white" fill-opacity="0.25"/>
<path d="M8.55376 19.2619C10.3801 21.0485 13.0556 21.8872 15.7246 21.2517C18.3937 20.6161 20.4041 18.6617 21.2294 16.2438L20.3 16.4651C19.4706 18.4131 17.7596 19.9558 15.5418 20.4839C13.3241 21.0119 11.1014 20.4059 9.48315 19.0406L8.55376 19.2619Z" fill="white" fill-opacity="0.1"/>
<path d="M19.4494 8.38592C17.6214 6.51757 14.8869 5.62718 12.1591 6.27669C9.43053 6.92636 7.39039 8.95434 6.60097 11.4468L7.51568 11.229C8.317 9.20302 10.0616 7.58741 12.3419 7.04447C14.6215 6.50169 16.9063 7.15717 18.5345 8.60375L19.4494 8.38592Z" fill="white" fill-opacity="0.1"/>
</g>
</g>
<defs>
<filter id="filter0_f_4539_651" x="0.770408" y="0.378348" width="26.3797" height="26.3797" filterUnits="userSpaceOnUse" color-interpolation-filters="sRGB">
<feFlood flood-opacity="0" result="BackgroundImageFix"/>
<feBlend mode="normal" in="SourceGraphic" in2="BackgroundImageFix" result="shape"/>
<feGaussianBlur stdDeviation="2.12865" result="effect1_foregroundBlur_4539_651"/>
</filter>
</defs>
</svg>
