<svg width="9" height="12" viewBox="0 0 9 12" fill="none" xmlns="http://www.w3.org/2000/svg">
<path id="Vector" d="M4.5 0C2.01854 0 0 1.96295 0 4.37607C0 5.16217 0.380679 6.15393 1.16084 7.40848C1.8094 8.45051 2.61305 9.48568 3.32037 10.3975C3.647 10.8179 3.95483 11.2155 4.19217 11.5446C4.26266 11.6429 4.37781 11.7 4.5 11.7C4.62219 11.7 4.73734 11.6429 4.80783 11.5446C5.04517 11.2155 5.353 10.8179 5.67964 10.3975C6.38695 9.48568 7.18825 8.45051 7.83916 7.40848C8.61932 6.15393 9 5.16217 9 4.37607C9 1.96295 6.98146 0 4.5 0ZM4.5 6.39844C3.35326 6.39844 2.42037 5.49123 2.42037 4.37607C2.42037 3.26092 3.35326 2.35371 4.5 2.35371C5.64674 2.35371 6.57963 3.26092 6.57963 4.37607C6.57963 5.49123 5.64674 6.39844 4.5 6.39844Z" fill="white"/>
</svg>
