<svg width="11" height="18" viewBox="0 0 11 18" fill="none" xmlns="http://www.w3.org/2000/svg">
<path d="M1.01451 14.8102C1.04265 14.9734 1.0736 15.2605 1.01733 15.5616H4.45639C4.40292 15.2633 4.43387 14.9791 4.45921 14.813C4.54363 14.7849 4.60556 14.7061 4.60556 14.6132V7.83075C4.00725 7.83095 1.46951 7.83061 0.870981 7.83075V14.6132C0.870981 14.7061 0.930087 14.7849 1.01451 14.8102Z" fill="white" fill-opacity="0.25"/>
<path d="M0.510746 15.9838V16.8787C0.510746 16.9941 0.603623 17.0898 0.721818 17.0898H4.75189C4.8701 17.0898 4.96296 16.9941 4.96296 16.8787V15.9838H0.510746Z" fill="white" fill-opacity="0.25"/>
<path d="M4.52393 7.40861L4.09054 6.5418V5.05586C4.09054 4.94892 4.01454 4.86449 3.91324 4.85042C3.94124 4.43159 3.94285 3.855 3.89635 3.36165C3.81754 2.43012 2.95075 1.06238 2.91416 1.00609C2.83817 0.882259 2.63555 0.882259 2.55956 1.00609C2.52297 1.06238 1.65617 2.43012 1.57737 3.36165C1.5239 3.98362 1.5436 4.55211 1.56049 4.85042C1.46198 4.86449 1.38319 4.94892 1.38319 5.05586V6.5418L0.952593 7.40861C1.19692 7.40472 4.52393 7.40861 4.52393 7.40861Z" fill="white" fill-opacity="0.25"/>
<path d="M6.35604 14.813C6.38138 14.9791 6.41233 15.2633 6.35886 15.5616H9.79792C9.74444 15.2633 9.77541 14.9762 9.80073 14.8102C9.88403 14.7857 9.94415 14.7059 9.94427 14.6132V7.83075C9.3459 7.83095 6.80825 7.8306 6.20969 7.83075V14.6132C6.20969 14.7061 6.27161 14.7849 6.35604 14.813Z" fill="white" fill-opacity="0.25"/>
<path d="M5.85229 15.9838V16.8787C5.85229 16.9941 5.94515 17.0898 6.06336 17.0898H10.0934C10.2116 17.0898 10.3045 16.9941 10.3045 16.8787V15.9838H5.85229Z" fill="white" fill-opacity="0.25"/>
<path d="M9.86266 7.40861L9.43206 6.5418V5.05586C9.43206 4.94892 9.35327 4.86449 9.25476 4.85042C9.28276 4.4314 9.28438 3.85513 9.23787 3.36165C9.15909 2.43012 8.29228 1.06238 8.25569 1.00609C8.21629 0.944181 8.15156 0.907593 8.07839 0.907593C8.00522 0.907593 7.93767 0.944179 7.90109 1.00609C7.8645 1.06238 6.99771 2.43012 6.9189 3.36165C6.86543 3.98362 6.88513 4.55211 6.90202 4.85042C6.8007 4.86449 6.72472 4.94892 6.72472 5.05586V6.5418L6.29132 7.40861C6.53871 7.40444 9.86266 7.40861 9.86266 7.40861Z" fill="white" fill-opacity="0.25"/>
</svg>
