<svg width="16" height="17" viewBox="0 0 16 17" fill="none" xmlns="http://www.w3.org/2000/svg">
<path id="Vector" opacity="0.19" fill-rule="evenodd" clip-rule="evenodd" d="M3.89784 9.77855C3.85662 9.66246 3.74692 9.58526 3.62444 9.58526C3.50138 9.58526 3.39167 9.66246 3.35046 9.77855L2.52445 12.1097L0.193296 12.9357C0.0772023 12.9769 0 13.0866 0 13.2091C0 13.3322 0.0772023 13.4419 0.193296 13.4831L2.52445 14.3091L3.35046 16.6403C3.39167 16.7563 3.50138 16.8336 3.62444 16.8336C3.74692 16.8336 3.85662 16.7563 3.89784 16.6403L4.72384 14.3091L7.055 13.4831C7.17109 13.4419 7.24829 13.3322 7.24829 13.2091C7.24829 13.0866 7.17109 12.9769 7.055 12.9357L4.72384 12.1097L3.89784 9.77855ZM9.72167 0.167755C9.67407 0.0655928 9.57133 0 9.45871 0C9.3461 0 9.24336 0.0655928 9.19576 0.167755L7.2512 4.33377L3.0846 6.27833C2.98244 6.32593 2.91743 6.42868 2.91743 6.54129C2.91743 6.6539 2.98244 6.75664 3.0846 6.80424L7.2512 8.7488L9.19576 12.9154C9.24336 13.0176 9.3461 13.0826 9.45871 13.0826C9.57133 13.0826 9.67407 13.0176 9.72167 12.9154L11.6662 8.7488L15.8328 6.80424C15.935 6.75664 16 6.6539 16 6.54129C16 6.42868 15.935 6.32593 15.8328 6.27833L11.6662 4.33377L9.72167 0.167755Z" fill="white"/>
</svg>
