<svg width="17" height="18" viewBox="0 0 17 18" fill="none" xmlns="http://www.w3.org/2000/svg">
<path d="M16.198 17.1701H0.510003C0.488082 17.1701 0.466461 17.165 0.446838 17.1552C0.427215 17.1455 0.410125 17.1313 0.396913 17.1138C0.3837 17.0963 0.374724 17.076 0.370691 17.0544C0.366658 17.0329 0.367677 17.0107 0.373668 16.9896L0.869965 15.2435C0.999118 14.9205 1.22752 14.6468 1.52223 14.462C1.81695 14.2771 2.16275 14.1907 2.50978 14.215H14.1982C14.5452 14.1907 14.891 14.2771 15.1857 14.462C15.4805 14.6468 15.7089 14.9205 15.838 15.2435L16.3343 16.9896C16.3403 17.0107 16.3413 17.0329 16.3373 17.0544C16.3333 17.076 16.3243 17.0963 16.3111 17.1138C16.2979 17.1313 16.2808 17.1455 16.2611 17.1552C16.2415 17.165 16.2199 17.1701 16.198 17.1701Z" fill="white" fill-opacity="0.25"/>
<path d="M13.4898 2.9318C13.3935 2.34525 13.0844 1.81476 12.6216 1.44173C12.1588 1.0687 11.5748 0.879302 10.9811 0.909725H5.72749C5.13386 0.879302 4.54983 1.0687 4.08703 1.44173C3.62423 1.81476 3.31513 2.34525 3.21879 2.9318L2.18886 13.2879C2.2954 13.2744 2.40273 13.2681 2.51012 13.269H7.55099V12.3657H9.15762V13.269H14.1985C14.3059 13.2681 14.4132 13.2744 14.5198 13.2879L13.4898 2.9318ZM12.1433 8.83467C12.1433 8.87379 12.1335 8.9123 12.115 8.94674C12.0964 8.98118 12.0696 9.01047 12.0369 9.03198C12.0042 9.05349 11.9667 9.06654 11.9278 9.06997C11.8888 9.07341 11.8496 9.0671 11.8136 9.05163L9.15762 7.90823V11.4208H7.55099V7.90823L4.89497 9.05163C4.85904 9.0671 4.81983 9.07341 4.78086 9.06997C4.74188 9.06654 4.70437 9.05349 4.6717 9.03198C4.63902 9.01047 4.61219 8.98118 4.59363 8.94674C4.57507 8.9123 4.56535 8.87379 4.56535 8.83467V5.77685C4.56534 5.73772 4.57506 5.69921 4.59362 5.66477C4.61218 5.63033 4.639 5.60104 4.67168 5.57952C4.70436 5.55801 4.74187 5.54495 4.78085 5.54152C4.81982 5.53809 4.85904 5.54439 4.89497 5.55986L7.55099 6.70326V6.69937H9.15762V6.70326L11.8136 5.55986C11.8496 5.54439 11.8888 5.53809 11.9278 5.54152C11.9667 5.54495 12.0043 5.55801 12.0369 5.57952C12.0696 5.60104 12.0964 5.63033 12.115 5.66477C12.1336 5.69921 12.1433 5.73772 12.1433 5.77685V8.83467Z" fill="white" fill-opacity="0.25"/>
</svg>
