<svg width="17" height="20" viewBox="0 0 17 20" fill="none" xmlns="http://www.w3.org/2000/svg">
<path fill-rule="evenodd" clip-rule="evenodd" d="M5.67192 5.80384C5.7093 5.84066 5.7468 5.87771 5.78239 5.91676C5.62584 6.1801 5.62963 6.48718 5.8133 6.66839C5.99496 6.84782 6.29657 6.8496 6.55433 6.6974C6.6273 6.76949 6.6966 6.83778 6.766 6.91008C6.61693 7.16985 6.62429 7.46934 6.80416 7.64698C6.98404 7.82462 7.28174 7.83043 7.5414 7.67956C7.62397 7.76124 7.70442 7.84069 7.78499 7.92014C7.63781 8.1779 7.64517 8.47739 7.82504 8.65503C8.0067 8.83446 8.30831 8.83624 8.56975 8.68025C8.65389 8.7597 8.73456 8.83937 8.81133 8.91145C8.65489 9.17479 8.66058 9.48008 8.84403 9.66129C9.03327 9.84831 9.3533 9.8425 9.62232 9.66776C10.1145 10.1168 10.326 10.2848 10.326 10.2848L7.86399 12.778C7.86399 12.778 3.72947 8.91725 1.60827 6.71169C-0.514727 4.50434 1.13314 0.426395 1.13314 0.426395C2.96825 3.9183 3.50798 3.59671 5.67192 5.80384Z" fill="white" fill-opacity="0.25"/>
<path fill-rule="evenodd" clip-rule="evenodd" d="M10.8914 9.88111L7.56539 13.2494L8.26212 13.9374L8.85597 13.336C9.6963 14.6357 10.5291 14.4442 11.2504 14.9015C11.6795 17.4155 13.2802 16.1693 14.3541 19.409C16.6902 17.3095 16.325 16.3753 15.0917 15.0501C14.1155 14.0008 12.7614 12.7417 11.0202 11.1445L11.5882 10.5691L10.8914 9.88111Z" fill="white" fill-opacity="0.25"/>
</svg>
