<svg width="22" height="15" viewBox="0 0 22 15" fill="none" xmlns="http://www.w3.org/2000/svg">
<path d="M20.5149 10.1867L19.8693 9.09676C19.4617 8.40852 19.1235 7.67953 18.86 6.92107L18.5395 5.99858C18.5017 5.88995 18.4824 5.77549 18.4824 5.66018V5.48858C18.4824 4.77245 19.0489 4.19192 19.7476 4.19192H19.911C20.0995 4.19192 20.2523 4.03534 20.2523 3.8422V3.81147C20.2523 3.77478 20.2446 3.73852 20.2296 3.70516L19.9987 3.18971V1.20848C19.9987 1.09828 19.9116 1.00896 19.8041 1.00896H19.3602C19.3432 1.00896 19.3274 0.999868 19.3186 0.984989L19.0899 0.599091H18.4824L18.2537 0.984989C18.2448 0.999868 18.2291 1.00896 18.2121 1.00896H2.51621C2.50033 1.00896 2.48622 0.998561 2.48115 0.983135L2.36888 0.641463C2.36056 0.616143 2.33738 0.599091 2.31131 0.599091H1.78912C1.77005 0.599091 1.75209 0.60827 1.74061 0.623864L1.45737 1.00896H1.26874C1.16122 1.00896 1.07405 1.09829 1.07405 1.20848V1.35232H0.870081C0.836461 1.35232 0.809204 1.38025 0.809204 1.4147V2.78397C0.809204 2.81843 0.836461 2.84636 0.870081 2.84636H1.07405V4.32416C1.07405 4.48945 1.20479 4.62343 1.36607 4.62343H6.90313C7.51949 4.62343 8.01914 5.13549 8.01914 5.76716V6.71018C8.01914 6.92823 7.97478 7.14388 7.88891 7.34337L7.76435 7.6327C7.69122 7.80254 7.80865 7.99436 7.98969 8.0008L11.7635 8.135C11.8648 8.1386 11.9657 8.11964 12.0592 8.07944L12.7223 7.79426C13.1178 7.62417 13.5728 7.81503 13.7385 8.22043L15.5576 12.6722C15.6381 12.8692 15.6796 13.0806 15.6796 13.2941V13.9415C15.6796 14.1664 15.8574 14.3487 16.0768 14.3487H20.7497C20.9295 14.3487 21.1061 14.3 21.2616 14.2077L21.6238 13.9926C21.7024 13.9459 21.7509 13.8598 21.7509 13.7667V12.9706C21.7509 12.2468 20.5149 10.1867 20.5149 10.1867ZM12.9835 6.47359C12.9835 7.0367 12.5381 7.49321 11.9886 7.49321H9.50302C9.01356 7.49321 8.61677 7.08657 8.61677 6.58495V5.78435C8.61677 5.27363 9.03757 4.86899 9.5349 4.9015L11.547 5.033V5.24536C11.547 5.63822 11.4428 6.02369 11.2456 6.36056L10.8858 6.97516C10.8858 6.97516 10.8471 7.04124 10.8994 7.06933C10.9517 7.09742 11.0511 7.15078 11.0511 7.15078C11.0729 7.16247 11.099 7.16187 11.1202 7.14921L11.5813 6.8744C11.7829 6.75427 11.9519 6.58442 12.0731 6.38027L12.2478 6.08602C12.3368 5.936 12.4611 5.81121 12.6093 5.72301L12.8128 5.60185C12.9205 5.77915 12.9835 5.98754 12.9835 6.21066V6.47359ZM14.5452 7.2941L14.2863 7.36527C14.2215 7.38308 14.1549 7.34371 14.1375 7.27729L13.977 6.66409C13.9596 6.59767 13.998 6.52938 14.0628 6.51157L14.3217 6.44038C14.3864 6.42257 14.4531 6.46196 14.4705 6.52838L14.631 7.14157C14.6484 7.20798 14.61 7.27627 14.5452 7.2941Z" fill="white" fill-opacity="0.25"/>
</svg>
