<svg width="32" height="18" viewBox="0 0 32 18" fill="none" xmlns="http://www.w3.org/2000/svg">
<g id="Vector">
<path d="M22.0382 2.36736H21.0959C20.9949 2.36736 20.9276 2.30005 20.894 2.23274C20.7257 1.82888 20.0526 1.89619 20.0526 1.89619L19.7834 2.19909C19.6487 2.3337 19.4805 2.40101 19.2785 2.40101H5.31185C5.21088 2.40101 5.14357 2.40101 5.07626 2.36736L3.73008 1.86254C3.39353 1.72792 2.98967 1.89619 2.8214 2.23274L2.75409 2.36736H2.41754C2.11465 2.36736 1.84541 2.56929 1.77811 2.87218C1.60983 3.67989 1.23963 5.1607 0.768465 5.59821C0.129027 6.17034 0.364609 6.6415 1.00405 6.84343C1.64349 7.07901 3.12429 6.54054 2.28293 8.86271C1.57618 10.8147 0.465573 14.5167 0.0280627 16.1658C-0.106556 16.6033 0.263645 17.0408 0.701156 17.0408H5.61474C6.11956 17.0408 6.48976 16.5023 6.25418 16.0312L6.15321 15.8292C6.05225 15.5936 6.0859 15.3581 6.22052 15.1561C6.4561 14.7859 6.69169 13.9782 7.02823 12.9686C7.43209 11.757 7.70133 10.9156 7.80229 10.5454H11.8409C12.6149 10.5454 13.3217 10.0743 13.6246 9.33388L14.6005 6.87709H20.894C21.2978 6.87709 21.6007 6.57419 21.6007 6.17034V5.32897C21.6007 5.22801 21.7017 5.12704 21.8026 5.12704H22.0046C22.1055 5.12704 22.2065 5.02608 22.2065 4.92511V2.60294C22.2738 2.46832 22.1728 2.36736 22.0382 2.36736ZM12.6486 8.93002C12.5139 9.23291 12.2111 9.43484 11.8745 9.43484H8.20615L8.98021 7.3146C9.08117 7.04536 9.35041 6.84343 9.6533 6.84343H9.75426C9.98985 7.61749 10.4274 8.69444 10.9658 8.99733C11.9418 8.99733 10.5956 8.12231 10.9658 6.84343H13.5236L12.6486 8.93002Z" fill="white" fill-opacity="0.22"/>
<path d="M25.471 3.20873H24.0238C23.7546 3.20873 23.519 3.44431 23.519 3.71355C23.519 3.98278 23.7546 4.21837 24.0238 4.21837H25.471C25.7402 4.21837 25.9758 3.98278 25.9758 3.71355C26.0095 3.44431 25.7739 3.20873 25.471 3.20873Z" fill="white" fill-opacity="0.22"/>
<path d="M23.5863 2.53563C23.6873 2.53563 23.7546 2.50198 23.8556 2.46832L25.1008 1.76157C25.3364 1.62696 25.4373 1.32406 25.3027 1.05483C25.1681 0.819244 24.8652 0.71828 24.596 0.852898L23.3507 1.55965C23.1152 1.69427 23.0142 1.99716 23.1488 2.26639C23.2498 2.43467 23.4181 2.53563 23.5863 2.53563Z" fill="white" fill-opacity="0.22"/>
<path d="M25.1008 5.69917L23.8556 4.99242C23.62 4.8578 23.2834 4.92511 23.1488 5.19435C23.0142 5.42993 23.0815 5.76648 23.3507 5.9011L24.596 6.60785C24.6633 6.6415 24.7642 6.67516 24.8652 6.67516C25.0335 6.67516 25.2018 6.57419 25.3027 6.40592C25.4373 6.13668 25.3364 5.83379 25.1008 5.69917Z" fill="white" fill-opacity="0.22"/>
<path d="M31.7981 3.30969L31.2596 2.93949C31.024 2.77122 30.7548 2.70391 30.4519 2.70391H28.4326C28.3653 2.70391 28.3316 2.73756 28.3316 2.80487C28.3316 2.87218 28.298 2.90583 28.2307 2.90583H27.7595C27.6922 2.90583 27.6585 2.87218 27.6585 2.80487C27.6585 2.73756 27.6249 2.70391 27.5576 2.70391H27.1874C27.1201 2.70391 27.0864 2.73756 27.0864 2.80487V4.62222C27.0864 4.68953 27.1201 4.72319 27.1874 4.72319H27.5576C27.6249 4.72319 27.6585 4.68953 27.6585 4.62222C27.6585 4.55491 27.6922 4.52126 27.7595 4.52126H28.2307C28.298 4.52126 28.3316 4.55491 28.3316 4.62222C28.3316 4.68953 28.3653 4.72319 28.4326 4.72319H30.4519C30.7548 4.72319 31.024 4.62222 31.2596 4.4876L31.7981 4.1174C32.0673 3.91547 32.0673 3.51162 31.7981 3.30969Z" fill="white" fill-opacity="0.22"/>
</g>
</svg>
