<svg width="21" height="14" viewBox="0 0 21 14" fill="none" xmlns="http://www.w3.org/2000/svg">
<path id="Vector" d="M19.7606 9.61429L19.1132 8.52134C18.7045 7.83119 18.3653 7.10016 18.1011 6.33959L17.7796 5.41454C17.7418 5.3056 17.7225 5.19082 17.7225 5.07519V4.90311C17.7225 4.18499 18.2905 3.60284 18.9912 3.60284H19.155C19.344 3.60284 19.4972 3.44582 19.4972 3.25214V3.22133C19.4972 3.18453 19.4895 3.14817 19.4745 3.11472L19.243 2.59783V0.611086C19.243 0.500577 19.1556 0.411008 19.0478 0.411008H18.6027C18.5856 0.411008 18.5698 0.401894 18.561 0.386974L18.3316 0H17.7225L17.493 0.386974C17.4842 0.401894 17.4684 0.411008 17.4514 0.411008H1.71176C1.69583 0.411008 1.68169 0.400583 1.67661 0.385114L1.56402 0.0424907C1.55567 0.0170999 1.53243 0 1.50629 0H0.982643C0.963518 0 0.945509 0.0092053 0.933999 0.0248421L0.649974 0.411008H0.460813C0.352997 0.411008 0.265584 0.500592 0.265584 0.611086V0.755323H0.0610462C0.0273332 0.755323 0 0.783335 0 0.817886V2.19097C0 2.22552 0.0273332 2.25353 0.0610462 2.25353H0.265584V3.73545C0.265584 3.90119 0.396689 4.03555 0.558413 4.03555H6.11091C6.72898 4.03555 7.23002 4.54904 7.23002 5.18247V6.12812C7.23002 6.34677 7.18554 6.56302 7.09942 6.76307L6.97452 7.0532C6.90119 7.22352 7.01894 7.41587 7.20049 7.42233L10.9848 7.55691C11.0864 7.56052 11.1876 7.5415 11.2814 7.50119L11.9463 7.21521C12.3428 7.04465 12.7992 7.23605 12.9653 7.64257L14.7895 12.1068C14.8702 12.3043 14.9118 12.5163 14.9118 12.7304V13.3796C14.9118 13.6051 15.0902 13.7879 15.3102 13.7879H19.9961C20.1764 13.7879 20.3534 13.7391 20.5094 13.6465L20.8726 13.4308C20.9514 13.384 21 13.2977 21 13.2043V12.406C21 11.6802 19.7606 9.61429 19.7606 9.61429ZM12.2082 5.89087C12.2082 6.45554 11.7615 6.91333 11.2105 6.91333H8.71803C8.22721 6.91333 7.82932 6.50555 7.82932 6.00253V5.19971C7.82932 4.68756 8.25129 4.2818 8.75 4.3144L10.7677 4.44626V4.65921C10.7677 5.05317 10.6632 5.43971 10.4655 5.77752L10.1046 6.39384C10.1046 6.39384 10.0658 6.4601 10.1183 6.48827C10.1708 6.51643 10.2704 6.56994 10.2704 6.56994C10.2923 6.58166 10.3184 6.58107 10.3397 6.56837L10.8021 6.29279C11.0042 6.17233 11.1738 6.002 11.2953 5.79729L11.4704 5.50222C11.5597 5.35178 11.6844 5.22664 11.833 5.13819L12.0371 5.0167C12.145 5.19449 12.2082 5.40346 12.2082 5.6272V5.89087ZM13.7742 6.71366L13.5147 6.78503C13.4497 6.80289 13.3829 6.7634 13.3654 6.6968L13.2044 6.08189C13.187 6.01529 13.2255 5.94681 13.2905 5.92895L13.5501 5.85757C13.6151 5.8397 13.6819 5.87921 13.6993 5.94581L13.8603 6.5607C13.8777 6.62731 13.8392 6.69578 13.7742 6.71366Z" fill="#FF0037"/>
</svg>
