<svg width="16" height="11" viewBox="0 0 16 11" fill="none" xmlns="http://www.w3.org/2000/svg">
<path id="Vector" d="M9.14285 2.75C9.14285 1.2375 10.1714 0 11.4286 0C12.6857 0 13.7143 1.2375 13.7143 2.75C13.7143 4.2625 12.6857 5.5 11.4286 5.5C10.1714 5.5 9.14285 4.2625 9.14285 2.75ZM14.6057 7.6725C13.6343 7.16375 12.5714 6.875 11.4286 6.875C10.6629 6.875 9.93143 7.0125 9.23428 7.26C9.89714 8.01625 10.2857 9.075 10.2857 10.2163V11H16V10.2163C16 9.1025 15.4286 8.1125 14.6057 7.6725ZM2.28572 2.75C2.28572 1.2375 3.31429 0 4.57143 0C5.82857 0 6.85714 1.2375 6.85714 2.75C6.85714 4.2625 5.82857 5.5 4.57143 5.5C3.31429 5.5 2.28572 4.2625 2.28572 2.75ZM9.14285 11H0V10.2163C0 9.1025 0.571429 8.1125 1.39429 7.6725C2.36571 7.16375 3.42857 6.875 4.57143 6.875C5.71429 6.875 6.77714 7.16375 7.74857 7.6725C8.57143 8.1125 9.14285 9.1025 9.14285 10.2163" fill="white" fill-opacity="0.6"/>
</svg>
