<svg width="31" height="31" viewBox="0 0 31 31" fill="none" xmlns="http://www.w3.org/2000/svg">
<g opacity="0.33">
<path fill-rule="evenodd" clip-rule="evenodd" d="M8.35953 15.3811V15.4082C8.35953 15.9611 8.16195 16.4418 7.76681 16.8495C7.35367 17.2664 6.86856 17.4751 6.31145 17.4751H6.24406C6.35165 18.5992 6.82796 19.583 7.67224 20.4257C8.6241 21.3956 9.78311 21.881 11.1485 21.881H18.9365C20.3019 21.881 21.4697 21.396 22.4395 20.4257C23.2478 19.5826 23.7153 18.5992 23.8409 17.4751C23.3382 17.4299 22.9024 17.2212 22.5337 16.8495C22.1294 16.4414 21.9276 15.9611 21.9276 15.4082V15.3811C21.9276 14.81 22.1294 14.325 22.5337 13.9263C22.9024 13.5545 23.3382 13.3505 23.8409 13.3146C23.7153 12.1905 23.2478 11.2113 22.4395 10.3771C21.4697 9.41605 20.3019 8.93574 18.9365 8.93574H11.1485C9.78311 8.93574 8.6241 9.41605 7.67224 10.3771C6.82796 11.2113 6.35165 12.1901 6.24406 13.3146H6.31145C6.86856 13.3146 7.35367 13.5186 7.76681 13.9263C8.16195 14.325 8.35953 14.81 8.35953 15.3811ZM13.9512 14.0893L10.475 14.1983L13.2375 16.3197L12.2543 19.719L15.124 17.7066L18.021 19.719L17.0102 16.3197L19.7991 14.1983L16.2961 14.0893L15.1237 10.7716L13.9512 14.0893Z" fill="white"/>
<path fill-rule="evenodd" clip-rule="evenodd" d="M2.83822 15.5237C2.83822 22.3259 8.30225 27.8403 15.0425 27.8403C21.7827 27.8403 27.2468 22.3259 27.2468 15.5237C27.2468 8.72142 21.7827 3.2071 15.0425 3.2071C8.30225 3.2071 2.83822 8.72142 2.83822 15.5237ZM15.0425 26.6127C21.1109 26.6127 26.0304 21.648 26.0304 15.5237C26.0304 9.39938 21.1109 4.43466 15.0425 4.43466C8.97404 4.43466 4.05459 9.39938 4.05459 15.5237C4.05459 21.648 8.97404 26.6127 15.0425 26.6127Z" fill="white" fill-opacity="0.25"/>
<path fill-rule="evenodd" clip-rule="evenodd" d="M1.52588e-05 15.6669C1.52588e-05 24.1302 6.79829 30.991 15.1844 30.991C23.5705 30.991 30.3688 24.1302 30.3688 15.6669C30.3688 7.20362 23.5705 0.342773 15.1844 0.342773C6.79829 0.342773 1.52588e-05 7.20362 1.52588e-05 15.6669ZM15.1844 29.4637C22.7347 29.4637 28.8554 23.2867 28.8554 15.6669C28.8554 8.04713 22.7347 1.8701 15.1844 1.8701C7.63412 1.8701 1.51341 8.04713 1.51341 15.6669C1.51341 23.2867 7.63412 29.4637 15.1844 29.4637Z" fill="white" fill-opacity="0.1"/>
<path fill-rule="evenodd" clip-rule="evenodd" d="M9.03498 22.6845C10.636 24.1106 12.7391 24.9759 15.0425 24.9759C17.3458 24.9759 19.4489 24.1106 21.05 22.6845H18.7428C17.6432 23.2886 16.3825 23.6318 15.0425 23.6318C13.7024 23.6318 12.4418 23.2886 11.3422 22.6845H9.03498ZM16.7454 8.17782C16.1974 8.05384 15.6275 7.98842 15.0425 7.98842C14.3557 7.98842 13.6898 8.07857 13.0557 8.24778H9.90905C11.3694 7.23622 13.1374 6.64428 15.0425 6.64428C16.9032 6.64428 18.6332 7.20898 20.0734 8.17782H16.7454Z" fill="#D9D9D9" fill-opacity="0.4"/>
</g>
</svg>
