<svg width="21" height="19" viewBox="0 0 21 19" fill="none" xmlns="http://www.w3.org/2000/svg">
<g id="Vector">
<path d="M11.8062 2.64307C11.6627 2.78277 11.5549 2.95435 11.4883 3.14279C11.1105 2.99372 10.6877 3.00684 10.3192 3.17935C9.9507 3.35187 9.67039 3.66877 9.54286 4.0541C9.21471 3.68562 8.71593 3.51687 8.23026 3.60968C7.74554 3.70344 7.34519 4.04565 7.17737 4.51068L5.58819 2.89618C3.83026 1.20293 1.29236 3.6903 2.95544 5.48765L8.84619 11.4722H8.84525C9.04308 11.6673 9.12559 11.9504 9.06464 12.2204L6.65967 11.5519C4.79015 11.0878 4.02595 13.8124 5.8768 14.3825L9.30545 15.3322C10.2411 15.8066 11.2312 16.1638 12.2541 16.3963C12.3309 16.116 12.495 15.8676 12.7228 15.6866L18.3755 10.124C18.5733 9.89802 18.849 9.75269 19.1471 9.71707C18.984 8.37259 17.9555 7.06008 17.8701 6.95879L13.635 2.65431C13.1325 2.14802 12.314 2.1424 11.8058 2.64306L11.8062 2.64307Z" fill="white"/>
<path d="M19.0321 10.5843C19.0143 10.5824 13.1968 16.3298 13.1788 16.3399C13.0823 16.4074 13.0194 16.5143 13.0072 16.6315C12.9951 16.7496 13.0344 16.8668 13.116 16.9531L14.5505 18.411L21 12.0628L19.5627 10.6086C19.4193 10.4623 19.1878 10.4521 19.0321 10.5843Z" fill="white"/>
<path d="M2.62189 2.49018C2.69595 2.41705 2.73814 2.31767 2.73908 2.21361C2.74002 2.10954 2.69877 2.00922 2.62564 1.93514L1.83151 1.12789C1.67869 0.973191 1.43116 0.971316 1.27647 1.1232C1.12177 1.27509 1.1199 1.52355 1.27179 1.67824L2.06684 2.48549C2.13904 2.5605 2.23936 2.60269 2.34342 2.60363C2.44748 2.60363 2.54781 2.56331 2.62189 2.49018Z" fill="white"/>
<path d="M1.42924 3.8938C1.63644 3.94725 1.84833 3.82442 1.90553 3.61817C1.96272 3.4119 1.84365 3.1972 1.63832 3.13626L0.546047 2.83437C0.338845 2.78186 0.126953 2.90468 0.0706925 3.11094C0.0135011 3.31627 0.131635 3.53097 0.336968 3.59191L1.42924 3.8938Z" fill="white"/>
<path d="M0.484147 5.71554C0.62197 5.66022 1.68049 5.45771 1.75737 5.33112C1.88019 5.20549 1.9055 5.01329 1.81831 4.86047C1.73205 4.70765 1.55484 4.63077 1.38328 4.67108L0.286327 4.95517H0.287264C0.0809978 5.0133 -0.0408879 5.22519 0.0125641 5.4324C0.0660064 5.63866 0.276028 5.76522 0.484147 5.71554Z" fill="white"/>
<path d="M1.6731 7.48087L2.48128 6.68581V6.68674C2.63036 6.53298 2.63036 6.28923 2.48035 6.13638C2.33034 5.98354 2.08564 5.97981 1.93092 6.12701L1.12367 6.92207H1.12273C0.972724 7.07489 0.973662 7.31865 1.12367 7.47149C1.27368 7.62433 1.51838 7.62806 1.6731 7.48087Z" fill="white"/>
<path d="M6.26247 2.62627C6.3356 2.70034 6.43499 2.74253 6.53905 2.74347C6.64311 2.7444 6.74343 2.70409 6.81751 2.63096L7.62476 1.8359H7.6257C7.77946 1.68401 7.78134 1.43555 7.62945 1.2818C7.47757 1.1271 7.2291 1.12522 7.07441 1.27711L6.26716 2.07217V2.07123C6.19309 2.14436 6.1509 2.24374 6.14996 2.3478C6.14903 2.45186 6.18934 2.55219 6.26247 2.62627Z" fill="white"/>
<path d="M5.13367 1.9175C5.34181 1.97469 5.55838 1.85187 5.61651 1.64373L5.91841 0.551463C5.97466 0.343322 5.85184 0.128624 5.64371 0.070492C5.43651 0.0133006 5.22087 0.134248 5.1618 0.342384L4.85991 1.43466V1.43372C4.83178 1.53498 4.84491 1.64186 4.89647 1.7328C4.94804 1.82281 5.03241 1.88937 5.13367 1.9175Z" fill="white"/>
<path d="M3.80037 1.86782C4.01039 1.8125 4.13601 1.59873 4.08259 1.38872L3.79756 0.291764C3.74225 0.0836234 3.52848 -0.0410683 3.3194 0.0123596C3.11032 0.066738 2.9847 0.279571 3.03719 0.489587L3.32221 1.5856C3.34846 1.68686 3.41315 1.77312 3.50316 1.82562C3.59317 1.87906 3.70005 1.89407 3.80037 1.86782Z" fill="white"/>
</g>
</svg>
