<svg width="39" height="30" viewBox="0 0 39 30" fill="none" xmlns="http://www.w3.org/2000/svg">
<g id="Vector">
<path d="M8.89032 14.9928V14.9455C8.89032 6.69162 15.5839 0 23.8358 0C32.0896 0 38.7832 6.69356 38.7832 14.9455C38.7832 23.0044 32.4024 29.5767 24.4171 29.8817C25.8926 28.768 26.8471 26.9991 26.8471 25.0064C26.8471 21.7468 24.294 19.0838 21.0782 18.9097C20.724 15.8774 18.1425 13.5253 15.0155 13.5253C13.4283 13.5253 11.9263 14.1371 10.7975 15.2167C10.1801 15.0424 9.53422 14.9704 8.89027 14.9951L8.89032 14.9928Z" fill="url(#paint0_linear_4539_981)"/>
<path d="M20.7409 20.1159C20.4795 20.1159 20.2238 20.1367 19.972 20.1765C19.9208 20.186 19.8773 20.1443 19.881 20.0932C19.8962 19.9417 19.9019 19.7844 19.9019 19.6272C19.9019 16.9283 17.7143 14.7408 15.0135 14.7408C13.4642 14.7408 12.0815 15.4624 11.1876 16.5874C11.1668 16.6158 11.127 16.6234 11.0948 16.6121C10.4982 16.3526 9.83908 16.2086 9.14776 16.2086C6.79161 16.2086 4.82563 17.8754 4.36351 20.0932C4.35404 20.1273 4.32941 20.1519 4.29533 20.1557C1.87479 20.4474 -0.000282288 22.5081 -0.000282288 25.0083C-0.000282288 27.7072 2.18917 29.8967 4.88812 29.8967H20.7388C23.4397 29.8967 25.6272 27.7072 25.6272 25.0083C25.6272 22.3093 23.4397 20.1198 20.7388 20.1198L20.7409 20.1159Z" fill="url(#paint1_linear_4539_981)"/>
<path d="M23.8358 1C16.4428 1 10.3902 6.75648 9.91974 14.0324C10.1223 14.0543 10.3241 14.0849 10.5246 14.1242C11.7803 13.0988 13.3587 12.5253 15.0155 12.5253C18.3771 12.5253 21.1968 14.8605 21.9326 17.9999C25.2907 18.5663 27.8471 21.4876 27.8471 25.0064C27.8471 26.2995 27.5014 27.5117 26.8983 28.5557C33.1274 27.16 37.7832 21.5949 37.7832 14.9455C37.7832 7.24593 31.5374 1 23.8358 1ZM20.7388 21.1198H20.5654C20.4203 21.1264 20.277 21.141 20.1346 21.1632C19.9432 21.1954 19.7622 21.1768 19.6005 21.1198H19.0867L19.213 20.8785C18.9885 20.6599 18.8596 20.3461 18.8838 20.0193L18.8847 20.0065L18.886 19.9937C18.8969 19.8842 18.9019 19.7617 18.9019 19.6272C18.9019 17.4808 17.1623 15.7408 15.0135 15.7408C13.785 15.7408 12.6889 16.3101 11.9767 17.2019C11.6366 17.6424 11.1044 17.6759 10.762 17.5551L10.7285 17.5432L10.696 17.5291C10.2228 17.3233 9.69928 17.2086 9.14776 17.2086C7.2748 17.2086 5.70995 18.5337 5.34248 20.2972L5.3358 20.3293L5.32704 20.3608C5.23033 20.709 4.92353 21.0888 4.41307 21.1488C2.49003 21.3815 0.999718 23.0206 0.999718 25.0083C0.999718 27.1549 2.74146 28.8967 4.88812 28.8967H20.7388C22.8871 28.8967 24.6272 27.1552 24.6272 25.0083C24.6272 22.8613 22.8871 21.1198 20.7388 21.1198Z" stroke="url(#paint2_linear_4539_981)" stroke-opacity="0.28" stroke-width="2"/>
</g>
<defs>
<linearGradient id="paint0_linear_4539_981" x1="19.3915" y1="0" x2="18.667" y2="23.5159" gradientUnits="userSpaceOnUse">
<stop stop-color="#FFD900"/>
<stop offset="1" stop-color="#995E00"/>
</linearGradient>
<linearGradient id="paint1_linear_4539_981" x1="20.5" y1="20" x2="1" y2="29.5" gradientUnits="userSpaceOnUse">
<stop stop-color="white"/>
<stop offset="1" stop-color="#BDBDBD"/>
</linearGradient>
<linearGradient id="paint2_linear_4539_981" x1="19.3915" y1="0" x2="19.3915" y2="29.8967" gradientUnits="userSpaceOnUse">
<stop stop-color="white"/>
<stop offset="1" stop-color="white" stop-opacity="0"/>
</linearGradient>
</defs>
</svg>
