<svg width="30" height="41" viewBox="0 0 30 41" fill="none" xmlns="http://www.w3.org/2000/svg">
<g opacity="0.33">
<path d="M14.5204 0.328533L13.5086 0.842773L12.5768 4.96343L11.287 9.25203L10.9798 14.1578L1.75406 4.03327L0.625795 5.12344L10.945 15.2582L11.0076 16.5305L10.0468 17.6383V21.1572L10.4035 21.4613L0 31.3407L1.14284 32.5484L11.1941 21.9935L11.609 21.9906L12.1186 24.074L13.1581 25.84L13.6356 36.2422L10.7472 36.1907L12.0443 39.213L13.672 38.0273L13.8903 40.5779L14.5222 40.5662L15.154 40.5779L15.3724 38.0273L17 39.213L18.2972 36.1907L15.4088 36.2422L15.8863 25.84L16.9258 24.074L17.4353 21.9906L17.8503 21.9935L27.9015 32.5484L29.0444 31.3407L18.6409 21.4613L18.9976 21.1572L18.9961 17.6398L18.0353 16.532L18.0979 15.2582L28.4156 5.12344L27.2874 4.03327L18.0616 14.1578L17.7544 9.25203L16.4646 4.96343L15.5328 0.842773L14.5204 0.328533Z" fill="white"/>
<path d="M19.104 24.8865C18.4852 25.3537 17.7966 25.7284 17.0527 25.9914L16.9508 26.1647L16.8969 27.3299C18.0193 27.014 19.053 26.4806 19.9513 25.7769L19.104 24.8865Z" fill="white" fill-opacity="0.4"/>
<path d="M21.6051 13.3338L20.7257 14.1977C21.6327 15.4671 22.1714 17.0216 22.1714 18.7097C22.1714 20.0584 21.8293 21.3249 21.2295 22.4283L22.135 23.2879C22.9285 21.9479 23.3871 20.3817 23.3871 18.7097C23.3871 16.6938 22.7232 14.8322 21.6051 13.3352L21.6051 13.3338Z" fill="white" fill-opacity="0.4"/>
<path d="M23.413 11.5589L22.5439 12.4125C23.8833 14.1492 24.684 16.3325 24.684 18.7081C24.684 20.7313 24.1031 22.6164 23.103 24.2045L23.9983 25.0537C25.1979 23.2348 25.8982 21.0528 25.8982 18.708C25.8982 16.0046 24.9664 13.5201 23.4145 11.5571L23.413 11.5589Z" fill="white" fill-opacity="0.25"/>
<path d="M20.8567 26.7274C19.6964 27.6619 18.3294 28.3436 16.8327 28.6948L16.7745 29.9627C18.6147 29.5881 20.2933 28.7638 21.6967 27.6105L20.8567 26.7274Z" fill="white" fill-opacity="0.25"/>
<path d="M8.18357 26.7274L7.34355 27.6105C8.74697 28.7638 10.4256 29.5881 12.2658 29.9627L12.2075 28.6948C10.7124 28.3466 9.34387 27.6634 8.18501 26.7289L8.18357 26.7274Z" fill="white" fill-opacity="0.25"/>
<path d="M5.62832 11.5589C4.07492 13.5218 3.14464 16.0077 3.14464 18.7098C3.14464 21.0547 3.8449 23.2365 5.04453 25.0554L5.93986 24.2048C4.94115 22.6165 4.36026 20.7329 4.36026 18.7084C4.36026 16.3327 5.15951 14.1494 6.49891 12.4113L5.62832 11.5589Z" fill="white" fill-opacity="0.25"/>
<path d="M10.5502 7.95041C9.64462 8.29127 8.79587 8.74527 8.01697 9.29476L8.84097 10.1998C9.26897 9.90888 9.72176 9.65031 10.1949 9.42697L10.2095 9.18454C10.2138 9.10079 10.2298 9.01705 10.2531 8.93624L10.5502 7.95041Z" fill="white" fill-opacity="0.25"/>
<path d="M18.4905 7.95041L18.7875 8.93627C18.8122 9.01708 18.8268 9.09936 18.8311 9.18458L18.8457 9.427C19.3174 9.65032 19.7702 9.90889 20.1996 10.1998L21.0236 9.29626C20.2448 8.74531 19.396 8.29125 18.4905 7.95041Z" fill="white" fill-opacity="0.25"/>
<path d="M25.3272 9.67826L24.4581 10.5319C26.2604 12.7593 27.3407 15.6051 27.3407 18.7096C27.3407 21.4468 26.4992 23.9814 25.0652 26.0704L25.9532 26.9138C27.5896 24.5983 28.5548 21.7669 28.5548 18.7097C28.5548 15.279 27.3421 12.1321 25.3272 9.67826Z" fill="white" fill-opacity="0.1"/>
<path d="M17.5688 4.88558L17.9793 6.25197C19.4468 6.66484 20.808 7.3348 22.0119 8.21046L22.8359 7.30542C21.2913 6.155 19.5051 5.31902 17.5688 4.88558Z" fill="white" fill-opacity="0.1"/>
<path d="M11.4718 4.88558C9.53556 5.31899 7.74923 6.155 6.20302 7.30542L7.02702 8.20899C8.23247 7.33333 9.59221 6.66334 11.0611 6.2505L11.4718 4.88558Z" fill="white" fill-opacity="0.1"/>
<path d="M3.71378 9.67826C1.69891 12.1304 0.486153 15.2792 0.486153 18.7098C0.486153 21.7673 1.45136 24.5969 3.08776 26.9139L3.97582 26.0705C2.54325 23.9813 1.70178 21.4468 1.70178 18.7097C1.70178 15.6052 2.782 12.7594 4.58436 10.532L3.71378 9.67826Z" fill="white" fill-opacity="0.1"/>
<path d="M6.33313 28.6698L5.49602 29.5499C7.42211 31.1851 9.78948 32.3105 12.3909 32.7102L12.3341 31.4569C10.0776 31.0676 8.02352 30.0861 6.33446 28.6713L6.33313 28.6698Z" fill="white" fill-opacity="0.1"/>
<path fill-rule="evenodd" clip-rule="evenodd" d="M5.65471 18.7082C5.65471 16.6925 6.31856 14.8309 7.43665 13.3338L8.31603 14.1963C7.41048 15.4656 6.87037 17.0201 6.87037 18.7083C6.87037 20.0585 7.21247 21.325 7.81229 22.4269L6.90675 23.2864C6.11186 21.9465 5.65471 20.3802 5.65471 18.7082ZM9.93785 24.8865L9.09056 25.7754C9.98735 26.4792 11.021 27.0125 12.1449 27.3284L12.0911 26.1632L11.9891 25.9913C11.2455 25.7285 10.5563 25.3534 9.93785 24.8865Z" fill="white" fill-opacity="0.4"/>
<path d="M22.7057 28.6698C21.0169 30.0832 18.9627 31.0647 16.706 31.4555L16.6492 32.7087C19.2509 32.3076 21.6165 31.1836 23.5441 29.5484L22.7057 28.6698Z" fill="white" fill-opacity="0.1"/>
</g>
</svg>
